    -1
   151
eal151                                                                          
eal151                                                                          
SDRC  I-DEAS VI:  Monitor                                                       
06-FEB-92   09:02:58         6         0
06-FEB-92   13:22:57
SDRC  I-DEAS VI:  FE_Modeling_&_Analysis                                        
07-FEB-92   09:27:01
    -1
    -1
   164
         7British grav (mod-in         2
  3.93700787401574790D+01  2.24808943099710460D-01  1.80000000000000000D+00
  4.59670000000000000D+02
    -1
    -1
   154
         1ONE,   FULL SCREEN  
         1
  0.00000E+00  1.00000E+00  0.00000E+00  1.00000E+00
    -1
    -1
   154
         2TWO,   SIDE BY SIDE 
         2
  0.00000E+00  4.98500E-01  0.00000E+00  1.00000E+00
  5.01500E-01  1.00000E+00  0.00000E+00  1.00000E+00
    -1
    -1
   154
         3THREE, LARGE LEFT   
         3
  0.00000E+00  6.58500E-01  0.00000E+00  1.00000E+00
  6.61500E-01  1.00000E+00  5.02000E-01  1.00000E+00
  6.61500E-01  1.00000E+00  0.00000E+00  4.98000E-01
    -1
    -1
   154
         4FOUR,  EQUAL SIZE   
         4
  0.00000E+00  4.98500E-01  5.02000E-01  1.00000E+00
  5.01500E-01  1.00000E+00  5.02000E-01  1.00000E+00
  0.00000E+00  4.98500E-01  0.00000E+00  4.98000E-01
  5.01500E-01  1.00000E+00  0.00000E+00  4.98000E-01
    -1
    -1
   160
         1OBSERVER            
         1        15         0         0         0
  0.00000E+00  0.00000E+00  0.00000E+00  0.00000E+00
  0.00000E+00  0.00000E+00  1.00000E+00  0.00000E+00
  0.00000E+00  1.00000E+00
    -1
    -1
   160
         2RIGHT_SHOULDER      
         0        15         2         2         0
  2.00000E+00  2.00000E+00  2.00000E+00  0.00000E+00
  0.00000E+00  0.00000E+00  1.00000E+00  0.00000E+00
  0.00000E+00  3.45999E+00
    -1
    -1
   160
         3LEFT_SHOULDER       
         0        15         2         2         0
 -2.00000E+00  2.00000E+00  2.00000E+00  0.00000E+00
  0.00000E+00  0.00000E+00  1.00000E+00  0.00000E+00
  0.00000E+00  3.45999E+00
    -1
    -1
   436
         0BLACK               
  0.00000E+00  0.00000E+00  0.00000E+00
    -1
    -1
   436
         1BLUE                
  0.00000E+00  0.00000E+00  1.00000E+00
    -1
    -1
   436
         2GRAY_BLUE           
  0.00000E+00  3.30000E-01  1.00000E+00
    -1
    -1
   436
         3LIGHT_BLUE          
  0.00000E+00  6.60000E-01  1.00000E+00
    -1
    -1
   436
         4CYAN                
  0.00000E+00  1.00000E+00  1.00000E+00
    -1
    -1
   436
         5DARK_OLIVE          
  0.00000E+00  3.30000E-01  0.00000E+00
    -1
    -1
   436
         6DARK_GREEN          
  0.00000E+00  6.60000E-01  0.00000E+00
    -1
    -1
   436
         7GREEN               
  0.00000E+00  1.00000E+00  0.00000E+00
    -1
    -1
   436
         8YELLOW              
  1.00000E+00  1.00000E+00  0.00000E+00
    -1
    -1
   436
         9GOLDEN_ORANGE       
  1.00000E+00  6.60000E-01  0.00000E+00
    -1
    -1
   436
        10ORANGE              
  1.00000E+00  3.30000E-01  0.00000E+00
    -1
    -1
   436
        11RED                 
  1.00000E+00  0.00000E+00  0.00000E+00
    -1
    -1
   436
        12MAGENTA             
  1.00000E+00  0.00000E+00  1.00000E+00
    -1
    -1
   436
        13LIGHT_MAGENTA       
  1.00000E+00  3.30000E-01  1.00000E+00
    -1
    -1
   436
        14PINK                
  1.00000E+00  6.60000E-01  1.00000E+00
    -1
    -1
   436
        15WHITE               
  1.00000E+00  1.00000E+00  1.00000E+00
    -1
    -1
   800 
         1
WORKING_SET1
    -1
    -1
   801
         1         0         1         8         1         1         0         0
         3         0         0         1         0
     1     1
  -2.4999999697870156D-01  -4.9999999395740312D-01   0.0000000000000000D+00
   0.0000000000000000D+00  -4.9999999395740312D-01   0.0000000000000000D+00
         2         0         1         8         1         1         0         0
         3         0         0         1         0
     1     1
   0.0000000000000000D+00  -4.9999999395740312D-01   0.0000000000000000D+00
   0.0000000000000000D+00   0.0000000000000000D+00   0.0000000000000000D+00
         3         0         1         8         1         1         0         0
         3         0         0         1         0
     1     1
   0.0000000000000000D+00   0.0000000000000000D+00   0.0000000000000000D+00
  -2.4999999697870156D-01   0.0000000000000000D+00   0.0000000000000000D+00
         4         0         1         8         1         1         0         0
         3         0         0         1         0
     1     1
  -2.4999999697870156D-01   0.0000000000000000D+00   0.0000000000000000D+00
  -2.4999999697870156D-01  -4.9999999395740312D-01   0.0000000000000000D+00
         6         0         1         8         1         1         0         0
         3         0         0         1         0
     1     1
  -4.9999999395740312D-01  -4.9999999395740312D-01   0.0000000000000000D+00
  -2.4999999697870156D-01  -4.9999999395740312D-01   0.0000000000000000D+00
         7         0         1         8         1         1         0         0
         3         0         0         1         0
     1     1
  -4.9999999395740312D-01  -4.9999999395740312D-01   0.0000000000000000D+00
  -2.4999999697870156D-01  -4.9999999395740312D-01   0.0000000000000000D+00
         8         0         1         8         1         1         0         0
         3         0         0         1         0
     1     1
  -2.4999999697870156D-01   0.0000000000000000D+00   0.0000000000000000D+00
  -4.9999999395740312D-01   0.0000000000000000D+00   0.0000000000000000D+00
         9         0         1         8         1         1         0         0
         3         0         0         1         0
     1     1
  -4.9999999395740312D-01   0.0000000000000000D+00   0.0000000000000000D+00
  -4.9999999395740312D-01  -4.9999999395740312D-01   0.0000000000000000D+00
        10         0         1         8         1         1         0         0
         3         0         0         1         0
     1     1
  -2.4999999697870156D-01  -4.9999999395740312D-01   3.9999999516592252D+00
   0.0000000000000000D+00  -4.9999999395740312D-01   3.9999999516592252D+00
        11         0         1         8         1         1         0         0
         3         0         0         1         0
     1     1
   0.0000000000000000D+00  -4.9999999395740312D-01   3.9999999516592252D+00
   0.0000000000000000D+00   0.0000000000000000D+00   3.9999999516592252D+00
        12         0         1         8         1         1         0         0
         3         0         0         1         0
     1     1
   0.0000000000000000D+00   0.0000000000000000D+00   3.9999999516592252D+00
  -2.4999999697870156D-01   0.0000000000000000D+00   3.9999999516592252D+00
        13         0         1         8         1         1         0         0
         3         0         0         1         0
     1     1
  -2.4999999697870156D-01   0.0000000000000000D+00   3.9999999516592252D+00
  -2.4999999697870156D-01  -4.9999999395740312D-01   3.9999999516592252D+00
        14         0         1         8         1         1         0         0
         3         0         0         1         0
     1     1
  -4.9999999395740312D-01  -4.9999999395740312D-01   3.9999999516592252D+00
  -2.4999999697870156D-01  -4.9999999395740312D-01   3.9999999516592252D+00
        15         0         1         8         1         1         0         0
         3         0         0         1         0
     1     1
  -2.4999999697870156D-01   0.0000000000000000D+00   3.9999999516592252D+00
  -4.9999999395740312D-01   0.0000000000000000D+00   3.9999999516592252D+00
        16         0         1         8         1         1         0         0
         3         0         0         1         0
     1     1
  -4.9999999395740312D-01   0.0000000000000000D+00   3.9999999516592252D+00
  -4.9999999395740312D-01  -4.9999999395740312D-01   3.9999999516592252D+00
        17         0         1         8         1         1         0         0
         3         0         0         1         0
     1     1
   0.0000000000000000D+00   0.0000000000000000D+00   0.0000000000000000D+00
   0.0000000000000000D+00   0.0000000000000000D+00   3.9999999516592252D+00
        18         0         1         8         1         1         0         0
         3         0         0         1         0
     1     1
   0.0000000000000000D+00  -4.9999999395740312D-01   0.0000000000000000D+00
   0.0000000000000000D+00  -4.9999999395740312D-01   3.9999999516592252D+00
        19         0         1         8         1         1         0         0
         3         0         0         1         0
     1     1
  -2.4999999697870156D-01   0.0000000000000000D+00   0.0000000000000000D+00
  -2.4999999697870156D-01   0.0000000000000000D+00   3.9999999516592252D+00
        20         0         1         8         1         1         0         0
         3         0         0         1         0
     1     1
  -2.4999999697870156D-01  -4.9999999395740312D-01   0.0000000000000000D+00
  -2.4999999697870156D-01  -4.9999999395740312D-01   3.9999999516592252D+00
        21         0         1         8         1         1         0         0
         3         0         0         1         0
     1     1
  -4.9999999395740312D-01   0.0000000000000000D+00   0.0000000000000000D+00
  -4.9999999395740312D-01   0.0000000000000000D+00   3.9999999516592252D+00
        22         0         1         8         1         1         0         0
         3         0         0         1         0
     1     1
  -4.9999999395740312D-01  -4.9999999395740312D-01   0.0000000000000000D+00
  -4.9999999395740312D-01  -4.9999999395740312D-01   3.9999999516592252D+00
    -1
    -1
   802 
         1         0         1         7         2
   0.0000000000000000D+00   0.0000000000000000D+00   0.0000000000000000D+00
         2         0         1         7         2
   0.0000000000000000D+00  -4.9999999395740312D-01   0.0000000000000000D+00
         3         0         1         7         2
  -2.4999999697870156D-01  -4.9999999395740312D-01   0.0000000000000000D+00
         4         0         1         7         2
  -2.4999999697870156D-01   0.0000000000000000D+00   0.0000000000000000D+00
         5         0         1         7         2
  -4.9999999395740312D-01  -4.9999999395740312D-01   0.0000000000000000D+00
         6         0         1         7         2
  -4.9999999395740312D-01   0.0000000000000000D+00   0.0000000000000000D+00
         7         0         1         7         2
   0.0000000000000000D+00   0.0000000000000000D+00   3.9999999516592252D+00
         8         0         1         7         2
   0.0000000000000000D+00  -4.9999999395740312D-01   3.9999999516592252D+00
         9         0         1         7         2
  -2.4999999697870156D-01  -4.9999999395740312D-01   3.9999999516592252D+00
        10         0         1         7         2
  -2.4999999697870156D-01   0.0000000000000000D+00   3.9999999516592252D+00
        11         0         1         7         2
  -4.9999999395740312D-01  -4.9999999395740312D-01   3.9999999516592252D+00
        12         0         1         7         2
  -4.9999999395740312D-01   0.0000000000000000D+00   3.9999999516592252D+00
    -1
    -1
   770
         1         1
MAIN
    -1
    -1
   788
         1       110         4
SOLID1
 0.000000E+00 0.000000E+00 0.000000E+00 0.000000E+00 0.000000E+00 0.000000E+00
 0.000000E+00 0.000000E+00 0.000000E+00 0.000000E+00 0.000000E+00 0.000000E+00
         2        90         7
THIN SHELL2 
 3.937008E-02 0.000000E+00 0.000000E+00 0.000000E+00 1.000000E-35 1.000000E-35
 1.000000E-35 1.000000E-35 1.000000E-35 0.000000E+00 0.000000E+00 0.000000E+00
 0.000000E+00 0.000000E+00 0.000000E+00 0.000000E+00 0.000000E+00 0.000000E+00
 0.000000E+00
    -1
    -1
   770
         1         2
MAIN
    -1
    -1
   773
         1         1        27
ISOTROPIC1
 1.092000E+07 2.500000E-01 7.317373E-04 4.368000E+06 2.005556E-06 1.000000E-35
 1.000000E-35 5.620224E+00 1.000000E-35 0.000000E+00 3.596936E+04 0.000000E+00
 0.000000E+00 0.000000E+00 0.000000E+00 0.000000E+00 0.000000E+00 1.000000E+00
 1.000000E+00 1.000000E+00 1.000000E-04 2.175566E+05 2.175566E+05 2.175566E+05
 2.175566E+05 9.862566E+03 0.000000E+00
    -1
    -1
   770
         1         0
MAIN
    -1
    -1
   771
         1         1         1
FE MODEL1 
    -1
    -1
   742
         1         2         2         4         1
         2         2         1         1         2         2
         1         1         0         0         8         0
  -2.4999999697870156D-01  -4.9999999395740312D-01   0.0000000000000000D+00
   0.0000000000000000D+00  -4.9999999395740312D-01   0.0000000000000000D+00
  -2.4999999697870156D-01   0.0000000000000000D+00   0.0000000000000000D+00
   0.0000000000000000D+00   0.0000000000000000D+00   0.0000000000000000D+00
   0.0000000000000000D+00   0.0000000000000000D+00   1.0000000000000000D+00
   1.0000000000000000D+00   0.0000000000000000D+00   0.0000000000000000D+00
   1.0000000000000000D+00   1.0000000000000000D+00
         2         2         2         4         1
         2         2         1         1         2         2
         1         1         0         0         8         0
   0.0000000000000000D+00  -4.9999999395740312D-01   0.0000000000000000D+00
   0.0000000000000000D+00   0.0000000000000000D+00   0.0000000000000000D+00
   0.0000000000000000D+00  -4.9999999395740312D-01   3.9999999516592252D+00
   0.0000000000000000D+00   0.0000000000000000D+00   3.9999999516592252D+00
   0.0000000000000000D+00   0.0000000000000000D+00   1.0000000000000000D+00
   1.0000000000000000D+00   0.0000000000000000D+00   0.0000000000000000D+00
   1.0000000000000000D+00   1.0000000000000000D+00
         3         2         2         4         1
         2         2         1         1         2         2
         1         1         0         0         8         0
   0.0000000000000000D+00   0.0000000000000000D+00   0.0000000000000000D+00
  -2.4999999697870156D-01   0.0000000000000000D+00   0.0000000000000000D+00
   0.0000000000000000D+00   0.0000000000000000D+00   3.9999999516592252D+00
  -2.4999999697870156D-01   0.0000000000000000D+00   3.9999999516592252D+00
   0.0000000000000000D+00   0.0000000000000000D+00   1.0000000000000000D+00
   1.0000000000000000D+00   0.0000000000000000D+00   0.0000000000000000D+00
   1.0000000000000000D+00   1.0000000000000000D+00
         4         2         2         4         1
         2         2         1         1         2         2
         1         1         0         0         8         0
  -2.4999999697870156D-01  -4.9999999395740312D-01   3.9999999516592252D+00
   0.0000000000000000D+00  -4.9999999395740312D-01   3.9999999516592252D+00
  -2.4999999697870156D-01   0.0000000000000000D+00   3.9999999516592252D+00
   0.0000000000000000D+00   0.0000000000000000D+00   3.9999999516592252D+00
   0.0000000000000000D+00   0.0000000000000000D+00   1.0000000000000000D+00
   1.0000000000000000D+00   0.0000000000000000D+00   0.0000000000000000D+00
   1.0000000000000000D+00   1.0000000000000000D+00
         5         2         2         4         1
         2         2         1         1         2         2
         1         1         0         0         8         0
  -2.4999999697870156D-01  -4.9999999395740312D-01   3.9999999516592252D+00
   0.0000000000000000D+00  -4.9999999395740312D-01   3.9999999516592252D+00
  -2.4999999697870156D-01  -4.9999999395740312D-01   0.0000000000000000D+00
   0.0000000000000000D+00  -4.9999999395740312D-01   0.0000000000000000D+00
   0.0000000000000000D+00   0.0000000000000000D+00   1.0000000000000000D+00
   1.0000000000000000D+00   0.0000000000000000D+00   0.0000000000000000D+00
   1.0000000000000000D+00   1.0000000000000000D+00
         6         2         2         4         1
         2         2         1         1         2         2
         1         1         0         0         8         0
  -2.4999999697870156D-01  -4.9999999395740312D-01   0.0000000000000000D+00
  -2.4999999697870156D-01   0.0000000000000000D+00   0.0000000000000000D+00
  -2.4999999697870156D-01  -4.9999999395740312D-01   3.9999999516592252D+00
  -2.4999999697870156D-01   0.0000000000000000D+00   3.9999999516592252D+00
   0.0000000000000000D+00   0.0000000000000000D+00   1.0000000000000000D+00
   1.0000000000000000D+00   0.0000000000000000D+00   0.0000000000000000D+00
   1.0000000000000000D+00   1.0000000000000000D+00
         7         2         2         4         1
         2         2         1         1         2         2
         1         1         0         0         8         0
  -4.9999999395740312D-01  -4.9999999395740312D-01   0.0000000000000000D+00
  -2.4999999697870156D-01  -4.9999999395740312D-01   0.0000000000000000D+00
  -4.9999999395740312D-01   0.0000000000000000D+00   0.0000000000000000D+00
  -2.4999999697870156D-01   0.0000000000000000D+00   0.0000000000000000D+00
   0.0000000000000000D+00   0.0000000000000000D+00   1.0000000000000000D+00
   1.0000000000000000D+00   0.0000000000000000D+00   0.0000000000000000D+00
   1.0000000000000000D+00   1.0000000000000000D+00
         8         2         2         4         1
         2         2         1         1         2         2
         1         1         0         0         8         0
  -4.9999999395740312D-01  -4.9999999395740312D-01   3.9999999516592252D+00
  -2.4999999697870156D-01  -4.9999999395740312D-01   3.9999999516592252D+00
  -4.9999999395740312D-01   0.0000000000000000D+00   3.9999999516592252D+00
  -2.4999999697870156D-01   0.0000000000000000D+00   3.9999999516592252D+00
   0.0000000000000000D+00   0.0000000000000000D+00   1.0000000000000000D+00
   1.0000000000000000D+00   0.0000000000000000D+00   0.0000000000000000D+00
   1.0000000000000000D+00   1.0000000000000000D+00
         9         2         2         4         1
         2         2         1         1         2         2
         1         1         0         0         8         0
  -4.9999999395740312D-01   0.0000000000000000D+00   3.9999999516592252D+00
  -2.4999999697870156D-01   0.0000000000000000D+00   3.9999999516592252D+00
  -4.9999999395740312D-01   0.0000000000000000D+00   0.0000000000000000D+00
  -2.4999999697870156D-01   0.0000000000000000D+00   0.0000000000000000D+00
   0.0000000000000000D+00   0.0000000000000000D+00   1.0000000000000000D+00
   1.0000000000000000D+00   0.0000000000000000D+00   0.0000000000000000D+00
   1.0000000000000000D+00   1.0000000000000000D+00
        10         2         2         4         1
         2         2         1         1         2         2
         1         1         0         0         8         0
  -4.9999999395740312D-01   0.0000000000000000D+00   0.0000000000000000D+00
  -4.9999999395740312D-01   0.0000000000000000D+00   3.9999999516592252D+00
  -4.9999999395740312D-01  -4.9999999395740312D-01   0.0000000000000000D+00
  -4.9999999395740312D-01  -4.9999999395740312D-01   3.9999999516592252D+00
   0.0000000000000000D+00   0.0000000000000000D+00   1.0000000000000000D+00
   1.0000000000000000D+00   0.0000000000000000D+00   0.0000000000000000D+00
   1.0000000000000000D+00   1.0000000000000000D+00
        11         2         2         4         1
         2         2         1         1         2         2
         1         1         0         0         8         0
  -4.9999999395740312D-01  -4.9999999395740312D-01   0.0000000000000000D+00
  -4.9999999395740312D-01  -4.9999999395740312D-01   3.9999999516592252D+00
  -2.4999999697870156D-01  -4.9999999395740312D-01   0.0000000000000000D+00
  -2.4999999697870156D-01  -4.9999999395740312D-01   3.9999999516592252D+00
   0.0000000000000000D+00   0.0000000000000000D+00   1.0000000000000000D+00
   1.0000000000000000D+00   0.0000000000000000D+00   0.0000000000000000D+00
   1.0000000000000000D+00   1.0000000000000000D+00
    -1
    -1
   743
         1        -1         3  0.00000E+00
         3         2         1
         2        -1         3  0.00000E+00
         5         2         1
         3        -1         5  0.00000E+00
         6        11         7         5         1
         4        -1         5  0.00000E+00
         6         9         7         3         1
         5        -1         3  0.00000E+00
        11        10         7
         6        -1         3  0.00000E+00
        10         9         7
         7        -1         3  0.00000E+00
         4         3         2
         8        -1         3  0.00000E+00
         5         4         2
         9        -1         5  0.00000E+00
         6        11         8         5         4
        10        -1         5  0.00000E+00
         6         9         8         4         3
        11        -1         3  0.00000E+00
        11        10         8
        12        -1         3  0.00000E+00
        10         9         8
    -1
    -1
   744
         1         3         2         2         1
 -1.25000E-01 -5.00000E-01  0.00000E+00
         5         1
         2         2         1         2         1
  0.00000E+00 -2.50000E-01  0.00000E+00
         2         1
         3         1         4         2         1
 -1.25000E-01  0.00000E+00  0.00000E+00
         3         1
         4         4         3         3         1
 -2.50000E-01 -2.50000E-01  0.00000E+00
         6         7         1
         6         5         3         2         1
 -3.75000E-01 -5.00000E-01  0.00000E+00
        11         7
         7         5         3         0         1
 -3.75000E-01 -5.00000E-01  0.00000E+00
         8         4         6         2         1
 -3.75000E-01  0.00000E+00  0.00000E+00
         9         7
         9         6         5         2         1
 -5.00000E-01 -2.50000E-01  0.00000E+00
        10         7
        10         9         8         2         1
 -1.25000E-01 -5.00000E-01  4.00000E+00
         5         4
        11         8         7         2         1
  0.00000E+00 -2.50000E-01  4.00000E+00
         4         2
        12         7        10         2         1
 -1.25000E-01  0.00000E+00  4.00000E+00
         4         3
        13        10         9         3         1
 -2.50000E-01 -2.50000E-01  4.00000E+00
         6         8         4
        14        11         9         2         1
 -3.75000E-01 -5.00000E-01  4.00000E+00
        11         8
        15        10        12         2         1
 -3.75000E-01  0.00000E+00  4.00000E+00
         9         8
        16        12        11         2         1
 -5.00000E-01 -2.50000E-01  4.00000E+00
        10         8
        17         1         7         2         1
  0.00000E+00  0.00000E+00  2.00000E+00
         3         2
        18         2         8         2         1
  0.00000E+00 -5.00000E-01  2.00000E+00
         5         2
        19         4        10         3         1
 -2.50000E-01  0.00000E+00  2.00000E+00
         6         9         3
        20         3         9         3         1
 -2.50000E-01 -5.00000E-01  2.00000E+00
         6        11         5
        21         6        12         2         1
 -5.00000E-01  0.00000E+00  2.00000E+00
        10         9
        22         5        11         2         1
 -5.00000E-01 -5.00000E-01  2.00000E+00
        11        10
    -1
    -1
   762
   1.0000000000000000D+00   1.0000000000000000D+00   1.0000000000000000D-04
   2.0000000000000000D-01   7.8740157480314958D+00
         1         1         1         1         1
    -1
    -1
   745
         1        12         1         0         0        11         2         1
        94         1         2         1         1         7         1         1
         1         0
         4
         1         2         3         4
         0         0         1         2         0         0         0         0
         0         0
         2        12         1         0         0        11         2         1
        94         1         2         1         1         7         1         1
         2         0
         4
         2        17        11        18
         0         0         1         2         0         0         0         0
         0         0
         3        12         1         0         0        11         2         1
        94         1         2         1         1         7         1         1
         3         0
         4
         3        19        12        17
         0         0         1         2         0         0         0         0
         0         0
         4        12         1         0         0        11         2         1
        94         1         2         1         1         7         1         1
         4         0
         4
        10        11        12        13
         0         0         1         2         0         0         0         0
         0         0
         5        12         1         0         0        11         2         1
        94         1         2         1         1         7         1         1
         5         0
         4
        10        18         1        20
         0         0         1         2         0         0         0         0
         0         0
         6        12         1         0         0        11         2         1
        94         1         2         1         1         7         1         1
         6         0
         4
         4        19        13        20
         0         0         1         2         0         0         0         0
         0         0
         7        12         1         0         0        11         2         1
        94         1         2         1         1         7         1         1
         7         0
         4
         6         4         8         9
         0         0         1         2         0         0         0         0
         0         0
         8        12         1         0         0        11         2         1
        94         1         2         1         1         7         1         1
         8         0
         4
        14        13        15        16
         0         0         1         2         0         0         0         0
         0         0
         9        12         1         0         0        11         2         1
        94         1         2         1         1         7         1         1
         9         0
         4
        15        19         8        21
         0         0         1         2         0         0         0         0
         0         0
        10        12         1         0         0        11         2         1
        94         1         2         1         1         7         1         1
        10         0
         4
        21        16        22         9
         0         0         1         2         0         0         0         0
         0         0
        11        12         1         0         0        11         2         1
        94         1         2         1         1         7         1         1
        11         0
         4
        22        14        20         6
         0         0         1         2         0         0         0         0
         0         0
        12        12         1         0         0        11         2         1
        94         1         2         1         1         7         1         1
         6         0
         4
         4        19        13        20
         0         0         1         2         0         0         0         0
         0         0
    -1
    -1
   746
         1         6         1         0         0        11         1
         2       115         1         1         1         1         7         6
         1         5         2         3         6         4
         1         1         1         1         1         2         2         2
         4         9         1
         2         6         1         0         0        11         1
         2       115         1         1         1         1         7         6
         7        11        12         9        10         8
         1         1         1        37         1         2         2         2
         4         9         1
    -1
    -1
   764
         1         0         0         0         0         0         0         1
         0         0         1         0         0
   1.0000000000000000D+00
         2         0         0         0         0         0         0         1
         0         0         1         0         0
   1.0000000000000000D+00
         3         0         0         0         0         0         0         1
         0         0         1         0         0
   1.0000000000000000D+00
         4         0         0         0         0         0         0         1
         0         0         1         0         0
   1.0000000000000000D+00
         6         0         0         0         0         0         0         1
         0         0         1         0         0
   1.0000000000000000D+00
         8         0         0         0         0         0         0         1
         0         0         1         0         0
   1.0000000000000000D+00
         9         0         0         0         0         0         0         1
         0         0         1         0         0
   1.0000000000000000D+00
        10         0         0         0         0         0         0         1
         0         0         1         0         0
   1.0000000000000000D+00
        11         0         0         0         0         0         0         1
         0         0         1         0         0
   1.0000000000000000D+00
        12         0         0         0         0         0         0         1
         0         0         1         0         0
   1.0000000000000000D+00
        13         0         0         0         0         0         0         1
         0         0         1         0         0
   1.0000000000000000D+00
        14         0         0         0         0         0         0         1
         0         0         1         0         0
   1.0000000000000000D+00
        15         0         0         0         0         0         0         1
         0         0         1         0         0
   1.0000000000000000D+00
        16         0         0         0         0         0         0         1
         0         0         1         0         0
   1.0000000000000000D+00
        17         0         0         0         0         0         0         1
         0         0         8         0         0
   1.0000000000000000D+00
        18         0         0         0         0         0         0         1
         0         0         8         0         0
   1.0000000000000000D+00
        19         0         0         0         0         0         0         1
         0         0         8         0         0
   1.0000000000000000D+00
        20         0         0         0         0         0         0         1
         0         0         8         0         0
   1.0000000000000000D+00
        21         0         0         0         0         0         0         1
         0         0         8         0         0
   1.0000000000000000D+00
        22         0         0         0         0         0         0         1
         0         0         8         0         0
   1.0000000000000000D+00
    -1
    -1
   781
         1         0         0        11
  -2.4999999697870156D-01  -4.9999999395740312D-01   0.0000000000000000D+00
         2         0         0        11
   0.0000000000000000D+00  -4.9999999395740312D-01   0.0000000000000000D+00
         3         0         0        11
  -2.4999999697870156D-01   0.0000000000000000D+00   0.0000000000000000D+00
         4         0         0        11
   0.0000000000000000D+00   0.0000000000000000D+00   0.0000000000000000D+00
         5         0         0        11
  -2.4999999697870156D-01  -4.9999999395740312D-01   4.9999999395740312D-01
         6         0         0        11
   0.0000000000000000D+00  -4.9999999395740312D-01   4.9999999395740312D-01
         7         0         0        11
  -2.4999999697870156D-01   0.0000000000000000D+00   4.9999999395740312D-01
         8         0         0        11
   0.0000000000000000D+00   0.0000000000000000D+00   4.9999999395740312D-01
         9         0         0        11
  -2.4999999697870156D-01  -4.9999999395740312D-01   9.9999998791480625D-01
        10         0         0        11
   0.0000000000000000D+00  -4.9999999395740312D-01   9.9999998791480625D-01
        11         0         0        11
  -2.4999999697870156D-01   0.0000000000000000D+00   9.9999998791480625D-01
        12         0         0        11
   0.0000000000000000D+00   0.0000000000000000D+00   9.9999998791480625D-01
        13         0         0        11
  -2.4999999697870156D-01  -4.9999999395740312D-01   1.4999999818722093D+00
        14         0         0        11
   0.0000000000000000D+00  -4.9999999395740312D-01   1.4999999818722093D+00
        15         0         0        11
  -2.4999999697870156D-01   0.0000000000000000D+00   1.4999999818722093D+00
        16         0         0        11
   0.0000000000000000D+00   0.0000000000000000D+00   1.4999999818722093D+00
        17         0         0        11
  -2.4999999697870156D-01  -4.9999999395740312D-01   1.9999999758296126D+00
        18         0         0        11
   0.0000000000000000D+00  -4.9999999395740312D-01   1.9999999758296126D+00
        19         0         0        11
  -2.4999999697870156D-01   0.0000000000000000D+00   1.9999999758296126D+00
        20         0         0        11
   0.0000000000000000D+00   0.0000000000000000D+00   1.9999999758296126D+00
        21         0         0        11
  -2.4999999697870156D-01  -4.9999999395740312D-01   2.4999999697870159D+00
        22         0         0        11
   0.0000000000000000D+00  -4.9999999395740312D-01   2.4999999697870159D+00
        23         0         0        11
  -2.4999999697870156D-01   0.0000000000000000D+00   2.4999999697870159D+00
        24         0         0        11
   0.0000000000000000D+00   0.0000000000000000D+00   2.4999999697870159D+00
        25         0         0        11
  -2.4999999697870156D-01  -4.9999999395740312D-01   2.9999999637444186D+00
        26         0         0        11
   0.0000000000000000D+00  -4.9999999395740312D-01   2.9999999637444186D+00
        27         0         0        11
  -2.4999999697870156D-01   0.0000000000000000D+00   2.9999999637444186D+00
        28         0         0        11
   0.0000000000000000D+00   0.0000000000000000D+00   2.9999999637444186D+00
        29         0         0        11
  -2.4999999697870156D-01  -4.9999999395740312D-01   3.4999999577018219D+00
        30         0         0        11
   0.0000000000000000D+00  -4.9999999395740312D-01   3.4999999577018219D+00
        31         0         0        11
  -2.4999999697870156D-01   0.0000000000000000D+00   3.4999999577018219D+00
        32         0         0        11
   0.0000000000000000D+00   0.0000000000000000D+00   3.4999999577018219D+00
        33         0         0        11
  -2.4999999697870156D-01  -4.9999999395740312D-01   3.9999999516592252D+00
        34         0         0        11
   0.0000000000000000D+00  -4.9999999395740312D-01   3.9999999516592252D+00
        35         0         0        11
  -2.4999999697870156D-01   0.0000000000000000D+00   3.9999999516592252D+00
        36         0         0        11
   0.0000000000000000D+00   0.0000000000000000D+00   3.9999999516592252D+00
        37         0         0        11
  -4.9999999395740312D-01  -4.9999999395740312D-01   0.0000000000000000D+00
        39         0         0        11
  -4.9999999395740312D-01   0.0000000000000000D+00   0.0000000000000000D+00
        41         0         0        11
  -4.9999999395740312D-01  -4.9999999395740312D-01   4.9999999395740312D-01
        43         0         0        11
  -4.9999999395740312D-01   0.0000000000000000D+00   4.9999999395740312D-01
        45         0         0        11
  -4.9999999395740312D-01  -4.9999999395740312D-01   9.9999998791480625D-01
        47         0         0        11
  -4.9999999395740312D-01   0.0000000000000000D+00   9.9999998791480625D-01
        49         0         0        11
  -4.9999999395740312D-01  -4.9999999395740312D-01   1.4999999818722093D+00
        51         0         0        11
  -4.9999999395740312D-01   0.0000000000000000D+00   1.4999999818722093D+00
        53         0         0        11
  -4.9999999395740312D-01  -4.9999999395740312D-01   1.9999999758296126D+00
        55         0         0        11
  -4.9999999395740312D-01   0.0000000000000000D+00   1.9999999758296126D+00
        57         0         0        11
  -4.9999999395740312D-01  -4.9999999395740312D-01   2.4999999697870159D+00
        59         0         0        11
  -4.9999999395740312D-01   0.0000000000000000D+00   2.4999999697870159D+00
        61         0         0        11
  -4.9999999395740312D-01  -4.9999999395740312D-01   2.9999999637444186D+00
        63         0         0        11
  -4.9999999395740312D-01   0.0000000000000000D+00   2.9999999637444186D+00
        65         0         0        11
  -4.9999999395740312D-01  -4.9999999395740312D-01   3.4999999577018219D+00
        67         0         0        11
  -4.9999999395740312D-01   0.0000000000000000D+00   3.4999999577018219D+00
        69         0         0        11
  -4.9999999395740312D-01  -4.9999999395740312D-01   3.9999999516592252D+00
        71         0         0        11
  -4.9999999395740312D-01   0.0000000000000000D+00   3.9999999516592252D+00
    -1
    -1
   780
         1       115         1         1         1         1         7         8
         1         2         4         3         5         6         8         7
         2       115         1         1         1         1         7         8
         5         6         8         7         9        10        12        11
         3       115         1         1         1         1         7         8
         9        10        12        11        13        14        16        15
         4       115         1         1         1         1         7         8
        13        14        16        15        17        18        20        19
         5       115         1         1         1         1         7         8
        17        18        20        19        21        22        24        23
         6       115         1         1         1         1         7         8
        21        22        24        23        25        26        28        27
         7       115         1         1         1         1         7         8
        25        26        28        27        29        30        32        31
         8       115         1         1         1         1         7         8
        29        30        32        31        33        34        36        35
         9       115         1         1         1         1         7         8
        37         1         3        39        41         5         7        43
        10       115         1         1         1         1         7         8
        41         5         7        43        45         9        11        47
        11       115         1         1         1         1         7         8
        45         9        11        47        49        13        15        51
        12       115         1         1         1         1         7         8
        49        13        15        51        53        17        19        55
        13       115         1         1         1         1         7         8
        53        17        19        55        57        21        23        59
        14       115         1         1         1         1         7         8
        57        21        23        59        61        25        27        63
        15       115         1         1         1         1         7         8
        61        25        27        63        65        29        31        67
        16       115         1         1         1         1         7         8
        65        29        31        67        69        33        35        71
    -1
    -1
   734
         1        17         1 1.000000E+00         0 1.000000E+00
         2 0.000000E+00 0.000000E+00
 0.000000E+00 0.000000E+00 0.000000E+00 0.000000E+00 1.000000E+00 0.000000E+00
 0.000000E+00 0.000000E+00 0.000000E+00-1.000000E+00-1.000000E+00 1.000000E+00
 1.000000E+00 0.000000E+00 0.000000E+00 1.000000E+00 1.000000E+00 0.000000E+00
 1.000000E+00 0.000000E+00 1.000000E+00 1.000000E+00 1.000000E+00 1.000000E+00
-1.000000E+00-1.000000E+00-1.000000E+00-1.000000E+00 1.250000E+00 1.250000E+00
 0.000000E+00 1.500000E+00
    -1
    -1
   735
         3         1         7         2
         1         2
         3         2         7         2
         2         4
         3         3         7         2
         3         4
         3         4         7         2
         1         3
         3         6         7         2
         1        37
         3         8         7         2
         3        39
         3         9         7         2
        37        39
         3        10         7         2
        33        34
         3        11         7         2
        34        36
         3        12         7         2
        35        36
         3        13         7         2
        33        35
         3        14         7         2
        33        69
         3        15         7         2
        35        71
         3        16         7         2
        69        71
         3        17         7         9
         4         8        12        16        20        24        28        32
        36
         3        18         7         9
         2         6        10        14        18        22        26        30
        34
         3        19         7         9
         3         7        11        15        19        23        27        31
        35
         3        20         7         9
         1         5         9        13        17        21        25        29
        33
         3        21         7         9
        39        43        47        51        55        59        63        67
        71
         3        22         7         9
        37        41        45        49        53        57        61        65
        69
         5         1         7         4
         1         2         3         4
         5         2         7        18
         2         4         6         8        10        12        14        16
        18        20        22        24        26        28        30        32
        34        36
         5         3         7        18
         3         4         7         8        11        12        15        16
        19        20        23        24        27        28        31        32
        35        36
         5         4         7         4
        33        34        35        36
         5         5         7        18
         1         2         5         6         9        10        13        14
        17        18        21        22        25        26        29        30
        33        34
         5         6         7        18
         1         3         5         7         9        11        13        15
        17        19        21        23        25        27        29        31
        33        35
         5         7         7         4
         1         3        37        39
         5         8         7         4
        33        35        69        71
         5         9         7        18
         3         7        11        15        19        23        27        31
        35        39        43        47        51        55        59        63
        67        71
         5        10         7        18
        37        39        41        43        45        47        49        51
        53        55        57        59        61        63        65        67
        69        71
         5        11         7        18
         1         5         9        13        17        21        25        29
        33        37        41        45        49        53        57        61
        65        69
         5        12         7        18
         1         3         5         7         9        11        13        15
        17        19        21        23        25        27        29        31
        33        35
         6         1         7        36
         1         2         3         4         5         6         7         8
         9        10        11        12        13        14        15        16
        17        18        19        20        21        22        23        24
        25        26        27        28        29        30        31        32
        33        34        35        36
         6         1         8         8
         1         2         3         4         5         6         7         8
         6         2         7        36
         1         3         5         7         9        11        13        15
        17        19        21        23        25        27        29        31
        33        35        37        39        41        43        45        47
        49        51        53        55        57        59        61        63
        65        67        69        71
         6         2         8         8
         9        10        11        12        13        14        15        16
    -1
    -1
   763
         1         1         2         1         2
   0.0000000000000000D+00   1.0000000000000000D+00
         2         1         2         1         2
   0.0000000000000000D+00   1.0000000000000000D+00
         3         1         2         1         2
   0.0000000000000000D+00   1.0000000000000000D+00
         4         1         2         1         2
   0.0000000000000000D+00   1.0000000000000000D+00
         6         1         2         1         2
   0.0000000000000000D+00   1.0000000000000000D+00
         8         1         2         1         2
   0.0000000000000000D+00   1.0000000000000000D+00
         9         1         2         1         2
   0.0000000000000000D+00   1.0000000000000000D+00
        10         1         2         1         2
   0.0000000000000000D+00   1.0000000000000000D+00
        11         1         2         1         2
   0.0000000000000000D+00   1.0000000000000000D+00
        12         1         2         1         2
   0.0000000000000000D+00   1.0000000000000000D+00
        13         1         2         1         2
   0.0000000000000000D+00   1.0000000000000000D+00
        14         1         2         1         2
   0.0000000000000000D+00   1.0000000000000000D+00
        15         1         2         1         2
   0.0000000000000000D+00   1.0000000000000000D+00
        16         1         2         1         2
   0.0000000000000000D+00   1.0000000000000000D+00
        17         1         9         1         2
   0.0000000000000000D+00   1.2500000000000000D-01   2.5000000000000000D-01
   3.7500000000000000D-01   5.0000000000000000D-01   6.2500000000000000D-01
   7.5000000000000000D-01   8.7500000000000000D-01   1.0000000000000000D+00
        18         1         9         1         2
   0.0000000000000000D+00   1.2500000000000000D-01   2.5000000000000000D-01
   3.7500000000000000D-01   5.0000000000000000D-01   6.2500000000000000D-01
   7.5000000000000000D-01   8.7500000000000000D-01   1.0000000000000000D+00
        19         1         9         1         2
   0.0000000000000000D+00   1.2500000000000000D-01   2.5000000000000000D-01
   3.7500000000000000D-01   5.0000000000000000D-01   6.2500000000000000D-01
   7.5000000000000000D-01   8.7500000000000000D-01   1.0000000000000000D+00
        20         1         9         1         2
   0.0000000000000000D+00   1.2500000000000000D-01   2.5000000000000000D-01
   3.7500000000000000D-01   5.0000000000000000D-01   6.2500000000000000D-01
   7.5000000000000000D-01   8.7500000000000000D-01   1.0000000000000000D+00
        21         1         9         1         2
   0.0000000000000000D+00   1.2500000000000000D-01   2.5000000000000000D-01
   3.7500000000000000D-01   5.0000000000000000D-01   6.2500000000000000D-01
   7.5000000000000000D-01   8.7500000000000000D-01   1.0000000000000000D+00
        22         1         9         1         2
   0.0000000000000000D+00   1.2500000000000000D-01   2.5000000000000000D-01
   3.7500000000000000D-01   5.0000000000000000D-01   6.2500000000000000D-01
   7.5000000000000000D-01   8.7500000000000000D-01   1.0000000000000000D+00
    -1
    -1
   755
         1         1
RESTRAINT SET 1 
         2         4 0 1 1 1 0 0 0
  0.00000E+00  0.00000E+00  0.00000E+00  0.00000E+00  0.00000E+00  0.00000E+00
         3         4 0 1 0 1 0 1 0
  0.00000E+00  0.00000E+00  0.00000E+00  0.00000E+00  0.00000E+00  0.00000E+00
         4         4 1 1 1 1 1 1 0
  0.00000E+00  0.00000E+00  0.00000E+00  0.00000E+00  0.00000E+00  0.00000E+00
         6         4 0 1 1 1 0 0 0
  0.00000E+00  0.00000E+00  0.00000E+00  0.00000E+00  0.00000E+00  0.00000E+00
         7         4 0 1 0 1 0 1 0
  0.00000E+00  0.00000E+00  0.00000E+00  0.00000E+00  0.00000E+00  0.00000E+00
         8         4 0 1 1 1 0 1 0
  0.00000E+00  0.00000E+00  0.00000E+00  0.00000E+00  0.00000E+00  0.00000E+00
        10         4 0 1 1 1 0 0 0
  0.00000E+00  0.00000E+00  0.00000E+00  0.00000E+00  0.00000E+00  0.00000E+00
        11         4 0 1 0 1 0 1 0
  0.00000E+00  0.00000E+00  0.00000E+00  0.00000E+00  0.00000E+00  0.00000E+00
        12         4 0 1 1 1 0 1 0
  0.00000E+00  0.00000E+00  0.00000E+00  0.00000E+00  0.00000E+00  0.00000E+00
        14         4 0 1 1 1 0 0 0
  0.00000E+00  0.00000E+00  0.00000E+00  0.00000E+00  0.00000E+00  0.00000E+00
        15         4 0 1 0 1 0 1 0
  0.00000E+00  0.00000E+00  0.00000E+00  0.00000E+00  0.00000E+00  0.00000E+00
        16         4 0 1 1 1 0 1 0
  0.00000E+00  0.00000E+00  0.00000E+00  0.00000E+00  0.00000E+00  0.00000E+00
        18         4 0 1 1 1 0 0 0
  0.00000E+00  0.00000E+00  0.00000E+00  0.00000E+00  0.00000E+00  0.00000E+00
        19         4 0 1 0 1 0 1 0
  0.00000E+00  0.00000E+00  0.00000E+00  0.00000E+00  0.00000E+00  0.00000E+00
        20         4 0 1 1 1 0 1 0
  0.00000E+00  0.00000E+00  0.00000E+00  0.00000E+00  0.00000E+00  0.00000E+00
        22         4 0 1 1 1 0 0 0
  0.00000E+00  0.00000E+00  0.00000E+00  0.00000E+00  0.00000E+00  0.00000E+00
        23         4 0 1 0 1 0 1 0
  0.00000E+00  0.00000E+00  0.00000E+00  0.00000E+00  0.00000E+00  0.00000E+00
        24         4 0 1 1 1 0 1 0
  0.00000E+00  0.00000E+00  0.00000E+00  0.00000E+00  0.00000E+00  0.00000E+00
        26         4 0 1 1 1 0 0 0
  0.00000E+00  0.00000E+00  0.00000E+00  0.00000E+00  0.00000E+00  0.00000E+00
        27         4 0 1 0 1 0 1 0
  0.00000E+00  0.00000E+00  0.00000E+00  0.00000E+00  0.00000E+00  0.00000E+00
        28         4 0 1 1 1 0 1 0
  0.00000E+00  0.00000E+00  0.00000E+00  0.00000E+00  0.00000E+00  0.00000E+00
        30         4 0 1 1 1 0 0 0
  0.00000E+00  0.00000E+00  0.00000E+00  0.00000E+00  0.00000E+00  0.00000E+00
        31         4 0 1 0 1 0 1 0
  0.00000E+00  0.00000E+00  0.00000E+00  0.00000E+00  0.00000E+00  0.00000E+00
        32         4 0 1 1 1 0 1 0
  0.00000E+00  0.00000E+00  0.00000E+00  0.00000E+00  0.00000E+00  0.00000E+00
        34         4 0 1 1 1 0 0 0
  0.00000E+00  0.00000E+00  0.00000E+00  0.00000E+00  0.00000E+00  0.00000E+00
        35         4 0 1 0 1 0 1 0
  0.00000E+00  0.00000E+00  0.00000E+00  0.00000E+00  0.00000E+00  0.00000E+00
        36         4 0 1 1 1 0 1 0
  0.00000E+00  0.00000E+00  0.00000E+00  0.00000E+00  0.00000E+00  0.00000E+00
        39         4 0 1 1 1 0 1 0
  0.00000E+00  0.00000E+00  0.00000E+00  0.00000E+00  0.00000E+00  0.00000E+00
        43         4 0 1 0 1 0 1 0
  0.00000E+00  0.00000E+00  0.00000E+00  0.00000E+00  0.00000E+00  0.00000E+00
        47         4 0 1 0 1 0 1 0
  0.00000E+00  0.00000E+00  0.00000E+00  0.00000E+00  0.00000E+00  0.00000E+00
        51         4 0 1 0 1 0 1 0
  0.00000E+00  0.00000E+00  0.00000E+00  0.00000E+00  0.00000E+00  0.00000E+00
        55         4 0 1 0 1 0 1 0
  0.00000E+00  0.00000E+00  0.00000E+00  0.00000E+00  0.00000E+00  0.00000E+00
        59         4 0 1 0 1 0 1 0
  0.00000E+00  0.00000E+00  0.00000E+00  0.00000E+00  0.00000E+00  0.00000E+00
        63         4 0 1 0 1 0 1 0
  0.00000E+00  0.00000E+00  0.00000E+00  0.00000E+00  0.00000E+00  0.00000E+00
        67         4 0 1 0 1 0 1 0
  0.00000E+00  0.00000E+00  0.00000E+00  0.00000E+00  0.00000E+00  0.00000E+00
        71         4 0 1 0 1 0 1 0
  0.00000E+00  0.00000E+00  0.00000E+00  0.00000E+00  0.00000E+00  0.00000E+00
    -1
    -1
   782
         1         1
LOAD SET 1
         1         1 1 0 1 0 0 0
 -6.64000E+00  0.00000E+00 -7.50000E+01  0.00000E+00  0.00000E+00  0.00000E+00
         2         1 1 0 1 0 0 0
 -4.49280E+00  0.00000E+00 -1.25000E+01  0.00000E+00  0.00000E+00  0.00000E+00
         3         1 1 0 1 0 0 0
 -6.64000E+00  0.00000E+00 -7.50000E+01  0.00000E+00  0.00000E+00  0.00000E+00
         4         1 1 0 1 0 0 0
 -4.49280E+00  0.00000E+00 -1.25000E+01  0.00000E+00  0.00000E+00  0.00000E+00
        33         1 1 0 0 0 0 0
  6.64000E+00  0.00000E+00  0.00000E+00  0.00000E+00  0.00000E+00  0.00000E+00
        34         1 1 0 0 0 0 0
  4.49280E+00  0.00000E+00  0.00000E+00  0.00000E+00  0.00000E+00  0.00000E+00
        35         1 1 0 0 0 0 0
  6.64000E+00  0.00000E+00  0.00000E+00  0.00000E+00  0.00000E+00  0.00000E+00
        36         1 1 0 0 0 0 0
  4.49280E+00  0.00000E+00  0.00000E+00  0.00000E+00  0.00000E+00  0.00000E+00
        37         1 1 0 1 0 0 0
 -1.36720E+00  0.00000E+00 -6.25000E+01  0.00000E+00  0.00000E+00  0.00000E+00
        39         1 1 0 1 0 0 0
 -1.36720E+00  0.00000E+00 -6.25000E+01  0.00000E+00  0.00000E+00  0.00000E+00
        69         1 1 0 0 0 0 0
  1.36720E+00  0.00000E+00  0.00000E+00  0.00000E+00  0.00000E+00  0.00000E+00
        71         1 1 0 0 0 0 0
  1.36720E+00  0.00000E+00  0.00000E+00  0.00000E+00  0.00000E+00  0.00000E+00
    -1
    -1
   753
         1
CASE SET 1
         0         1         0         1
         1
    -1
    -1
    55
eal151                                                                          
Model Solution                                                                  
LOAD SET 1                                                                      
The time of Analysis was    07-FEB-92       09:24:57                            
NONE
         1         1         3         8         2         6
         1         1         1
  0.00000E+00
         1
 -9.23021E-06  1.30688E-05 -2.26305E-06  0.00000E+00  0.00000E+00  0.00000E+00
         2
 -1.26660E-05  0.00000E+00  0.00000E+00  0.00000E+00  0.00000E+00  0.00000E+00
         3
  3.43894E-06  0.00000E+00 -1.86079E-06  0.00000E+00  0.00000E+00  0.00000E+00
         5
  5.39354E-05  1.20818E-05  4.90530E-05  0.00000E+00  0.00000E+00  0.00000E+00
         6
  5.09217E-05  0.00000E+00  0.00000E+00  0.00000E+00  0.00000E+00  0.00000E+00
         7
  6.59072E-05  0.00000E+00  4.96514E-05  0.00000E+00  0.00000E+00  0.00000E+00
         8
  6.28998E-05  0.00000E+00  0.00000E+00  0.00000E+00  0.00000E+00  0.00000E+00
         9
  2.13646E-04  1.03060E-05  9.36178E-05  0.00000E+00  0.00000E+00  0.00000E+00
        10
  2.11076E-04  0.00000E+00  0.00000E+00  0.00000E+00  0.00000E+00  0.00000E+00
        11
  2.23954E-04  0.00000E+00  9.43895E-05  0.00000E+00  0.00000E+00  0.00000E+00
        12
  2.21378E-04  0.00000E+00  0.00000E+00  0.00000E+00  0.00000E+00  0.00000E+00
        13
  4.55808E-04  8.58306E-06  1.31401E-04  0.00000E+00  0.00000E+00  0.00000E+00
        14
  4.53660E-04  0.00000E+00  0.00000E+00  0.00000E+00  0.00000E+00  0.00000E+00
        15
  4.64394E-04  0.00000E+00  1.32149E-04  0.00000E+00  0.00000E+00  0.00000E+00
        16
  4.62248E-04  0.00000E+00  0.00000E+00  0.00000E+00  0.00000E+00  0.00000E+00
        17
  7.66651E-04  6.86813E-06  1.62311E-04  0.00000E+00  0.00000E+00  0.00000E+00
        18
  7.64934E-04  0.00000E+00  0.00000E+00  0.00000E+00  0.00000E+00  0.00000E+00
        19
  7.73519E-04  0.00000E+00  1.63056E-04  0.00000E+00  0.00000E+00  0.00000E+00
        20
  7.71802E-04  0.00000E+00  0.00000E+00  0.00000E+00  0.00000E+00  0.00000E+00
        21
  1.13244E-03  5.15320E-06  1.86346E-04  0.00000E+00  0.00000E+00  0.00000E+00
        22
  1.13115E-03  0.00000E+00  0.00000E+00  0.00000E+00  0.00000E+00  0.00000E+00
        23
  1.13759E-03  0.00000E+00  1.87094E-04  0.00000E+00  0.00000E+00  0.00000E+00
        24
  1.13630E-03  0.00000E+00  0.00000E+00  0.00000E+00  0.00000E+00  0.00000E+00
        25
  1.53944E-03  3.43024E-06  2.03508E-04  0.00000E+00  0.00000E+00  0.00000E+00
        26
  1.53857E-03  0.00000E+00  0.00000E+00  0.00000E+00  0.00000E+00  0.00000E+00
        27
  1.54286E-03  0.00000E+00  2.04280E-04  0.00000E+00  0.00000E+00  0.00000E+00
        28
  1.54201E-03  0.00000E+00  0.00000E+00  0.00000E+00  0.00000E+00  0.00000E+00
        29
  1.97387E-03  1.65449E-06  2.13888E-04  0.00000E+00  0.00000E+00  0.00000E+00
        30
  1.97345E-03  0.00000E+00  0.00000E+00  0.00000E+00  0.00000E+00  0.00000E+00
        31
  1.97564E-03  0.00000E+00  2.14487E-04  0.00000E+00  0.00000E+00  0.00000E+00
        32
  1.97521E-03  0.00000E+00  0.00000E+00  0.00000E+00  0.00000E+00  0.00000E+00
        33
  2.42165E-03  6.67483E-07  2.17517E-04  0.00000E+00  0.00000E+00  0.00000E+00
        34
  2.42165E-03  0.00000E+00  0.00000E+00  0.00000E+00  0.00000E+00  0.00000E+00
        35
  2.42272E-03  0.00000E+00  2.17919E-04  0.00000E+00  0.00000E+00  0.00000E+00
        36
  2.42273E-03  0.00000E+00  0.00000E+00  0.00000E+00  0.00000E+00  0.00000E+00
        37
  1.08765E-06  2.59162E-05 -4.93480E-07  0.00000E+00  0.00000E+00  0.00000E+00
        39
  1.37721E-05  0.00000E+00  0.00000E+00  0.00000E+00  0.00000E+00  0.00000E+00
        41
  6.29701E-05  2.40956E-05  1.02211E-04  0.00000E+00  0.00000E+00  0.00000E+00
        43
  7.49483E-05  0.00000E+00  1.02902E-04  0.00000E+00  0.00000E+00  0.00000E+00
        45
  2.21358E-04  2.06155E-05  1.91437E-04  0.00000E+00  0.00000E+00  0.00000E+00
        47
  2.31678E-04  0.00000E+00  1.92295E-04  0.00000E+00  0.00000E+00  0.00000E+00
        49
  4.62251E-04  1.71673E-05  2.67001E-04  0.00000E+00  0.00000E+00  0.00000E+00
        51
  4.70833E-04  0.00000E+00  2.67832E-04  0.00000E+00  0.00000E+00  0.00000E+00
        53
  7.71802E-04  1.37363E-05  3.28813E-04  0.00000E+00  0.00000E+00  0.00000E+00
        55
  7.78670E-04  0.00000E+00  3.29643E-04  0.00000E+00  0.00000E+00  0.00000E+00
        57
  1.13630E-03  1.03052E-05  3.76891E-04  0.00000E+00  0.00000E+00  0.00000E+00
        59
  1.14145E-03  0.00000E+00  3.77722E-04  0.00000E+00  0.00000E+00  0.00000E+00
        61
  1.54203E-03  6.85705E-06  4.11217E-04  0.00000E+00  0.00000E+00  0.00000E+00
        63
  1.54544E-03  0.00000E+00  4.12075E-04  0.00000E+00  0.00000E+00  0.00000E+00
        65
  1.97514E-03  3.37698E-06  4.31881E-04  0.00000E+00  0.00000E+00  0.00000E+00
        67
  1.97690E-03  0.00000E+00  4.32572E-04  0.00000E+00  0.00000E+00  0.00000E+00
        69
  2.42164E-03  1.55628E-06  4.39067E-04  0.00000E+00  0.00000E+00  0.00000E+00
        71
  2.42269E-03  0.00000E+00  4.39560E-04  0.00000E+00  0.00000E+00  0.00000E+00
    -1
    -1
    55
eal151                                                                          
Model Solution                                                                  
LOAD SET 1                                                                      
The time of Analysis was    07-FEB-92       09:24:58                            
NONE
         1         1         3         9         2         6
         1         1         1
  0.00000E+00
         2
  0.00000E+00 -2.14615E-01  9.52715E+00  0.00000E+00  0.00000E+00  0.00000E+00
         3
  0.00000E+00  2.45608E-01  0.00000E+00  0.00000E+00  0.00000E+00  0.00000E+00
         4
  4.29466E-12 -1.17584E-01  9.22004E+00  0.00000E+00  0.00000E+00  0.00000E+00
         6
  0.00000E+00 -1.96179E-01  1.92035E+01  0.00000E+00  0.00000E+00  0.00000E+00
         7
  0.00000E+00  4.55491E-01  0.00000E+00  0.00000E+00  0.00000E+00  0.00000E+00
         8
  0.00000E+00 -6.76330E-02  1.83066E+01  0.00000E+00  0.00000E+00  0.00000E+00
        10
  0.00000E+00 -2.00181E-02  1.93464E+01  0.00000E+00  0.00000E+00  0.00000E+00
        11
  0.00000E+00 -5.81436E-02  0.00000E+00  0.00000E+00  0.00000E+00  0.00000E+00
        12
  0.00000E+00 -3.74825E-02  1.81487E+01  0.00000E+00  0.00000E+00  0.00000E+00
        14
  0.00000E+00  3.48109E-03  1.93540E+01  0.00000E+00  0.00000E+00  0.00000E+00
        15
  0.00000E+00  3.44044E-03  0.00000E+00  0.00000E+00  0.00000E+00  0.00000E+00
        16
  0.00000E+00  3.91837E-03  1.81409E+01  0.00000E+00  0.00000E+00  0.00000E+00
        18
  0.00000E+00  9.36415E-09  1.93573E+01  0.00000E+00  0.00000E+00  0.00000E+00
        19
  0.00000E+00 -2.15449E-07  0.00000E+00  0.00000E+00  0.00000E+00  0.00000E+00
        20
  0.00000E+00  6.98450E-09  1.81477E+01  0.00000E+00  0.00000E+00  0.00000E+00
        22
  0.00000E+00 -3.48108E-03  1.93540E+01  0.00000E+00  0.00000E+00  0.00000E+00
        23
  0.00000E+00 -3.44008E-03  0.00000E+00  0.00000E+00  0.00000E+00  0.00000E+00
        24
  0.00000E+00 -3.91836E-03  1.81409E+01  0.00000E+00  0.00000E+00  0.00000E+00
        26
  0.00000E+00  2.00181E-02  1.93464E+01  0.00000E+00  0.00000E+00  0.00000E+00
        27
  0.00000E+00  5.81433E-02  0.00000E+00  0.00000E+00  0.00000E+00  0.00000E+00
        28
  0.00000E+00  3.74824E-02  1.81487E+01  0.00000E+00  0.00000E+00  0.00000E+00
        30
  0.00000E+00  1.96179E-01  1.92035E+01  0.00000E+00  0.00000E+00  0.00000E+00
        31
  0.00000E+00 -4.55492E-01  0.00000E+00  0.00000E+00  0.00000E+00  0.00000E+00
        32
  0.00000E+00  6.76329E-02  1.83066E+01  0.00000E+00  0.00000E+00  0.00000E+00
        34
  0.00000E+00  2.14615E-01  9.52715E+00  0.00000E+00  0.00000E+00  0.00000E+00
        35
  0.00000E+00 -2.45608E-01  0.00000E+00  0.00000E+00  0.00000E+00  0.00000E+00
        36
  0.00000E+00  1.17584E-01  9.22004E+00  0.00000E+00  0.00000E+00  0.00000E+00
        39
  0.00000E+00  2.52945E-01 -3.43026E-06  0.00000E+00  0.00000E+00  0.00000E+00
        43
  0.00000E+00  3.90696E-01  0.00000E+00  0.00000E+00  0.00000E+00  0.00000E+00
        47
  0.00000E+00 -4.22000E-02  0.00000E+00  0.00000E+00  0.00000E+00  0.00000E+00
        51
  0.00000E+00  2.13218E-03  0.00000E+00  0.00000E+00  0.00000E+00  0.00000E+00
        55
  0.00000E+00 -2.04957E-07  0.00000E+00  0.00000E+00  0.00000E+00  0.00000E+00
        59
  0.00000E+00 -2.13183E-03  0.00000E+00  0.00000E+00  0.00000E+00  0.00000E+00
        63
  0.00000E+00  4.21997E-02  0.00000E+00  0.00000E+00  0.00000E+00  0.00000E+00
        67
  0.00000E+00 -3.90696E-01  0.00000E+00  0.00000E+00  0.00000E+00  0.00000E+00
        71
  0.00000E+00 -2.52945E-01  0.00000E+00  0.00000E+00  0.00000E+00  0.00000E+00
    -1
    -1
    57
eal151                                                                          
Model Solution                                                                  
LOAD SET 1                                                                      
The time of Analysis was    07-FEB-92       09:24:59                            
NONE
         1         1         4         2         2         6
         1         1         1
  0.00000E+00
         1         1         8         6
 -1.35003E+01 -7.79565E+00 -8.38511E+00  1.44065E+02 -2.52455E+00  1.12018E+03
 -8.33268E+00 -7.83698E+00 -1.07724E+00  1.44024E+02  2.58379E+00  2.55085E+00
 -8.79312E+00  7.85502E-01 -2.01625E+00  1.30986E+02 -1.72745E+00  2.20099E+00
 -1.22480E+01  8.26834E-01 -7.61143E+00  1.30945E+02  1.78669E+00  1.12496E+03
  1.33218E+01  3.35758E+00  2.09337E+01  1.45778E+02 -1.66821E+00  1.12440E+03
  9.86690E+00  3.39891E+00  2.37418E+00  1.45736E+02  1.72745E+00 -1.84306E+00
  9.90244E+00 -5.22357E+00  1.60050E+00  1.29274E+02 -2.58379E+00 -2.02759E+00
  1.50700E+01 -5.26490E+00  2.18728E+01  1.29232E+02  2.64303E+00  1.12936E+03
         2         1         8         6
 -1.76457E+01 -8.71870E+00 -2.57484E+01  1.50011E+02 -6.02917E+00  9.68865E+02
 -9.13175E+00 -8.66028E+00 -9.98564E-01  1.50070E+02  4.25699E+00  3.88636E+00
 -9.05186E+00  6.85272E+00 -1.63921E+00  1.24967E+02 -3.49950E+00  3.74617E+00
 -1.60509E+01  6.79429E+00 -2.48740E+01  1.25026E+02  1.72732E+00  9.73270E+02
  1.60295E+01  7.77556E+00  2.34212E+01  1.51526E+02 -5.27168E+00  9.76738E+02
  9.03049E+00  7.71713E+00  1.63208E+00  1.51585E+02  3.49950E+00 -3.75329E+00
  8.40928E+00 -7.79586E+00  7.57741E-01  1.23452E+02 -4.25699E+00 -4.12718E+00
  1.69233E+01 -7.73744E+00  2.40619E+01  1.23511E+02  2.48482E+00  9.80909E+02
         3         1         8         6
 -1.58929E+01 -7.51615E+00 -2.37410E+01  1.51729E+02 -4.59747E+00  8.21505E+02
 -8.46797E+00 -7.55591E+00 -1.22370E+00  1.51690E+02  3.71248E+00  3.81498E+00
 -8.79059E+00  7.49585E+00 -1.20228E+00  1.23241E+02 -3.81340E+00  3.73968E+00
 -1.64174E+01  7.53560E+00 -2.39215E+01  1.23201E+02  2.92841E+00  8.20824E+02
  1.62652E+01  7.54318E+00  2.37895E+01  1.51527E+02 -4.69839E+00  8.28951E+02
  8.63840E+00  7.58293E+00  1.15155E+00  1.51488E+02  3.81340E+00 -3.79041E+00
  8.79282E+00 -7.46882E+00  1.33198E+00  1.23443E+02 -3.71248E+00 -3.70669E+00
  1.62178E+01 -7.50858E+00  2.37681E+01  1.23403E+02  2.82748E+00  8.28429E+02
         4         1         8         6
 -1.62881E+01 -7.45806E+00 -2.36921E+01  1.51556E+02 -4.70236E+00  6.71327E+02
 -8.80944E+00 -7.44922E+00 -1.26765E+00  1.51565E+02  3.73932E+00  3.72969E+00
 -8.70522E+00  7.53242E+00 -1.23779E+00  1.23457E+02 -3.75150E+00  3.76321E+00
 -1.62082E+01  7.52358E+00 -2.36866E+01  1.23466E+02  2.78846E+00  6.71288E+02
  1.62675E+01  7.49524E+00  2.37780E+01  1.51532E+02 -4.71455E+00  6.78836E+02
  8.76446E+00  7.48640E+00  1.25754E+00  1.51540E+02  3.75150E+00 -3.74346E+00
  8.76263E+00 -7.49524E+00  1.25205E+00  1.23482E+02 -3.73932E+00 -3.74529E+00
  1.62413E+01 -7.48640E+00  2.37482E+01  1.23490E+02  2.77627E+00  6.78761E+02
         5         1         8         6
 -1.62675E+01 -7.49524E+00 -2.37780E+01  1.51532E+02 -4.71455E+00  5.21164E+02
 -8.76446E+00 -7.48640E+00 -1.25754E+00  1.51540E+02  3.75150E+00  3.74346E+00
 -8.76263E+00  7.49524E+00 -1.25205E+00  1.23482E+02 -3.73932E+00  3.74529E+00
 -1.62413E+01  7.48640E+00 -2.37482E+01  1.23490E+02  2.77627E+00  5.21239E+02
  1.62881E+01  7.45806E+00  2.36921E+01  1.51556E+02 -4.70236E+00  5.28673E+02
  8.80944E+00  7.44922E+00  1.26765E+00  1.51565E+02  3.73932E+00 -3.72969E+00
  8.70522E+00 -7.53242E+00  1.23779E+00  1.23457E+02 -3.75150E+00 -3.76321E+00
  1.62082E+01 -7.52358E+00  2.36866E+01  1.23466E+02  2.78846E+00  5.28713E+02
         6         1         8         6
 -1.62652E+01 -7.54318E+00 -2.37895E+01  1.51527E+02 -4.69840E+00  3.71049E+02
 -8.63840E+00 -7.58293E+00 -1.15155E+00  1.51488E+02  3.81340E+00  3.79040E+00
 -8.79282E+00  7.46882E+00 -1.33198E+00  1.23443E+02 -3.71248E+00  3.70669E+00
 -1.62178E+01  7.50858E+00 -2.37681E+01  1.23403E+02  2.82748E+00  3.71571E+02
  1.58929E+01  7.51615E+00  2.37410E+01  1.51729E+02 -4.59747E+00  3.78495E+02
  8.46796E+00  7.55591E+00  1.22370E+00  1.51690E+02  3.71248E+00 -3.81498E+00
  8.79058E+00 -7.49585E+00  1.20228E+00  1.23241E+02 -3.81340E+00 -3.73968E+00
  1.64174E+01 -7.53560E+00  2.39214E+01  1.23201E+02  2.92841E+00  3.79176E+02
         7         1         8         6
 -1.60295E+01 -7.77555E+00 -2.34212E+01  1.51526E+02 -5.27168E+00  2.23262E+02
 -9.03049E+00 -7.71713E+00 -1.63208E+00  1.51585E+02  3.49950E+00  3.75329E+00
 -8.40929E+00  7.79586E+00 -7.57743E-01  1.23452E+02 -4.25699E+00  4.12718E+00
 -1.69233E+01  7.73743E+00 -2.40619E+01  1.23511E+02  2.48482E+00  2.19091E+02
  1.76458E+01  8.71870E+00  2.57484E+01  1.50011E+02 -6.02917E+00  2.31135E+02
  9.13176E+00  8.66027E+00  9.98570E-01  1.50070E+02  4.25699E+00 -3.88635E+00
  9.05188E+00 -6.85272E+00  1.63921E+00  1.24967E+02 -3.49950E+00 -3.74616E+00
  1.60509E+01 -6.79429E+00  2.48740E+01  1.25026E+02  1.72732E+00  2.26730E+02
         8         1         8         6
 -1.33218E+01 -3.35759E+00 -2.09338E+01  1.45778E+02 -1.66821E+00  7.55958E+01
 -9.86689E+00 -3.39892E+00 -2.37417E+00  1.45736E+02  1.72745E+00  1.84306E+00
 -9.90243E+00  5.22357E+00 -1.60049E+00  1.29274E+02 -2.58379E+00  2.02759E+00
 -1.50700E+01  5.26490E+00 -2.18728E+01  1.29232E+02  2.64303E+00  7.06423E+01
  1.35003E+01  7.79566E+00  8.38512E+00  1.44065E+02 -2.52455E+00  7.98244E+01
  8.33267E+00  7.83699E+00  1.07724E+00  1.44024E+02  2.58379E+00 -2.55084E+00
  8.79308E+00 -7.85498E-01  2.01624E+00  1.30986E+02 -1.72745E+00 -2.20099E+00
  1.22480E+01 -8.26827E-01  7.61144E+00  1.30945E+02  1.78670E+00  7.50362E+01
         9         1         8         6
 -3.41202E+01 -5.11280E+00 -1.24255E+01  6.63768E+01 -4.60358E+00  2.24591E+03
 -3.04733E+01 -5.15194E+00 -1.12017E+01  6.63377E+01  1.88266E+00  1.12481E+03
 -3.00747E+01  2.13119E+00 -1.12852E+01  5.86521E+01 -1.75891E+00  1.12917E+03
 -3.37110E+01  2.17034E+00 -1.24986E+01  5.86130E+01 -9.62007E-01  2.25031E+03
  3.74542E+01  3.28345E+00  4.61229E+01  6.63873E+01 -4.59831E+00  2.24948E+03
  3.38178E+01  3.32260E+00  2.54973E+01  6.63482E+01  1.87739E+00  1.12109E+03
  3.46862E+01 -3.96054E+00  2.55704E+01  5.86416E+01 -1.76417E+00  1.12561E+03
  3.83331E+01 -3.99969E+00  4.62064E+01  5.86024E+01 -9.56745E-01  2.25403E+03
        10         1         8         6
 -4.30073E+01 -7.79325E+00 -5.03080E+01  7.05343E+01 -1.21445E+01  1.94454E+03
 -3.55889E+01 -7.77276E+00 -2.80678E+01  7.05548E+01  1.93700E+00  9.76555E+02
 -3.48543E+01  7.11616E+00 -2.80007E+01  5.44082E+01 -5.50746E+00  9.80543E+02
 -4.23249E+01  7.09567E+00 -5.02931E+01  5.44287E+01 -4.70004E+00  1.94837E+03
  4.13609E+01  7.49385E+00  4.86602E+01  7.04821E+01 -1.21706E+01  1.95202E+03
  3.38903E+01  7.47336E+00  2.62337E+01  7.05026E+01  1.96311E+00  9.69151E+02
  3.43790E+01 -7.41556E+00  2.62188E+01  5.44604E+01 -5.48135E+00  9.73057E+02
  4.17973E+01 -7.39507E+00  4.85931E+01  5.44809E+01 -4.72615E+00  1.95577E+03
        11         1         8         6
 -4.05446E+01 -7.46339E+00 -4.88210E+01  7.08781E+01 -1.14426E+01  1.64670E+03
 -3.30278E+01 -7.52954E+00 -2.61875E+01  7.08119E+01  2.87342E+00  8.29081E+02
 -3.37165E+01  7.54168E+00 -2.63010E+01  5.42573E+01 -4.66219E+00  8.28376E+02
 -4.12709E+01  7.60783E+00 -4.89721E+01  5.41912E+01 -3.90699E+00  1.64588E+03
  4.11644E+01  7.50258E+00  4.87645E+01  7.08405E+01 -1.14614E+01  1.65410E+03
  3.36100E+01  7.56872E+00  2.61843E+01  7.07743E+01  2.89221E+00  8.21414E+02
  3.37150E+01 -7.50250E+00  2.63354E+01  5.42949E+01 -4.64340E+00  8.20973E+02
  4.12318E+01 -7.56865E+00  4.88780E+01  5.42288E+01 -3.92578E+00  1.65355E+03
        12         1         8         6
 -4.14204E+01 -7.50493E+00 -4.87361E+01  7.06939E+01 -1.14866E+01  1.34619E+03
 -3.39184E+01 -7.48719E+00 -2.62289E+01  7.07116E+01  2.78795E+00  6.78791E+02
 -3.37356E+01  7.50501E+00 -2.61993E+01  5.42664E+01 -4.70815E+00  6.78783E+02
 -4.12258E+01  7.48727E+00 -4.86948E+01  5.42842E+01 -3.99053E+00  1.34621E+03
  4.12549E+01  7.50497E+00  4.87502E+01  7.07057E+01 -1.14807E+01  1.35372E+03
  3.37647E+01  7.48723E+00  2.62808E+01  7.07234E+01  2.78206E+00  6.71330E+02
  3.37347E+01 -7.50497E+00  2.62394E+01  5.42546E+01 -4.71404E+00  6.71251E+02
  4.12367E+01 -7.48723E+00  4.87206E+01  5.42724E+01 -3.98464E+00  1.35367E+03
        13         1         8         6
 -4.12549E+01 -7.50497E+00 -4.87502E+01  7.07057E+01 -1.14807E+01  1.04628E+03
 -3.37647E+01 -7.48723E+00 -2.62808E+01  7.07234E+01  2.78206E+00  5.28670E+02
 -3.37347E+01  7.50497E+00 -2.62394E+01  5.42546E+01 -4.71404E+00  5.28749E+02
 -4.12367E+01  7.48723E+00 -4.87206E+01  5.42724E+01 -3.98463E+00  1.04633E+03
  4.14204E+01  7.50493E+00  4.87361E+01  7.06939E+01 -1.14866E+01  1.05381E+03
  3.39184E+01  7.48719E+00  2.62289E+01  7.07116E+01  2.78795E+00  5.21209E+02
  3.37356E+01 -7.50501E+00  2.61993E+01  5.42664E+01 -4.70815E+00  5.21217E+02
  4.12258E+01 -7.48727E+00  4.86948E+01  5.42842E+01 -3.99053E+00  1.05379E+03
        14         1         8         6
 -4.11644E+01 -7.50258E+00 -4.87645E+01  7.08405E+01 -1.14614E+01  7.45898E+02
 -3.36100E+01 -7.56872E+00 -2.61843E+01  7.07743E+01  2.89221E+00  3.78586E+02
 -3.37150E+01  7.50250E+00 -2.63354E+01  5.42949E+01 -4.64340E+00  3.79027E+02
 -4.12318E+01  7.56864E+00 -4.88780E+01  5.42287E+01 -3.92578E+00  7.46451E+02
  4.05446E+01  7.46339E+00  4.88210E+01  7.08781E+01 -1.14426E+01  7.53301E+02
  3.30278E+01  7.52954E+00  2.61875E+01  7.08119E+01  2.87341E+00  3.70919E+02
  3.37165E+01 -7.54168E+00  2.63010E+01  5.42573E+01 -4.66220E+00  3.71624E+02
  4.12709E+01 -7.60783E+00  4.89721E+01  5.41912E+01 -3.90699E+00  7.54119E+02
        15         1         8         6
 -4.13609E+01 -7.49385E+00 -4.86601E+01  7.04821E+01 -1.21706E+01  4.47979E+02
 -3.38903E+01 -7.47335E+00 -2.62337E+01  7.05026E+01  1.96310E+00  2.30849E+02
 -3.43790E+01  7.41556E+00 -2.62188E+01  5.44604E+01 -5.48135E+00  2.26943E+02
 -4.17973E+01  7.39507E+00 -4.85930E+01  5.44809E+01 -4.72614E+00  4.44230E+02
  4.30073E+01  7.79324E+00  5.03080E+01  7.05343E+01 -1.21445E+01  4.55465E+02
  3.55889E+01  7.77275E+00  2.80678E+01  7.05548E+01  1.93700E+00  2.23445E+02
  3.48543E+01 -7.11617E+00  2.80007E+01  5.44082E+01 -5.50746E+00  2.19457E+02
  4.23249E+01 -7.09567E+00  5.02931E+01  5.44287E+01 -4.70004E+00  4.51633E+02
        16         1         8         6
 -3.74542E+01 -3.28346E+00 -4.61229E+01  6.63873E+01 -4.59830E+00  1.50522E+02
 -3.38178E+01 -3.32260E+00 -2.54974E+01  6.63482E+01  1.87741E+00  7.89113E+01
 -3.46862E+01  3.96054E+00 -2.55704E+01  5.86416E+01 -1.76416E+00  7.43942E+01
 -3.83330E+01  3.99968E+00 -4.62064E+01  5.86024E+01 -9.56736E-01  1.45974E+02
  3.41201E+01  5.11281E+00  1.24256E+01  6.63768E+01 -4.60354E+00  1.54085E+02
  3.04733E+01  5.15195E+00  1.12017E+01  6.63377E+01  1.88264E+00  7.51914E+01
  3.00746E+01 -2.13119E+00  1.12852E+01  5.86521E+01 -1.75893E+00  7.08309E+01
  3.37109E+01 -2.17033E+00  1.24986E+01  5.86129E+01 -9.61969E-01  1.49693E+02
    -1
