SOLID
  FACET NORMAL +9.51056E-01 -3.09016E-01 -6.65124E-17 
    OUTER LOOP      
      VERTEX   -9.52499E+00 +4.12750E+01 +0.00000E+00 
      VERTEX   -7.70588E+00 +4.68736E+01 +0.00000E+00 
      VERTEX   -7.70588E+00 +4.68736E+01 +1.27000E+01 
    ENDLOOP
  ENDFACET
  FACET NORMAL +5.87785E-01 -8.09016E-01 -4.11069E-17 
    OUTER LOOP      
      VERTEX   -2.94338E+00 +5.03338E+01 +0.00000E+00 
      VERTEX   -2.94338E+00 +5.03338E+01 +1.27000E+01 
      VERTEX   -7.70588E+00 +4.68736E+01 +1.27000E+01 
    ENDLOOP
  ENDFACET
  FACET NORMAL +0.00000E+00 -1.00000E+00 +0.00000E+00 
    OUTER LOOP      
      VERTEX   +2.94338E+00 +5.03338E+01 +0.00000E+00 
      VERTEX   +2.94338E+00 +5.03338E+01 +1.27000E+01 
      VERTEX   -2.94338E+00 +5.03338E+01 +1.27000E+01 
    ENDLOOP
  ENDFACET
  FACET NORMAL -5.87785E-01 -8.09016E-01 +4.11069E-17 
    OUTER LOOP      
      VERTEX   +7.70588E+00 +4.68736E+01 +0.00000E+00 
      VERTEX   +7.70588E+00 +4.68736E+01 +1.27000E+01 
      VERTEX   +2.94338E+00 +5.03338E+01 +1.27000E+01 
    ENDLOOP
  ENDFACET
  FACET NORMAL -9.51056E-01 -3.09016E-01 +0.00000E+00 
    OUTER LOOP      
      VERTEX   +7.70588E+00 +4.68736E+01 +0.00000E+00 
      VERTEX   +9.52500E+00 +4.12750E+01 +0.00000E+00 
      VERTEX   +9.52500E+00 +4.12750E+01 +1.27000E+01 
    ENDLOOP
  ENDFACET
  FACET NORMAL -9.51056E-01 +3.09016E-01 +6.65124E-17 
    OUTER LOOP      
      VERTEX   +9.52500E+00 +4.12750E+01 +0.00000E+00 
      VERTEX   +7.70588E+00 +3.56763E+01 +0.00000E+00 
      VERTEX   +7.70588E+00 +3.56763E+01 +1.27000E+01 
    ENDLOOP
  ENDFACET
  FACET NORMAL -5.87785E-01 +8.09016E-01 +4.11069E-17 
    OUTER LOOP      
      VERTEX   +7.70588E+00 +3.56763E+01 +0.00000E+00 
      VERTEX   +2.94338E+00 +3.22161E+01 +0.00000E+00 
      VERTEX   +2.94338E+00 +3.22161E+01 +1.27000E+01 
    ENDLOOP
  ENDFACET
  FACET NORMAL +0.00000E+00 +1.00000E+00 +0.00000E+00 
    OUTER LOOP      
      VERTEX   +2.94338E+00 +3.22161E+01 +0.00000E+00 
      VERTEX   -2.94338E+00 +3.22161E+01 +0.00000E+00 
      VERTEX   -2.94338E+00 +3.22161E+01 +1.27000E+01 
    ENDLOOP
  ENDFACET
  FACET NORMAL +5.87785E-01 +8.09016E-01 -4.11069E-17 
    OUTER LOOP      
      VERTEX   -2.94338E+00 +3.22161E+01 +0.00000E+00 
      VERTEX   -7.70588E+00 +3.56763E+01 +0.00000E+00 
      VERTEX   -7.70588E+00 +3.56763E+01 +1.27000E+01 
    ENDLOOP
  ENDFACET
  FACET NORMAL +9.51056E-01 +3.09016E-01 +0.00000E+00 
    OUTER LOOP      
      VERTEX   -7.70588E+00 +3.56763E+01 +0.00000E+00 
      VERTEX   -9.52499E+00 +4.12750E+01 +0.00000E+00 
      VERTEX   -9.52499E+00 +4.12750E+01 +1.27000E+01 
    ENDLOOP
  ENDFACET
  FACET NORMAL +9.51056E-01 +3.09016E-01 -6.65124E-17 
    OUTER LOOP      
      VERTEX   -9.52499E+00 +4.12750E+01 +1.27000E+01 
      VERTEX   -7.70588E+00 +3.56763E+01 +1.27000E+01 
      VERTEX   -7.70588E+00 +3.56763E+01 +0.00000E+00 
    ENDLOOP
  ENDFACET
  FACET NORMAL +5.87785E-01 +8.09016E-01 -4.11069E-17 
    OUTER LOOP      
      VERTEX   -7.70588E+00 +3.56763E+01 +1.27000E+01 
      VERTEX   -2.94338E+00 +3.22161E+01 +1.27000E+01 
      VERTEX   -2.94338E+00 +3.22161E+01 +0.00000E+00 
    ENDLOOP
  ENDFACET
  FACET NORMAL +0.00000E+00 +1.00000E+00 +0.00000E+00 
    OUTER LOOP      
      VERTEX   -2.94338E+00 +3.22161E+01 +1.27000E+01 
      VERTEX   +2.94338E+00 +3.22161E+01 +1.27000E+01 
      VERTEX   +2.94338E+00 +3.22161E+01 +0.00000E+00 
    ENDLOOP
  ENDFACET
  FACET NORMAL -5.87785E-01 +8.09016E-01 +4.11069E-17 
    OUTER LOOP      
      VERTEX   +2.94338E+00 +3.22161E+01 +1.27000E+01 
      VERTEX   +7.70588E+00 +3.56763E+01 +1.27000E+01 
      VERTEX   +7.70588E+00 +3.56763E+01 +0.00000E+00 
    ENDLOOP
  ENDFACET
  FACET NORMAL -9.51056E-01 +3.09016E-01 +0.00000E+00 
    OUTER LOOP      
      VERTEX   +7.70588E+00 +3.56763E+01 +1.27000E+01 
      VERTEX   +9.52500E+00 +4.12750E+01 +1.27000E+01 
      VERTEX   +9.52500E+00 +4.12750E+01 +0.00000E+00 
    ENDLOOP
  ENDFACET
  FACET NORMAL -9.51056E-01 -3.09016E-01 +6.65124E-17 
    OUTER LOOP      
      VERTEX   +9.52500E+00 +4.12750E+01 +1.27000E+01 
      VERTEX   +7.70588E+00 +4.68736E+01 +1.27000E+01 
      VERTEX   +7.70588E+00 +4.68736E+01 +0.00000E+00 
    ENDLOOP
  ENDFACET
  FACET NORMAL -5.87785E-01 -8.09016E-01 +4.11069E-17 
    OUTER LOOP      
      VERTEX   +2.94338E+00 +5.03338E+01 +1.27000E+01 
      VERTEX   +2.94338E+00 +5.03338E+01 +0.00000E+00 
      VERTEX   +7.70588E+00 +4.68736E+01 +0.00000E+00 
    ENDLOOP
  ENDFACET
  FACET NORMAL +0.00000E+00 -1.00000E+00 +0.00000E+00 
    OUTER LOOP      
      VERTEX   -2.94338E+00 +5.03338E+01 +1.27000E+01 
      VERTEX   -2.94338E+00 +5.03338E+01 +0.00000E+00 
      VERTEX   +2.94338E+00 +5.03338E+01 +0.00000E+00 
    ENDLOOP
  ENDFACET
  FACET NORMAL +5.87785E-01 -8.09016E-01 -4.11069E-17 
    OUTER LOOP      
      VERTEX   -7.70588E+00 +4.68736E+01 +1.27000E+01 
      VERTEX   -7.70588E+00 +4.68736E+01 +0.00000E+00 
      VERTEX   -2.94338E+00 +5.03338E+01 +0.00000E+00 
    ENDLOOP
  ENDFACET
  FACET NORMAL +9.51056E-01 -3.09016E-01 +0.00000E+00 
    OUTER LOOP      
      VERTEX   -7.70588E+00 +4.68736E+01 +1.27000E+01 
      VERTEX   -9.52499E+00 +4.12750E+01 +1.27000E+01 
      VERTEX   -9.52499E+00 +4.12750E+01 +0.00000E+00 
    ENDLOOP
  ENDFACET
  FACET NORMAL +0.00000E+00 +0.00000E+00 -1.00000E+00 
    OUTER LOOP      
      VERTEX   -4.25587E+00 +6.30887E+01 +0.00000E+00 
      VERTEX   +2.94338E+00 +5.03338E+01 +0.00000E+00 
      VERTEX   -2.94338E+00 +5.03338E+01 +0.00000E+00 
    ENDLOOP
  ENDFACET
  FACET NORMAL +0.00000E+00 +0.00000E+00 -1.00000E+00 
    OUTER LOOP      
      VERTEX   +1.82497E+01 +5.39594E+01 +0.00000E+00 
      VERTEX   +7.70588E+00 +3.56763E+01 +0.00000E+00 
      VERTEX   +9.52500E+00 +4.12750E+01 +0.00000E+00 
    ENDLOOP
  ENDFACET
  FACET NORMAL +0.00000E+00 +0.00000E+00 -1.00000E+00 
    OUTER LOOP      
      VERTEX   -3.81000E+01 +2.54000E+01 +0.00000E+00 
      VERTEX   -7.70588E+00 +3.56763E+01 +0.00000E+00 
      VERTEX   -2.94338E+00 +3.22161E+01 +0.00000E+00 
    ENDLOOP
  ENDFACET
  FACET NORMAL +0.00000E+00 +0.00000E+00 -1.00000E+00 
    OUTER LOOP      
      VERTEX   -2.94338E+00 +5.03338E+01 +0.00000E+00 
      VERTEX   -1.21433E+01 +5.98892E+01 +0.00000E+00 
      VERTEX   -4.25587E+00 +6.30887E+01 +0.00000E+00 
    ENDLOOP
  ENDFACET
  FACET NORMAL +0.00000E+00 +0.00000E+00 -1.00000E+00 
    OUTER LOOP      
      VERTEX   +9.52500E+00 +4.12750E+01 +0.00000E+00 
      VERTEX   +1.21433E+01 +5.98892E+01 +0.00000E+00 
      VERTEX   +1.82497E+01 +5.39594E+01 +0.00000E+00 
    ENDLOOP
  ENDFACET
  FACET NORMAL +0.00000E+00 +0.00000E+00 -1.00000E+00 
    OUTER LOOP      
      VERTEX   +3.81000E+01 +2.54000E+01 +0.00000E+00 
      VERTEX   +2.94338E+00 +3.22161E+01 +0.00000E+00 
      VERTEX   +7.70588E+00 +3.56763E+01 +0.00000E+00 
    ENDLOOP
  ENDFACET
  FACET NORMAL +0.00000E+00 +0.00000E+00 -1.00000E+00 
    OUTER LOOP      
      VERTEX   -2.94338E+00 +3.22161E+01 +0.00000E+00 
      VERTEX   +3.81000E+01 +2.54000E+01 +0.00000E+00 
      VERTEX   -3.81000E+01 +2.54000E+01 +0.00000E+00 
    ENDLOOP
  ENDFACET
  FACET NORMAL +0.00000E+00 +0.00000E+00 -1.00000E-00 
    OUTER LOOP      
      VERTEX   -4.25587E+00 +6.30887E+01 +0.00000E+00 
      VERTEX   +4.25587E+00 +6.30887E+01 +0.00000E+00 
      VERTEX   +2.94338E+00 +5.03338E+01 +0.00000E+00 
    ENDLOOP
  ENDFACET
  FACET NORMAL +0.00000E+00 +0.00000E+00 -1.00000E+00 
    OUTER LOOP      
      VERTEX   +9.52500E+00 +4.12750E+01 +0.00000E+00 
      VERTEX   +4.25587E+00 +6.30887E+01 +0.00000E+00 
      VERTEX   +1.21433E+01 +5.98892E+01 +0.00000E+00 
    ENDLOOP
  ENDFACET
  FACET NORMAL +0.00000E+00 +0.00000E+00 -1.00000E+00 
    OUTER LOOP      
      VERTEX   -2.94338E+00 +3.22161E+01 +0.00000E+00 
      VERTEX   +2.94338E+00 +3.22161E+01 +0.00000E+00 
      VERTEX   +3.81000E+01 +2.54000E+01 +0.00000E+00 
    ENDLOOP
  ENDFACET
  FACET NORMAL +0.00000E+00 +0.00000E+00 -1.00000E+00 
    OUTER LOOP      
      VERTEX   -2.94338E+00 +5.03338E+01 +0.00000E+00 
      VERTEX   -1.82497E+01 +5.39594E+01 +0.00000E+00 
      VERTEX   -1.21433E+01 +5.98892E+01 +0.00000E+00 
    ENDLOOP
  ENDFACET
  FACET NORMAL +0.00000E+00 +0.00000E+00 -1.00000E+00 
    OUTER LOOP      
      VERTEX   +7.70588E+00 +3.56763E+01 +0.00000E+00 
      VERTEX   +1.82497E+01 +5.39594E+01 +0.00000E+00 
      VERTEX   +3.81000E+01 +2.54000E+01 +0.00000E+00 
    ENDLOOP
  ENDFACET
  FACET NORMAL +0.00000E+00 +0.00000E+00 -1.00000E+00 
    OUTER LOOP      
      VERTEX   -3.81000E+01 +2.54000E+01 +0.00000E+00 
      VERTEX   -7.70588E+00 +4.68736E+01 +0.00000E+00 
      VERTEX   -9.52499E+00 +4.12750E+01 +0.00000E+00 
    ENDLOOP
  ENDFACET
  FACET NORMAL +0.00000E+00 +0.00000E+00 -1.00000E+00 
    OUTER LOOP      
      VERTEX   -2.94338E+00 +5.03338E+01 +0.00000E+00 
      VERTEX   -3.81000E+01 +2.54000E+01 +0.00000E+00 
      VERTEX   -1.82497E+01 +5.39594E+01 +0.00000E+00 
    ENDLOOP
  ENDFACET
  FACET NORMAL +0.00000E+00 +0.00000E+00 -1.00000E+00 
    OUTER LOOP      
      VERTEX   +9.52500E+00 +4.12750E+01 +0.00000E+00 
      VERTEX   +7.70588E+00 +4.68736E+01 +0.00000E+00 
      VERTEX   +4.25587E+00 +6.30887E+01 +0.00000E+00 
    ENDLOOP
  ENDFACET
  FACET NORMAL +0.00000E+00 +0.00000E+00 -1.00000E+00 
    OUTER LOOP      
      VERTEX   -2.94338E+00 +5.03338E+01 +0.00000E+00 
      VERTEX   -7.70588E+00 +4.68736E+01 +0.00000E+00 
      VERTEX   -3.81000E+01 +2.54000E+01 +0.00000E+00 
    ENDLOOP
  ENDFACET
  FACET NORMAL +0.00000E+00 +0.00000E+00 -1.00000E+00 
    OUTER LOOP      
      VERTEX   -9.52499E+00 +4.12750E+01 +0.00000E+00 
      VERTEX   -7.70588E+00 +3.56763E+01 +0.00000E+00 
      VERTEX   -3.81000E+01 +2.54000E+01 +0.00000E+00 
    ENDLOOP
  ENDFACET
  FACET NORMAL +0.00000E+00 +0.00000E+00 -1.00000E+00 
    OUTER LOOP      
      VERTEX   +7.70588E+00 +4.68736E+01 +0.00000E+00 
      VERTEX   +2.94338E+00 +5.03338E+01 +0.00000E+00 
      VERTEX   +4.25587E+00 +6.30887E+01 +0.00000E+00 
    ENDLOOP
  ENDFACET
  FACET NORMAL -6.96652E-01 +7.17408E-01 +0.00000E+00 
    OUTER LOOP      
      VERTEX   -1.82497E+01 +5.39594E+01 +1.27000E+01 
      VERTEX   -1.21433E+01 +5.98892E+01 +1.27000E+01 
      VERTEX   -1.21433E+01 +5.98892E+01 +0.00000E+00 
    ENDLOOP
  ENDFACET
  FACET NORMAL -3.75893E-01 +9.26662E-01 +0.00000E+00 
    OUTER LOOP      
      VERTEX   -4.25587E+00 +6.30887E+01 +1.27000E+01 
      VERTEX   -4.25587E+00 +6.30887E+01 +0.00000E+00 
      VERTEX   -1.21433E+01 +5.98892E+01 +0.00000E+00 
    ENDLOOP
  ENDFACET
  FACET NORMAL +0.00000E+00 +1.00000E+00 +0.00000E+00 
    OUTER LOOP      
      VERTEX   +4.25587E+00 +6.30887E+01 +1.27000E+01 
      VERTEX   +4.25587E+00 +6.30887E+01 +0.00000E+00 
      VERTEX   -4.25587E+00 +6.30887E+01 +0.00000E+00 
    ENDLOOP
  ENDFACET
  FACET NORMAL +3.75893E-01 +9.26662E-01 -2.62882E-17 
    OUTER LOOP      
      VERTEX   +1.21433E+01 +5.98892E+01 +0.00000E+00 
      VERTEX   +4.25587E+00 +6.30887E+01 +0.00000E+00 
      VERTEX   +4.25587E+00 +6.30887E+01 +1.27000E+01 
    ENDLOOP
  ENDFACET
  FACET NORMAL +6.96652E-01 +7.17408E-01 -1.94882E-16 
    OUTER LOOP      
      VERTEX   +1.21433E+01 +5.98892E+01 +1.27000E+01 
      VERTEX   +1.82497E+01 +5.39594E+01 +1.27000E+01 
      VERTEX   +1.82497E+01 +5.39594E+01 +0.00000E+00 
    ENDLOOP
  ENDFACET
  FACET NORMAL +6.96652E-01 +7.17408E-01 -9.74412E-17 
    OUTER LOOP      
      VERTEX   +1.82497E+01 +5.39594E+01 +0.00000E+00 
      VERTEX   +1.21433E+01 +5.98892E+01 +0.00000E+00 
      VERTEX   +1.21433E+01 +5.98892E+01 +1.27000E+01 
    ENDLOOP
  ENDFACET
  FACET NORMAL +3.75893E-01 +9.26662E-01 -5.25764E-17 
    OUTER LOOP      
      VERTEX   +4.25587E+00 +6.30887E+01 +1.27000E+01 
      VERTEX   +1.21433E+01 +5.98892E+01 +1.27000E+01 
      VERTEX   +1.21433E+01 +5.98892E+01 +0.00000E+00 
    ENDLOOP
  ENDFACET
  FACET NORMAL +0.00000E+00 +1.00000E+00 +0.00000E+00 
    OUTER LOOP      
      VERTEX   -4.25587E+00 +6.30887E+01 +0.00000E+00 
      VERTEX   -4.25587E+00 +6.30887E+01 +1.27000E+01 
      VERTEX   +4.25587E+00 +6.30887E+01 +1.27000E+01 
    ENDLOOP
  ENDFACET
  FACET NORMAL -3.75893E-01 +9.26662E-01 +0.00000E+00 
    OUTER LOOP      
      VERTEX   -1.21433E+01 +5.98892E+01 +0.00000E+00 
      VERTEX   -1.21433E+01 +5.98892E+01 +1.27000E+01 
      VERTEX   -4.25587E+00 +6.30887E+01 +1.27000E+01 
    ENDLOOP
  ENDFACET
  FACET NORMAL -6.96652E-01 +7.17408E-01 +0.00000E+00 
    OUTER LOOP      
      VERTEX   -1.21433E+01 +5.98892E+01 +0.00000E+00 
      VERTEX   -1.82497E+01 +5.39594E+01 +0.00000E+00 
      VERTEX   -1.82497E+01 +5.39594E+01 +1.27000E+01 
    ENDLOOP
  ENDFACET
  FACET NORMAL +8.21137E-01 +5.70730E-01 +4.08921E-16 
    OUTER LOOP      
      VERTEX   +3.81000E+01 +2.54000E+01 +0.00000E+00 
      VERTEX   +1.82497E+01 +5.39594E+01 +0.00000E+00 
      VERTEX   +1.82497E+01 +5.39594E+01 +1.27000E+01 
    ENDLOOP
  ENDFACET
  FACET NORMAL +8.21137E-01 +5.70730E-01 +0.00000E+00 
    OUTER LOOP      
      VERTEX   +1.82497E+01 +5.39594E+01 +1.27000E+01 
      VERTEX   +3.81000E+01 +2.54000E+01 +1.27000E+01 
      VERTEX   +3.81000E+01 +2.54000E+01 +0.00000E+00 
    ENDLOOP
  ENDFACET
  FACET NORMAL -8.21137E-01 +5.70730E-01 +2.99755E-16 
    OUTER LOOP      
      VERTEX   -1.82497E+01 +5.39594E+01 +0.00000E+00 
      VERTEX   -3.81000E+01 +2.54000E+01 +0.00000E+00 
      VERTEX   -3.81000E+01 +2.54000E+01 +1.27000E+01 
    ENDLOOP
  ENDFACET
  FACET NORMAL -8.21137E-01 +5.70730E-01 +0.00000E+00 
    OUTER LOOP      
      VERTEX   -3.81000E+01 +2.54000E+01 +1.27000E+01 
      VERTEX   -1.82497E+01 +5.39594E+01 +1.27000E+01 
      VERTEX   -1.82497E+01 +5.39594E+01 +0.00000E+00 
    ENDLOOP
  ENDFACET
  FACET NORMAL +1.00000E+00 -1.39870E-16 +0.00000E+00 
    OUTER LOOP      
      VERTEX   +3.81000E+01 -2.54000E+01 +1.27000E+01 
      VERTEX   +3.81000E+01 -2.54000E+01 +0.00000E+00 
      VERTEX   +3.81000E+01 +2.54000E+01 +0.00000E+00 
    ENDLOOP
  ENDFACET
  FACET NORMAL +1.00000E+00 -1.39870E-16 +0.00000E+00 
    OUTER LOOP      
      VERTEX   +3.81000E+01 +2.54000E+01 +0.00000E+00 
      VERTEX   +3.81000E+01 +2.54000E+01 +1.27000E+01 
      VERTEX   +3.81000E+01 -2.54000E+01 +1.27000E+01 
    ENDLOOP
  ENDFACET
  FACET NORMAL +8.21137E-01 -5.70730E-01 +0.00000E+00 
    OUTER LOOP      
      VERTEX   +1.82497E+01 -5.39594E+01 +0.00000E+00 
      VERTEX   +3.81000E+01 -2.54000E+01 +0.00000E+00 
      VERTEX   +3.81000E+01 -2.54000E+01 +1.27000E+01 
    ENDLOOP
  ENDFACET
  FACET NORMAL +8.21137E-01 -5.70730E-01 +0.00000E+00 
    OUTER LOOP      
      VERTEX   +3.81000E+01 -2.54000E+01 +1.27000E+01 
      VERTEX   +1.82497E+01 -5.39594E+01 +1.27000E+01 
      VERTEX   +1.82497E+01 -5.39594E+01 +0.00000E+00 
    ENDLOOP
  ENDFACET
  FACET NORMAL +6.96652E-01 -7.17408E-01 +0.00000E+00 
    OUTER LOOP      
      VERTEX   +1.82497E+01 -5.39594E+01 +1.27000E+01 
      VERTEX   +1.21433E+01 -5.98892E+01 +1.27000E+01 
      VERTEX   +1.21433E+01 -5.98892E+01 +0.00000E+00 
    ENDLOOP
  ENDFACET
  FACET NORMAL +3.75893E-01 -9.26662E-01 +0.00000E+00 
    OUTER LOOP      
      VERTEX   +1.21433E+01 -5.98892E+01 +1.27000E+01 
      VERTEX   +4.25587E+00 -6.30887E+01 +1.27000E+01 
      VERTEX   +4.25587E+00 -6.30887E+01 +0.00000E+00 
    ENDLOOP
  ENDFACET
  FACET NORMAL +0.00000E+00 -1.00000E-00 +0.00000E+00 
    OUTER LOOP      
      VERTEX   -4.25587E+00 -6.30887E+01 +0.00000E+00 
      VERTEX   +4.25587E+00 -6.30887E+01 +0.00000E+00 
      VERTEX   +4.25587E+00 -6.30887E+01 +1.27000E+01 
    ENDLOOP
  ENDFACET
  FACET NORMAL -3.75893E-01 -9.26662E-01 +2.62882E-17 
    OUTER LOOP      
      VERTEX   -4.25587E+00 -6.30887E+01 +0.00000E+00 
      VERTEX   -4.25587E+00 -6.30887E+01 +1.27000E+01 
      VERTEX   -1.21433E+01 -5.98892E+01 +1.27000E+01 
    ENDLOOP
  ENDFACET
  FACET NORMAL -6.96652E-01 -7.17408E-01 +0.00000E+00 
    OUTER LOOP      
      VERTEX   -1.21433E+01 -5.98892E+01 +1.27000E+01 
      VERTEX   -1.82497E+01 -5.39594E+01 +1.27000E+01 
      VERTEX   -1.82497E+01 -5.39594E+01 +0.00000E+00 
    ENDLOOP
  ENDFACET
  FACET NORMAL -6.96652E-01 -7.17408E-01 +9.74412E-17 
    OUTER LOOP      
      VERTEX   -1.82497E+01 -5.39594E+01 +0.00000E+00 
      VERTEX   -1.21433E+01 -5.98892E+01 +0.00000E+00 
      VERTEX   -1.21433E+01 -5.98892E+01 +1.27000E+01 
    ENDLOOP
  ENDFACET
  FACET NORMAL -3.75893E-01 -9.26662E-01 +5.25764E-17 
    OUTER LOOP      
      VERTEX   -1.21433E+01 -5.98892E+01 +1.27000E+01 
      VERTEX   -1.21433E+01 -5.98892E+01 +0.00000E+00 
      VERTEX   -4.25587E+00 -6.30887E+01 +0.00000E+00 
    ENDLOOP
  ENDFACET
  FACET NORMAL +0.00000E+00 -1.00000E+00 +0.00000E+00 
    OUTER LOOP      
      VERTEX   +4.25587E+00 -6.30887E+01 +1.27000E+01 
      VERTEX   -4.25587E+00 -6.30887E+01 +1.27000E+01 
      VERTEX   -4.25587E+00 -6.30887E+01 +0.00000E+00 
    ENDLOOP
  ENDFACET
  FACET NORMAL +3.75893E-01 -9.26662E-01 +0.00000E+00 
    OUTER LOOP      
      VERTEX   +4.25587E+00 -6.30887E+01 +0.00000E+00 
      VERTEX   +1.21433E+01 -5.98892E+01 +0.00000E+00 
      VERTEX   +1.21433E+01 -5.98892E+01 +1.27000E+01 
    ENDLOOP
  ENDFACET
  FACET NORMAL +6.96652E-01 -7.17408E-01 +0.00000E+00 
    OUTER LOOP      
      VERTEX   +1.21433E+01 -5.98892E+01 +0.00000E+00 
      VERTEX   +1.82497E+01 -5.39594E+01 +0.00000E+00 
      VERTEX   +1.82497E+01 -5.39594E+01 +1.27000E+01 
    ENDLOOP
  ENDFACET
  FACET NORMAL -8.21137E-01 -5.70730E-01 -8.96075E-17 
    OUTER LOOP      
      VERTEX   -1.82497E+01 -5.39594E+01 +0.00000E+00 
      VERTEX   -1.82497E+01 -5.39594E+01 +1.27000E+01 
      VERTEX   -3.81000E+01 -2.54000E+01 +1.27000E+01 
    ENDLOOP
  ENDFACET
  FACET NORMAL -8.21137E-01 -5.70730E-01 +6.19068E-16 
    OUTER LOOP      
      VERTEX   -3.81000E+01 -2.54000E+01 +1.27000E+01 
      VERTEX   -3.81000E+01 -2.54000E+01 +0.00000E+00 
      VERTEX   -1.82497E+01 -5.39594E+01 +0.00000E+00 
    ENDLOOP
  ENDFACET
  FACET NORMAL +0.00000E+00 +0.00000E+00 +1.00000E-00 
    OUTER LOOP      
      VERTEX   -3.81000E+01 +2.54000E+01 +1.27000E+01 
      VERTEX   -7.70588E+00 -4.68736E+01 +1.27000E+01 
      VERTEX   -9.52499E+00 -4.12750E+01 +1.27000E+01 
    ENDLOOP
  ENDFACET
  FACET NORMAL +0.00000E+00 +0.00000E+00 +1.00000E+00 
    OUTER LOOP      
      VERTEX   -9.52499E+00 -4.12750E+01 +1.27000E+01 
      VERTEX   -1.82497E+01 +5.39594E+01 +1.27000E+01 
      VERTEX   -3.81000E+01 +2.54000E+01 +1.27000E+01 
    ENDLOOP
  ENDFACET
  FACET NORMAL +0.00000E+00 +0.00000E+00 +1.00000E+00 
    OUTER LOOP      
      VERTEX   -9.52499E+00 -4.12750E+01 +1.27000E+01 
      VERTEX   -1.21433E+01 +5.98892E+01 +1.27000E+01 
      VERTEX   -1.82497E+01 +5.39594E+01 +1.27000E+01 
    ENDLOOP
  ENDFACET
  FACET NORMAL +0.00000E+00 +0.00000E+00 +1.00000E+00 
    OUTER LOOP      
      VERTEX   -9.52499E+00 -4.12750E+01 +1.27000E+01 
      VERTEX   -9.52499E+00 +4.12750E+01 +1.27000E+01 
      VERTEX   -1.21433E+01 +5.98892E+01 +1.27000E+01 
    ENDLOOP
  ENDFACET
  FACET NORMAL +0.00000E+00 +0.00000E+00 +1.00000E+00 
    OUTER LOOP      
      VERTEX   -4.25587E+00 +6.30887E+01 +1.27000E+01 
      VERTEX   -9.52499E+00 +4.12750E+01 +1.27000E+01 
      VERTEX   -7.70588E+00 +4.68736E+01 +1.27000E+01 
    ENDLOOP
  ENDFACET
  FACET NORMAL +0.00000E+00 +0.00000E+00 +1.00000E+00 
    OUTER LOOP      
      VERTEX   -9.52499E+00 -4.12750E+01 +1.27000E+01 
      VERTEX   -7.70588E+00 +3.56763E+01 +1.27000E+01 
      VERTEX   -9.52499E+00 +4.12750E+01 +1.27000E+01 
    ENDLOOP
  ENDFACET
  FACET NORMAL +0.00000E+00 +0.00000E+00 +1.00000E+00 
    OUTER LOOP      
      VERTEX   -9.52499E+00 +4.12750E+01 +1.27000E+01 
      VERTEX   -4.25587E+00 +6.30887E+01 +1.27000E+01 
      VERTEX   -1.21433E+01 +5.98892E+01 +1.27000E+01 
    ENDLOOP
  ENDFACET
  FACET NORMAL +0.00000E+00 +0.00000E+00 +1.00000E-00 
    OUTER LOOP      
      VERTEX   -3.81000E+01 -2.54000E+01 +1.27000E+01 
      VERTEX   -2.94338E+00 -5.03338E+01 +1.27000E+01 
      VERTEX   -7.70588E+00 -4.68736E+01 +1.27000E+01 
    ENDLOOP
  ENDFACET
  FACET NORMAL +0.00000E+00 +0.00000E+00 +1.00000E-00 
    OUTER LOOP      
      VERTEX   +3.81000E+01 -2.54000E+01 +1.27000E+01 
      VERTEX   +7.70588E+00 +4.68736E+01 +1.27000E+01 
      VERTEX   +9.52500E+00 +4.12750E+01 +1.27000E+01 
    ENDLOOP
  ENDFACET
  FACET NORMAL +0.00000E+00 +0.00000E+00 +1.00000E+00 
    OUTER LOOP      
      VERTEX   +3.81000E+01 +2.54000E+01 +1.27000E+01 
      VERTEX   +2.94338E+00 +5.03338E+01 +1.27000E+01 
      VERTEX   +7.70588E+00 +4.68736E+01 +1.27000E+01 
    ENDLOOP
  ENDFACET
  FACET NORMAL +0.00000E+00 +0.00000E+00 +1.00000E+00 
    OUTER LOOP      
      VERTEX   +1.82497E+01 +5.39594E+01 +1.27000E+01 
      VERTEX   -2.94338E+00 +5.03338E+01 +1.27000E+01 
      VERTEX   +2.94338E+00 +5.03338E+01 +1.27000E+01 
    ENDLOOP
  ENDFACET
  FACET NORMAL +0.00000E+00 +0.00000E+00 +1.00000E+00 
    OUTER LOOP      
      VERTEX   +4.25587E+00 +6.30887E+01 +1.27000E+01 
      VERTEX   -7.70588E+00 +4.68736E+01 +1.27000E+01 
      VERTEX   -2.94338E+00 +5.03338E+01 +1.27000E+01 
    ENDLOOP
  ENDFACET
  FACET NORMAL +0.00000E+00 +0.00000E+00 +1.00000E+00 
    OUTER LOOP      
      VERTEX   -7.70588E+00 -4.68736E+01 +1.27000E+01 
      VERTEX   -3.81000E+01 +2.54000E+01 +1.27000E+01 
      VERTEX   -3.81000E+01 -2.54000E+01 +1.27000E+01 
    ENDLOOP
  ENDFACET
  FACET NORMAL +0.00000E+00 +0.00000E+00 +1.00000E-00 
    OUTER LOOP      
      VERTEX   -1.82497E+01 -5.39594E+01 +1.27000E+01 
      VERTEX   +2.94338E+00 -5.03338E+01 +1.27000E+01 
      VERTEX   -2.94338E+00 -5.03338E+01 +1.27000E+01 
    ENDLOOP
  ENDFACET
  FACET NORMAL +0.00000E+00 +0.00000E+00 +1.00000E+00 
    OUTER LOOP      
      VERTEX   -4.25587E+00 -6.30887E+01 +1.27000E+01 
      VERTEX   +7.70588E+00 -4.68736E+01 +1.27000E+01 
      VERTEX   +2.94338E+00 -5.03338E+01 +1.27000E+01 
    ENDLOOP
  ENDFACET
  FACET NORMAL +0.00000E+00 +0.00000E+00 +1.00000E+00 
    OUTER LOOP      
      VERTEX   +1.82497E+01 -5.39594E+01 +1.27000E+01 
      VERTEX   +2.94338E+00 +3.22161E+01 +1.27000E+01 
      VERTEX   +9.52500E+00 -4.12750E+01 +1.27000E+01 
    ENDLOOP
  ENDFACET
  FACET NORMAL +0.00000E+00 +0.00000E+00 +1.00000E+00 
    OUTER LOOP      
      VERTEX   +9.52500E+00 +4.12750E+01 +1.27000E+01 
      VERTEX   +1.82497E+01 -5.39594E+01 +1.27000E+01 
      VERTEX   +3.81000E+01 -2.54000E+01 +1.27000E+01 
    ENDLOOP
  ENDFACET
  FACET NORMAL +0.00000E+00 +0.00000E+00 +1.00000E-00 
    OUTER LOOP      
      VERTEX   +2.94338E+00 +5.03338E+01 +1.27000E+01 
      VERTEX   +3.81000E+01 +2.54000E+01 +1.27000E+01 
      VERTEX   +1.82497E+01 +5.39594E+01 +1.27000E+01 
    ENDLOOP
  ENDFACET
  FACET NORMAL +0.00000E+00 +0.00000E+00 +1.00000E+00 
    OUTER LOOP      
      VERTEX   -2.94338E+00 +5.03338E+01 +1.27000E+01 
      VERTEX   +1.21433E+01 +5.98892E+01 +1.27000E+01 
      VERTEX   +4.25587E+00 +6.30887E+01 +1.27000E+01 
    ENDLOOP
  ENDFACET
  FACET NORMAL +0.00000E+00 +0.00000E+00 +1.00000E+00 
    OUTER LOOP      
      VERTEX   -2.94338E+00 -5.03338E+01 +1.27000E+01 
      VERTEX   -3.81000E+01 -2.54000E+01 +1.27000E+01 
      VERTEX   -1.82497E+01 -5.39594E+01 +1.27000E+01 
    ENDLOOP
  ENDFACET
  FACET NORMAL +0.00000E+00 +0.00000E+00 +1.00000E-00 
    OUTER LOOP      
      VERTEX   +2.94338E+00 -5.03338E+01 +1.27000E+01 
      VERTEX   -1.21433E+01 -5.98892E+01 +1.27000E+01 
      VERTEX   -4.25587E+00 -6.30887E+01 +1.27000E+01 
    ENDLOOP
  ENDFACET
  FACET NORMAL +0.00000E+00 +0.00000E+00 +1.00000E+00 
    OUTER LOOP      
      VERTEX   +4.25587E+00 -6.30887E+01 +1.27000E+01 
      VERTEX   +9.52500E+00 -4.12750E+01 +1.27000E+01 
      VERTEX   +7.70588E+00 -4.68736E+01 +1.27000E+01 
    ENDLOOP
  ENDFACET
  FACET NORMAL +0.00000E+00 +0.00000E+00 +1.00000E+00 
    OUTER LOOP      
      VERTEX   +9.52500E+00 -4.12750E+01 +1.27000E+01 
      VERTEX   +1.21433E+01 -5.98892E+01 +1.27000E+01 
      VERTEX   +1.82497E+01 -5.39594E+01 +1.27000E+01 
    ENDLOOP
  ENDFACET
  FACET NORMAL +0.00000E+00 +0.00000E+00 +1.00000E+00 
    OUTER LOOP      
      VERTEX   -2.94338E+00 +3.22161E+01 +1.27000E+01 
      VERTEX   -9.52499E+00 -4.12750E+01 +1.27000E+01 
      VERTEX   -7.70588E+00 -3.56763E+01 +1.27000E+01 
    ENDLOOP
  ENDFACET
  FACET NORMAL +0.00000E+00 +0.00000E+00 +1.00000E+00 
    OUTER LOOP      
      VERTEX   +9.52500E+00 +4.12750E+01 +1.27000E+01 
      VERTEX   +7.70588E+00 +3.56763E+01 +1.27000E+01 
      VERTEX   +1.82497E+01 -5.39594E+01 +1.27000E+01 
    ENDLOOP
  ENDFACET
  FACET NORMAL +0.00000E+00 +0.00000E+00 +1.00000E+00 
    OUTER LOOP      
      VERTEX   -2.94338E+00 +5.03338E+01 +1.27000E+01 
      VERTEX   +1.82497E+01 +5.39594E+01 +1.27000E+01 
      VERTEX   +1.21433E+01 +5.98892E+01 +1.27000E+01 
    ENDLOOP
  ENDFACET
  FACET NORMAL +0.00000E+00 +0.00000E+00 +1.00000E+00 
    OUTER LOOP      
      VERTEX   +2.94338E+00 -5.03338E+01 +1.27000E+01 
      VERTEX   -1.82497E+01 -5.39594E+01 +1.27000E+01 
      VERTEX   -1.21433E+01 -5.98892E+01 +1.27000E+01 
    ENDLOOP
  ENDFACET
  FACET NORMAL +0.00000E+00 +0.00000E+00 +1.00000E-00 
    OUTER LOOP      
      VERTEX   +9.52500E+00 -4.12750E+01 +1.27000E+01 
      VERTEX   +4.25587E+00 -6.30887E+01 +1.27000E+01 
      VERTEX   +1.21433E+01 -5.98892E+01 +1.27000E+01 
    ENDLOOP
  ENDFACET
  FACET NORMAL +0.00000E+00 +0.00000E+00 +1.00000E+00 
    OUTER LOOP      
      VERTEX   +2.94338E+00 +3.22161E+01 +1.27000E+01 
      VERTEX   +2.94338E+00 -3.22161E+01 +1.27000E+01 
      VERTEX   +7.70588E+00 -3.56763E+01 +1.27000E+01 
    ENDLOOP
  ENDFACET
  FACET NORMAL +0.00000E+00 +0.00000E+00 +1.00000E+00 
    OUTER LOOP      
      VERTEX   -7.70588E+00 -3.56763E+01 +1.27000E+01 
      VERTEX   +2.94338E+00 +3.22161E+01 +1.27000E+01 
      VERTEX   -2.94338E+00 +3.22161E+01 +1.27000E+01 
    ENDLOOP
  ENDFACET
  FACET NORMAL +0.00000E+00 +0.00000E+00 +1.00000E+00 
    OUTER LOOP      
      VERTEX   +7.70588E+00 +4.68736E+01 +1.27000E+01 
      VERTEX   +3.81000E+01 -2.54000E+01 +1.27000E+01 
      VERTEX   +3.81000E+01 +2.54000E+01 +1.27000E+01 
    ENDLOOP
  ENDFACET
  FACET NORMAL +0.00000E+00 +0.00000E+00 +1.00000E+00 
    OUTER LOOP      
      VERTEX   +7.70588E+00 -4.68736E+01 +1.27000E+01 
      VERTEX   -4.25587E+00 -6.30887E+01 +1.27000E+01 
      VERTEX   +4.25587E+00 -6.30887E+01 +1.27000E+01 
    ENDLOOP
  ENDFACET
  FACET NORMAL +0.00000E+00 +0.00000E+00 +1.00000E+00 
    OUTER LOOP      
      VERTEX   +2.94338E+00 +3.22161E+01 +1.27000E+01 
      VERTEX   -2.94338E+00 -3.22161E+01 +1.27000E+01 
      VERTEX   +2.94338E+00 -3.22161E+01 +1.27000E+01 
    ENDLOOP
  ENDFACET
  FACET NORMAL +0.00000E+00 +0.00000E+00 +1.00000E+00 
    OUTER LOOP      
      VERTEX   -2.94338E+00 +3.22161E+01 +1.27000E+01 
      VERTEX   -7.70588E+00 +3.56763E+01 +1.27000E+01 
      VERTEX   -9.52499E+00 -4.12750E+01 +1.27000E+01 
    ENDLOOP
  ENDFACET
  FACET NORMAL +0.00000E+00 +0.00000E+00 +1.00000E+00 
    OUTER LOOP      
      VERTEX   -7.70588E+00 +4.68736E+01 +1.27000E+01 
      VERTEX   +4.25587E+00 +6.30887E+01 +1.27000E+01 
      VERTEX   -4.25587E+00 +6.30887E+01 +1.27000E+01 
    ENDLOOP
  ENDFACET
  FACET NORMAL +0.00000E+00 +0.00000E+00 +1.00000E+00 
    OUTER LOOP      
      VERTEX   -7.70588E+00 -3.56763E+01 +1.27000E+01 
      VERTEX   -2.94338E+00 -3.22161E+01 +1.27000E+01 
      VERTEX   +2.94338E+00 +3.22161E+01 +1.27000E+01 
    ENDLOOP
  ENDFACET
  FACET NORMAL +0.00000E+00 +0.00000E+00 +1.00000E+00 
    OUTER LOOP      
      VERTEX   +7.70588E+00 -3.56763E+01 +1.27000E+01 
      VERTEX   +9.52500E+00 -4.12750E+01 +1.27000E+01 
      VERTEX   +2.94338E+00 +3.22161E+01 +1.27000E+01 
    ENDLOOP
  ENDFACET
  FACET NORMAL +0.00000E+00 +0.00000E+00 +1.00000E+00 
    OUTER LOOP      
      VERTEX   +7.70588E+00 +3.56763E+01 +1.27000E+01 
      VERTEX   +2.94338E+00 +3.22161E+01 +1.27000E+01 
      VERTEX   +1.82497E+01 -5.39594E+01 +1.27000E+01 
    ENDLOOP
  ENDFACET
  FACET NORMAL +9.51056E-01 -3.09016E-01 -6.65124E-17 
    OUTER LOOP      
      VERTEX   -9.52499E+00 -4.12750E+01 +0.00000E+00 
      VERTEX   -7.70588E+00 -3.56763E+01 +0.00000E+00 
      VERTEX   -7.70588E+00 -3.56763E+01 +1.27000E+01 
    ENDLOOP
  ENDFACET
  FACET NORMAL +5.87785E-01 -8.09016E-01 -4.11069E-17 
    OUTER LOOP      
      VERTEX   -2.94338E+00 -3.22161E+01 +0.00000E+00 
      VERTEX   -2.94338E+00 -3.22161E+01 +1.27000E+01 
      VERTEX   -7.70588E+00 -3.56763E+01 +1.27000E+01 
    ENDLOOP
  ENDFACET
  FACET NORMAL +0.00000E+00 -1.00000E+00 +0.00000E+00 
    OUTER LOOP      
      VERTEX   +2.94338E+00 -3.22161E+01 +0.00000E+00 
      VERTEX   +2.94338E+00 -3.22161E+01 +1.27000E+01 
      VERTEX   -2.94338E+00 -3.22161E+01 +1.27000E+01 
    ENDLOOP
  ENDFACET
  FACET NORMAL -5.87785E-01 -8.09016E-01 +4.11069E-17 
    OUTER LOOP      
      VERTEX   +7.70588E+00 -3.56763E+01 +0.00000E+00 
      VERTEX   +7.70588E+00 -3.56763E+01 +1.27000E+01 
      VERTEX   +2.94338E+00 -3.22161E+01 +1.27000E+01 
    ENDLOOP
  ENDFACET
  FACET NORMAL -9.51056E-01 -3.09016E-01 +0.00000E+00 
    OUTER LOOP      
      VERTEX   +7.70588E+00 -3.56763E+01 +0.00000E+00 
      VERTEX   +9.52500E+00 -4.12750E+01 +0.00000E+00 
      VERTEX   +9.52500E+00 -4.12750E+01 +1.27000E+01 
    ENDLOOP
  ENDFACET
  FACET NORMAL -9.51056E-01 +3.09016E-01 +6.65124E-17 
    OUTER LOOP      
      VERTEX   +9.52500E+00 -4.12750E+01 +0.00000E+00 
      VERTEX   +7.70588E+00 -4.68736E+01 +0.00000E+00 
      VERTEX   +7.70588E+00 -4.68736E+01 +1.27000E+01 
    ENDLOOP
  ENDFACET
  FACET NORMAL -5.87785E-01 +8.09016E-01 +4.11069E-17 
    OUTER LOOP      
      VERTEX   +7.70588E+00 -4.68736E+01 +0.00000E+00 
      VERTEX   +2.94338E+00 -5.03338E+01 +0.00000E+00 
      VERTEX   +2.94338E+00 -5.03338E+01 +1.27000E+01 
    ENDLOOP
  ENDFACET
  FACET NORMAL +0.00000E+00 +1.00000E+00 +0.00000E+00 
    OUTER LOOP      
      VERTEX   +2.94338E+00 -5.03338E+01 +0.00000E+00 
      VERTEX   -2.94338E+00 -5.03338E+01 +0.00000E+00 
      VERTEX   -2.94338E+00 -5.03338E+01 +1.27000E+01 
    ENDLOOP
  ENDFACET
  FACET NORMAL +5.87785E-01 +8.09016E-01 -4.11069E-17 
    OUTER LOOP      
      VERTEX   -2.94338E+00 -5.03338E+01 +0.00000E+00 
      VERTEX   -7.70588E+00 -4.68736E+01 +0.00000E+00 
      VERTEX   -7.70588E+00 -4.68736E+01 +1.27000E+01 
    ENDLOOP
  ENDFACET
  FACET NORMAL +9.51056E-01 +3.09016E-01 +0.00000E+00 
    OUTER LOOP      
      VERTEX   -7.70588E+00 -4.68736E+01 +0.00000E+00 
      VERTEX   -9.52499E+00 -4.12750E+01 +0.00000E+00 
      VERTEX   -9.52499E+00 -4.12750E+01 +1.27000E+01 
    ENDLOOP
  ENDFACET
  FACET NORMAL +9.51056E-01 +3.09016E-01 -6.65124E-17 
    OUTER LOOP      
      VERTEX   -9.52499E+00 -4.12750E+01 +1.27000E+01 
      VERTEX   -7.70588E+00 -4.68736E+01 +1.27000E+01 
      VERTEX   -7.70588E+00 -4.68736E+01 +0.00000E+00 
    ENDLOOP
  ENDFACET
  FACET NORMAL +5.87785E-01 +8.09016E-01 -4.11069E-17 
    OUTER LOOP      
      VERTEX   -7.70588E+00 -4.68736E+01 +1.27000E+01 
      VERTEX   -2.94338E+00 -5.03338E+01 +1.27000E+01 
      VERTEX   -2.94338E+00 -5.03338E+01 +0.00000E+00 
    ENDLOOP
  ENDFACET
  FACET NORMAL +0.00000E+00 +1.00000E+00 +0.00000E+00 
    OUTER LOOP      
      VERTEX   -2.94338E+00 -5.03338E+01 +1.27000E+01 
      VERTEX   +2.94338E+00 -5.03338E+01 +1.27000E+01 
      VERTEX   +2.94338E+00 -5.03338E+01 +0.00000E+00 
    ENDLOOP
  ENDFACET
  FACET NORMAL -5.87785E-01 +8.09016E-01 +4.11069E-17 
    OUTER LOOP      
      VERTEX   +2.94338E+00 -5.03338E+01 +1.27000E+01 
      VERTEX   +7.70588E+00 -4.68736E+01 +1.27000E+01 
      VERTEX   +7.70588E+00 -4.68736E+01 +0.00000E+00 
    ENDLOOP
  ENDFACET
  FACET NORMAL -9.51056E-01 +3.09016E-01 +0.00000E+00 
    OUTER LOOP      
      VERTEX   +7.70588E+00 -4.68736E+01 +1.27000E+01 
      VERTEX   +9.52500E+00 -4.12750E+01 +1.27000E+01 
      VERTEX   +9.52500E+00 -4.12750E+01 +0.00000E+00 
    ENDLOOP
  ENDFACET
  FACET NORMAL -9.51056E-01 -3.09016E-01 +6.65124E-17 
    OUTER LOOP      
      VERTEX   +9.52500E+00 -4.12750E+01 +1.27000E+01 
      VERTEX   +7.70588E+00 -3.56763E+01 +1.27000E+01 
      VERTEX   +7.70588E+00 -3.56763E+01 +0.00000E+00 
    ENDLOOP
  ENDFACET
  FACET NORMAL -5.87785E-01 -8.09016E-01 +4.11069E-17 
    OUTER LOOP      
      VERTEX   +2.94338E+00 -3.22161E+01 +1.27000E+01 
      VERTEX   +2.94338E+00 -3.22161E+01 +0.00000E+00 
      VERTEX   +7.70588E+00 -3.56763E+01 +0.00000E+00 
    ENDLOOP
  ENDFACET
  FACET NORMAL +0.00000E+00 -1.00000E+00 +0.00000E+00 
    OUTER LOOP      
      VERTEX   -2.94338E+00 -3.22161E+01 +1.27000E+01 
      VERTEX   -2.94338E+00 -3.22161E+01 +0.00000E+00 
      VERTEX   +2.94338E+00 -3.22161E+01 +0.00000E+00 
    ENDLOOP
  ENDFACET
  FACET NORMAL +5.87785E-01 -8.09016E-01 -4.11069E-17 
    OUTER LOOP      
      VERTEX   -7.70588E+00 -3.56763E+01 +1.27000E+01 
      VERTEX   -7.70588E+00 -3.56763E+01 +0.00000E+00 
      VERTEX   -2.94338E+00 -3.22161E+01 +0.00000E+00 
    ENDLOOP
  ENDFACET
  FACET NORMAL +9.51056E-01 -3.09016E-01 +0.00000E+00 
    OUTER LOOP      
      VERTEX   -7.70588E+00 -3.56763E+01 +1.27000E+01 
      VERTEX   -9.52499E+00 -4.12750E+01 +1.27000E+01 
      VERTEX   -9.52499E+00 -4.12750E+01 +0.00000E+00 
    ENDLOOP
  ENDFACET
  FACET NORMAL +0.00000E+00 +0.00000E+00 -1.00000E+00 
    OUTER LOOP      
      VERTEX   -1.82497E+01 -5.39594E+01 +0.00000E+00 
      VERTEX   -7.70588E+00 -3.56763E+01 +0.00000E+00 
      VERTEX   -9.52499E+00 -4.12750E+01 +0.00000E+00 
    ENDLOOP
  ENDFACET
  FACET NORMAL +0.00000E+00 +0.00000E+00 -1.00000E+00 
    OUTER LOOP      
      VERTEX   +4.25587E+00 -6.30887E+01 +0.00000E+00 
      VERTEX   -7.70588E+00 -4.68736E+01 +0.00000E+00 
      VERTEX   -2.94338E+00 -5.03338E+01 +0.00000E+00 
    ENDLOOP
  ENDFACET
  FACET NORMAL +0.00000E+00 +0.00000E+00 -1.00000E+00 
    OUTER LOOP      
      VERTEX   -4.25587E+00 -6.30887E+01 +0.00000E+00 
      VERTEX   -9.52499E+00 -4.12750E+01 +0.00000E+00 
      VERTEX   -7.70588E+00 -4.68736E+01 +0.00000E+00 
    ENDLOOP
  ENDFACET
  FACET NORMAL +0.00000E+00 +0.00000E+00 -1.00000E+00 
    OUTER LOOP      
      VERTEX   -9.52499E+00 -4.12750E+01 +0.00000E+00 
      VERTEX   -1.21433E+01 -5.98892E+01 +0.00000E+00 
      VERTEX   -1.82497E+01 -5.39594E+01 +0.00000E+00 
    ENDLOOP
  ENDFACET
  FACET NORMAL +0.00000E+00 +0.00000E+00 -1.00000E+00 
    OUTER LOOP      
      VERTEX   -2.94338E+00 -5.03338E+01 +0.00000E+00 
      VERTEX   +1.21433E+01 -5.98892E+01 +0.00000E+00 
      VERTEX   +4.25587E+00 -6.30887E+01 +0.00000E+00 
    ENDLOOP
  ENDFACET
  FACET NORMAL +0.00000E+00 +0.00000E+00 -1.00000E+00 
    OUTER LOOP      
      VERTEX   -9.52499E+00 -4.12750E+01 +0.00000E+00 
      VERTEX   -4.25587E+00 -6.30887E+01 +0.00000E+00 
      VERTEX   -1.21433E+01 -5.98892E+01 +0.00000E+00 
    ENDLOOP
  ENDFACET
  FACET NORMAL +0.00000E+00 +0.00000E+00 -1.00000E+00 
    OUTER LOOP      
      VERTEX   -7.70588E+00 -4.68736E+01 +0.00000E+00 
      VERTEX   +4.25587E+00 -6.30887E+01 +0.00000E+00 
      VERTEX   -4.25587E+00 -6.30887E+01 +0.00000E+00 
    ENDLOOP
  ENDFACET
  FACET NORMAL +0.00000E+00 +0.00000E+00 -1.00000E+00 
    OUTER LOOP      
      VERTEX   -3.81000E+01 -2.54000E+01 +0.00000E+00 
      VERTEX   -2.94338E+00 -3.22161E+01 +0.00000E+00 
      VERTEX   -7.70588E+00 -3.56763E+01 +0.00000E+00 
    ENDLOOP
  ENDFACET
  FACET NORMAL +0.00000E+00 +0.00000E+00 -1.00000E-00 
    OUTER LOOP      
      VERTEX   +1.82497E+01 -5.39594E+01 +0.00000E+00 
      VERTEX   -2.94338E+00 -5.03338E+01 +0.00000E+00 
      VERTEX   +2.94338E+00 -5.03338E+01 +0.00000E+00 
    ENDLOOP
  ENDFACET
  FACET NORMAL +0.00000E+00 +0.00000E+00 -1.00000E+00 
    OUTER LOOP      
      VERTEX   -7.70588E+00 -3.56763E+01 +0.00000E+00 
      VERTEX   -1.82497E+01 -5.39594E+01 +0.00000E+00 
      VERTEX   -3.81000E+01 -2.54000E+01 +0.00000E+00 
    ENDLOOP
  ENDFACET
  FACET NORMAL +0.00000E+00 +0.00000E+00 -1.00000E+00 
    OUTER LOOP      
      VERTEX   +3.81000E+01 -2.54000E+01 +0.00000E+00 
      VERTEX   +7.70588E+00 -4.68736E+01 +0.00000E+00 
      VERTEX   +9.52500E+00 -4.12750E+01 +0.00000E+00 
    ENDLOOP
  ENDFACET
  FACET NORMAL +0.00000E+00 +0.00000E+00 -1.00000E+00 
    OUTER LOOP      
      VERTEX   -2.94338E+00 -5.03338E+01 +0.00000E+00 
      VERTEX   +1.82497E+01 -5.39594E+01 +0.00000E+00 
      VERTEX   +1.21433E+01 -5.98892E+01 +0.00000E+00 
    ENDLOOP
  ENDFACET
  FACET NORMAL +0.00000E+00 +0.00000E+00 -1.00000E+00 
    OUTER LOOP      
      VERTEX   +3.81000E+01 -2.54000E+01 +0.00000E+00 
      VERTEX   +2.94338E+00 -3.22161E+01 +0.00000E+00 
      VERTEX   -2.94338E+00 -3.22161E+01 +0.00000E+00 
    ENDLOOP
  ENDFACET
  FACET NORMAL +0.00000E+00 +0.00000E+00 -1.00000E+00 
    OUTER LOOP      
      VERTEX   +9.52500E+00 -4.12750E+01 +0.00000E+00 
      VERTEX   +7.70588E+00 -3.56763E+01 +0.00000E+00 
      VERTEX   +3.81000E+01 -2.54000E+01 +0.00000E+00 
    ENDLOOP
  ENDFACET
  FACET NORMAL +0.00000E+00 +0.00000E+00 -1.00000E+00 
    OUTER LOOP      
      VERTEX   -2.94338E+00 -3.22161E+01 +0.00000E+00 
      VERTEX   -3.81000E+01 -2.54000E+01 +0.00000E+00 
      VERTEX   +3.81000E+01 -2.54000E+01 +0.00000E+00 
    ENDLOOP
  ENDFACET
  FACET NORMAL +0.00000E+00 +0.00000E+00 -1.00000E-00 
    OUTER LOOP      
      VERTEX   +3.81000E+01 -2.54000E+01 +0.00000E+00 
      VERTEX   +2.94338E+00 -5.03338E+01 +0.00000E+00 
      VERTEX   +7.70588E+00 -4.68736E+01 +0.00000E+00 
    ENDLOOP
  ENDFACET
  FACET NORMAL +0.00000E+00 +0.00000E+00 -1.00000E+00 
    OUTER LOOP      
      VERTEX   +7.70588E+00 -3.56763E+01 +0.00000E+00 
      VERTEX   +2.94338E+00 -3.22161E+01 +0.00000E+00 
      VERTEX   +3.81000E+01 -2.54000E+01 +0.00000E+00 
    ENDLOOP
  ENDFACET
  FACET NORMAL +0.00000E+00 +0.00000E+00 -1.00000E+00 
    OUTER LOOP      
      VERTEX   +2.94338E+00 -5.03338E+01 +0.00000E+00 
      VERTEX   +3.81000E+01 -2.54000E+01 +0.00000E+00 
      VERTEX   +1.82497E+01 -5.39594E+01 +0.00000E+00 
    ENDLOOP
  ENDFACET
  FACET NORMAL -1.00000E-00 -2.01341E-16 +4.36539E-16 
    OUTER LOOP      
      VERTEX   -3.81000E+01 -2.54000E+01 +1.27000E+01 
      VERTEX   -3.81000E+01 +1.76451E+01 +0.00000E+00 
      VERTEX   -3.81000E+01 -1.76451E+01 +0.00000E+00 
    ENDLOOP
  ENDFACET
  FACET NORMAL -1.00000E+00 +0.00000E+00 +0.00000E+00 
    OUTER LOOP      
      VERTEX   -3.81000E+01 +2.54000E+01 +1.27000E+01 
      VERTEX   -3.81000E+01 +2.54000E+01 +0.00000E+00 
      VERTEX   -3.81000E+01 +1.76451E+01 +0.00000E+00 
    ENDLOOP
  ENDFACET
  FACET NORMAL -1.00000E+00 -2.79741E-16 +1.70814E-16 
    OUTER LOOP      
      VERTEX   -3.81000E+01 +1.76451E+01 +0.00000E+00 
      VERTEX   -3.81000E+01 -2.54000E+01 +1.27000E+01 
      VERTEX   -3.81000E+01 +2.54000E+01 +1.27000E+01 
    ENDLOOP
  ENDFACET
  FACET NORMAL -1.00000E-00 -9.16259E-16 +0.00000E+00 
    OUTER LOOP      
      VERTEX   -3.81000E+01 -1.76451E+01 +0.00000E+00 
      VERTEX   -3.81000E+01 -2.54000E+01 +0.00000E+00 
      VERTEX   -3.81000E+01 -2.54000E+01 +1.27000E+01 
    ENDLOOP
  ENDFACET
  FACET NORMAL +0.00000E+00 -1.00000E+00 +0.00000E+00 
    OUTER LOOP      
      VERTEX   +3.81000E+01 -2.54000E+01 +0.00000E+00 
      VERTEX   -3.81000E+01 -2.54000E+01 +0.00000E+00 
      VERTEX   -9.16543E+00 -2.54000E+01 -5.01161E+01 
    ENDLOOP
  ENDFACET
  FACET NORMAL +0.00000E+00 -1.00000E+00 +0.00000E+00 
    OUTER LOOP      
      VERTEX   -9.16543E+00 -2.54000E+01 -5.01161E+01 
      VERTEX   -2.22250E+01 -2.54000E+01 -1.04485E+02 
      VERTEX   +3.81000E+01 -2.54000E+01 +0.00000E+00 
    ENDLOOP
  ENDFACET
  FACET NORMAL +0.00000E+00 -1.00000E+00 +0.00000E+00 
    OUTER LOOP      
      VERTEX   -9.16543E+00 -2.54000E+01 -5.01161E+01 
      VERTEX   -3.59731E+01 -2.54000E+01 -9.65484E+01 
      VERTEX   -2.22250E+01 -2.54000E+01 -1.04485E+02 
    ENDLOOP
  ENDFACET
  FACET NORMAL +0.00000E+00 +1.00000E+00 +0.00000E+00 
    OUTER LOOP      
      VERTEX   -2.22250E+01 +2.54000E+01 -1.04485E+02 
      VERTEX   -3.59731E+01 +2.54000E+01 -9.65484E+01 
      VERTEX   -9.16543E+00 +2.54000E+01 -5.01161E+01 
    ENDLOOP
  ENDFACET
  FACET NORMAL +0.00000E+00 +1.00000E+00 +0.00000E+00 
    OUTER LOOP      
      VERTEX   -9.16543E+00 +2.54000E+01 -5.01161E+01 
      VERTEX   +3.81000E+01 +2.54000E+01 +0.00000E+00 
      VERTEX   -2.22250E+01 +2.54000E+01 -1.04485E+02 
    ENDLOOP
  ENDFACET
  FACET NORMAL +0.00000E+00 +1.00000E-00 +0.00000E+00 
    OUTER LOOP      
      VERTEX   -9.16543E+00 +2.54000E+01 -5.01161E+01 
      VERTEX   -3.81000E+01 +2.54000E+01 +0.00000E+00 
      VERTEX   +3.81000E+01 +2.54000E+01 +0.00000E+00 
    ENDLOOP
  ENDFACET
  FACET NORMAL -9.75451E-02 +9.80785E-01 -1.68953E-01 
    OUTER LOOP      
      VERTEX   -2.70850E+01 +2.34665E+01 -1.12903E+02 
      VERTEX   -4.08332E+01 +2.34665E+01 -1.04966E+02 
      VERTEX   -3.59731E+01 +2.54000E+01 -9.65484E+01 
    ENDLOOP
  ENDFACET
  FACET NORMAL -2.77785E-01 +8.31469E-01 -4.81137E-01 
    OUTER LOOP      
      VERTEX   -2.70850E+01 +2.34665E+01 -1.12903E+02 
      VERTEX   -3.12052E+01 +1.79605E+01 -1.20040E+02 
      VERTEX   -4.49534E+01 +1.79605E+01 -1.12102E+02 
    ENDLOOP
  ENDFACET
  FACET NORMAL -4.15734E-01 +5.55570E-01 -7.20073E-01 
    OUTER LOOP      
      VERTEX   -3.12052E+01 +1.79605E+01 -1.20040E+02 
      VERTEX   -3.39582E+01 +9.72015E+00 -1.24808E+02 
      VERTEX   -4.77064E+01 +9.72015E+00 -1.16871E+02 
    ENDLOOP
  ENDFACET
  FACET NORMAL -4.90392E-01 +1.95090E-01 -8.49384E-01 
    OUTER LOOP      
      VERTEX   -3.49250E+01 +0.00000E+00 -1.26483E+02 
      VERTEX   -4.86731E+01 +0.00000E+00 -1.18545E+02 
      VERTEX   -4.77064E+01 +9.72015E+00 -1.16871E+02 
    ENDLOOP
  ENDFACET
  FACET NORMAL -4.90392E-01 -1.95090E-01 -8.49384E-01 
    OUTER LOOP      
      VERTEX   -3.49250E+01 +0.00000E+00 -1.26483E+02 
      VERTEX   -3.39582E+01 -9.72015E+00 -1.24808E+02 
      VERTEX   -4.77064E+01 -9.72015E+00 -1.16871E+02 
    ENDLOOP
  ENDFACET
  FACET NORMAL -4.15734E-01 -5.55570E-01 -7.20073E-01 
    OUTER LOOP      
      VERTEX   -3.12052E+01 -1.79605E+01 -1.20040E+02 
      VERTEX   -4.49534E+01 -1.79605E+01 -1.12102E+02 
      VERTEX   -4.77064E+01 -9.72015E+00 -1.16871E+02 
    ENDLOOP
  ENDFACET
  FACET NORMAL -2.77785E-01 -8.31469E-01 -4.81137E-01 
    OUTER LOOP      
      VERTEX   -3.12052E+01 -1.79605E+01 -1.20040E+02 
      VERTEX   -2.70850E+01 -2.34665E+01 -1.12903E+02 
      VERTEX   -4.08332E+01 -2.34665E+01 -1.04966E+02 
    ENDLOOP
  ENDFACET
  FACET NORMAL -9.75451E-02 -9.80785E-01 -1.68953E-01 
    OUTER LOOP      
      VERTEX   -2.22250E+01 -2.54000E+01 -1.04485E+02 
      VERTEX   -3.59731E+01 -2.54000E+01 -9.65484E+01 
      VERTEX   -4.08332E+01 -2.34665E+01 -1.04966E+02 
    ENDLOOP
  ENDFACET
  FACET NORMAL -9.75451E-02 -9.80785E-01 -1.68953E-01 
    OUTER LOOP      
      VERTEX   -4.08332E+01 -2.34665E+01 -1.04966E+02 
      VERTEX   -2.70850E+01 -2.34665E+01 -1.12903E+02 
      VERTEX   -2.22250E+01 -2.54000E+01 -1.04485E+02 
    ENDLOOP
  ENDFACET
  FACET NORMAL -2.77785E-01 -8.31469E-01 -4.81137E-01 
    OUTER LOOP      
      VERTEX   -4.08332E+01 -2.34665E+01 -1.04966E+02 
      VERTEX   -4.49534E+01 -1.79605E+01 -1.12102E+02 
      VERTEX   -3.12052E+01 -1.79605E+01 -1.20040E+02 
    ENDLOOP
  ENDFACET
  FACET NORMAL -4.15734E-01 -5.55570E-01 -7.20073E-01 
    OUTER LOOP      
      VERTEX   -4.77064E+01 -9.72015E+00 -1.16871E+02 
      VERTEX   -3.39582E+01 -9.72015E+00 -1.24808E+02 
      VERTEX   -3.12052E+01 -1.79605E+01 -1.20040E+02 
    ENDLOOP
  ENDFACET
  FACET NORMAL -4.90392E-01 -1.95090E-01 -8.49384E-01 
    OUTER LOOP      
      VERTEX   -4.77064E+01 -9.72015E+00 -1.16871E+02 
      VERTEX   -4.86731E+01 +0.00000E+00 -1.18545E+02 
      VERTEX   -3.49250E+01 +0.00000E+00 -1.26483E+02 
    ENDLOOP
  ENDFACET
  FACET NORMAL -4.90392E-01 +1.95090E-01 -8.49384E-01 
    OUTER LOOP      
      VERTEX   -4.77064E+01 +9.72015E+00 -1.16871E+02 
      VERTEX   -3.39582E+01 +9.72015E+00 -1.24808E+02 
      VERTEX   -3.49250E+01 +0.00000E+00 -1.26483E+02 
    ENDLOOP
  ENDFACET
  FACET NORMAL -4.15734E-01 +5.55570E-01 -7.20073E-01 
    OUTER LOOP      
      VERTEX   -4.77064E+01 +9.72015E+00 -1.16871E+02 
      VERTEX   -4.49534E+01 +1.79605E+01 -1.12102E+02 
      VERTEX   -3.12052E+01 +1.79605E+01 -1.20040E+02 
    ENDLOOP
  ENDFACET
  FACET NORMAL -2.77785E-01 +8.31469E-01 -4.81137E-01 
    OUTER LOOP      
      VERTEX   -4.49534E+01 +1.79605E+01 -1.12102E+02 
      VERTEX   -4.08332E+01 +2.34665E+01 -1.04966E+02 
      VERTEX   -2.70850E+01 +2.34665E+01 -1.12903E+02 
    ENDLOOP
  ENDFACET
  FACET NORMAL -9.75451E-02 +9.80785E-01 -1.68953E-01 
    OUTER LOOP      
      VERTEX   -3.59731E+01 +2.54000E+01 -9.65484E+01 
      VERTEX   -2.22250E+01 +2.54000E+01 -1.04485E+02 
      VERTEX   -2.70850E+01 +2.34665E+01 -1.12903E+02 
    ENDLOOP
  ENDFACET
  FACET NORMAL -8.66025E-01 +0.00000E+00 -5.00000E-01 
    OUTER LOOP      
      VERTEX   -3.81000E+01 +1.76451E+01 +0.00000E+00 
      VERTEX   -3.81000E+01 +2.54000E+01 +0.00000E+00 
      VERTEX   -9.16543E+00 +2.54000E+01 -5.01161E+01 
    ENDLOOP
  ENDFACET
  FACET NORMAL -8.66025E-01 +0.00000E+00 -5.00000E-01 
    OUTER LOOP      
      VERTEX   -9.16543E+00 +2.54000E+01 -5.01161E+01 
      VERTEX   -9.16543E+00 +1.76451E+01 -5.01161E+01 
      VERTEX   -3.81000E+01 +1.76451E+01 +0.00000E+00 
    ENDLOOP
  ENDFACET
  FACET NORMAL +0.00000E+00 -1.00000E-00 +0.00000E+00 
    OUTER LOOP      
      VERTEX   -9.16543E+00 +1.76451E+01 -5.01161E+01 
      VERTEX   +1.97691E+01 +1.76451E+01 +0.00000E+00 
      VERTEX   -3.81000E+01 +1.76451E+01 +0.00000E+00 
    ENDLOOP
  ENDFACET
  FACET NORMAL -8.66025E-01 +0.00000E+00 -5.00000E-01 
    OUTER LOOP      
      VERTEX   -3.81000E+01 -1.76451E+01 +0.00000E+00 
      VERTEX   -9.16543E+00 -1.76451E+01 -5.01161E+01 
      VERTEX   -9.16543E+00 -2.54000E+01 -5.01161E+01 
    ENDLOOP
  ENDFACET
  FACET NORMAL -8.66025E-01 +0.00000E+00 -5.00000E-01 
    OUTER LOOP      
      VERTEX   -9.16543E+00 -2.54000E+01 -5.01161E+01 
      VERTEX   -3.81000E+01 -2.54000E+01 +0.00000E+00 
      VERTEX   -3.81000E+01 -1.76451E+01 +0.00000E+00 
    ENDLOOP
  ENDFACET
  FACET NORMAL +0.00000E+00 +0.00000E+00 -1.00000E+00 
    OUTER LOOP      
      VERTEX   +1.97691E+01 +1.76451E+01 +0.00000E+00 
      VERTEX   +1.97691E+01 -1.76451E+01 +0.00000E+00 
      VERTEX   -3.81000E+01 -1.76451E+01 +0.00000E+00 
    ENDLOOP
  ENDFACET
  FACET NORMAL +0.00000E+00 +0.00000E+00 -1.00000E-00 
    OUTER LOOP      
      VERTEX   -3.81000E+01 -1.76451E+01 +0.00000E+00 
      VERTEX   -3.81000E+01 +1.76451E+01 +0.00000E+00 
      VERTEX   +1.97691E+01 +1.76451E+01 +0.00000E+00 
    ENDLOOP
  ENDFACET
  FACET NORMAL +0.00000E+00 +1.00000E-00 +0.00000E+00 
    OUTER LOOP      
      VERTEX   -3.81000E+01 -1.76451E+01 +0.00000E+00 
      VERTEX   +1.97691E+01 -1.76451E+01 +0.00000E+00 
      VERTEX   -9.16543E+00 -1.76451E+01 -5.01161E+01 
    ENDLOOP
  ENDFACET
  FACET NORMAL -8.66025E-01 -7.79512E-11 +5.00000E-01 
    OUTER LOOP      
      VERTEX   -2.55260E+01 +1.70156E+01 -7.84534E+01 
      VERTEX   +1.97691E+01 +1.76451E+01 +0.00000E+00 
      VERTEX   -9.16543E+00 +1.76451E+01 -5.01161E+01 
    ENDLOOP
  ENDFACET
  FACET NORMAL -8.66025E-01 +0.00000E+00 +5.00000E-01 
    OUTER LOOP      
      VERTEX   -3.59731E+01 +2.54000E+01 -9.65484E+01 
      VERTEX   -3.59731E+01 +1.88859E+01 -9.65484E+01 
      VERTEX   -2.96231E+01 +1.88859E+01 -8.55499E+01 
    ENDLOOP
  ENDFACET
  FACET NORMAL -8.66025E-01 -1.71326E-15 +5.00000E-01 
    OUTER LOOP      
      VERTEX   -9.16543E+00 +1.76451E+01 -5.01161E+01 
      VERTEX   -2.96231E+01 +1.88859E+01 -8.55499E+01 
      VERTEX   -2.55260E+01 +1.70156E+01 -7.84534E+01 
    ENDLOOP
  ENDFACET
  FACET NORMAL -8.66025E-01 +0.00000E+00 +5.00000E-01 
    OUTER LOOP      
      VERTEX   -3.59731E+01 +2.54000E+01 -9.65484E+01 
      VERTEX   -4.00703E+01 +1.70156E+01 -1.03644E+02 
      VERTEX   -3.59731E+01 +1.88859E+01 -9.65484E+01 
    ENDLOOP
  ENDFACET
  FACET NORMAL -8.66025E-01 +0.00000E+00 +5.00000E-01 
    OUTER LOOP      
      VERTEX   -2.96231E+01 +1.88859E+01 -8.55499E+01 
      VERTEX   -9.16543E+00 +1.76451E+01 -5.01161E+01 
      VERTEX   -3.59731E+01 +2.54000E+01 -9.65484E+01 
    ENDLOOP
  ENDFACET
  FACET NORMAL -8.66025E-01 +0.00000E+00 +5.00000E-01 
    OUTER LOOP      
      VERTEX   -2.55260E+01 +1.70156E+01 -7.84534E+01 
      VERTEX   +1.97691E+01 -1.76451E+01 +0.00000E+00 
      VERTEX   +1.97691E+01 +1.76451E+01 +0.00000E+00 
    ENDLOOP
  ENDFACET
  FACET NORMAL -8.66025E-01 +2.73197E-15 +5.00000E-01 
    OUTER LOOP      
      VERTEX   -4.49534E+01 -1.79605E+01 -1.12102E+02 
      VERTEX   -3.59731E+01 -1.88859E+01 -9.65484E+01 
      VERTEX   -4.00703E+01 -1.70156E+01 -1.03644E+02 
    ENDLOOP
  ENDFACET
  FACET NORMAL -8.66025E-01 -1.95425E-15 +5.00000E-01 
    OUTER LOOP      
      VERTEX   -4.08332E+01 -2.34665E+01 -1.04966E+02 
      VERTEX   -2.96231E+01 -1.88859E+01 -8.55499E+01 
      VERTEX   -3.59731E+01 -1.88859E+01 -9.65484E+01 
    ENDLOOP
  ENDFACET
  FACET NORMAL -8.66025E-01 -5.84588E-15 +5.00000E-01 
    OUTER LOOP      
      VERTEX   -3.59731E+01 +2.54000E+01 -9.65484E+01 
      VERTEX   -4.33559E+01 +1.17751E+01 -1.09335E+02 
      VERTEX   -4.00703E+01 +1.70156E+01 -1.03644E+02 
    ENDLOOP
  ENDFACET
  FACET NORMAL -8.66025E-01 +1.20332E-15 +5.00000E-01 
    OUTER LOOP      
      VERTEX   -4.08332E+01 +2.34665E+01 -1.04966E+02 
      VERTEX   -4.51793E+01 +4.20251E+00 -1.12494E+02 
      VERTEX   -4.33559E+01 +1.17751E+01 -1.09335E+02 
    ENDLOOP
  ENDFACET
  FACET NORMAL -8.66025E-01 +0.00000E+00 +5.00000E-01 
    OUTER LOOP      
      VERTEX   -4.77064E+01 +9.72015E+00 -1.16871E+02 
      VERTEX   -4.51793E+01 -4.20251E+00 -1.12494E+02 
      VERTEX   -4.51793E+01 +4.20251E+00 -1.12494E+02 
    ENDLOOP
  ENDFACET
  FACET NORMAL -8.66025E-01 -1.32320E-15 +5.00000E-01 
    OUTER LOOP      
      VERTEX   -4.86731E+01 +0.00000E+00 -1.18545E+02 
      VERTEX   -4.33559E+01 -1.17751E+01 -1.09335E+02 
      VERTEX   -4.51793E+01 -4.20251E+00 -1.12494E+02 
    ENDLOOP
  ENDFACET
  FACET NORMAL -8.66025E-01 -1.77123E-15 +5.00000E-01 
    OUTER LOOP      
      VERTEX   -4.77064E+01 -9.72015E+00 -1.16871E+02 
      VERTEX   -4.00703E+01 -1.70156E+01 -1.03644E+02 
      VERTEX   -4.33559E+01 -1.17751E+01 -1.09335E+02 
    ENDLOOP
  ENDFACET
  FACET NORMAL -8.66025E-01 -6.22836E-16 +5.00000E-01 
    OUTER LOOP      
      VERTEX   -3.59731E+01 -1.88859E+01 -9.65484E+01 
      VERTEX   -4.49534E+01 -1.79605E+01 -1.12102E+02 
      VERTEX   -4.08332E+01 -2.34665E+01 -1.04966E+02 
    ENDLOOP
  ENDFACET
  FACET NORMAL -8.66025E-01 +2.87809E-15 +5.00000E-01 
    OUTER LOOP      
      VERTEX   -3.59731E+01 -2.54000E+01 -9.65484E+01 
      VERTEX   -2.55260E+01 -1.70156E+01 -7.84534E+01 
      VERTEX   -2.96231E+01 -1.88859E+01 -8.55499E+01 
    ENDLOOP
  ENDFACET
  FACET NORMAL -8.66025E-01 +9.57542E-16 +5.00000E-01 
    OUTER LOOP      
      VERTEX   -4.33559E+01 +1.17751E+01 -1.09335E+02 
      VERTEX   -3.59731E+01 +2.54000E+01 -9.65484E+01 
      VERTEX   -4.08332E+01 +2.34665E+01 -1.04966E+02 
    ENDLOOP
  ENDFACET
  FACET NORMAL -8.66025E-01 +4.93239E-16 +5.00000E-01 
    OUTER LOOP      
      VERTEX   -4.51793E+01 +4.20251E+00 -1.12494E+02 
      VERTEX   -4.49534E+01 +1.79605E+01 -1.12102E+02 
      VERTEX   -4.77064E+01 +9.72015E+00 -1.16871E+02 
    ENDLOOP
  ENDFACET
  FACET NORMAL -8.66025E-01 +0.00000E+00 +5.00000E-01 
    OUTER LOOP      
      VERTEX   -4.33559E+01 -1.17751E+01 -1.09335E+02 
      VERTEX   -4.86731E+01 +0.00000E+00 -1.18545E+02 
      VERTEX   -4.77064E+01 -9.72015E+00 -1.16871E+02 
    ENDLOOP
  ENDFACET
  FACET NORMAL -8.66025E-01 -3.23441E-16 +5.00000E-01 
    OUTER LOOP      
      VERTEX   -2.96231E+01 -1.88859E+01 -8.55499E+01 
      VERTEX   -4.08332E+01 -2.34665E+01 -1.04966E+02 
      VERTEX   -3.59731E+01 -2.54000E+01 -9.65484E+01 
    ENDLOOP
  ENDFACET
  FACET NORMAL -8.66025E-01 +4.80604E-16 +5.00000E-01 
    OUTER LOOP      
      VERTEX   -4.51793E+01 +4.20251E+00 -1.12494E+02 
      VERTEX   -4.08332E+01 +2.34665E+01 -1.04966E+02 
      VERTEX   -4.49534E+01 +1.79605E+01 -1.12102E+02 
    ENDLOOP
  ENDFACET
  FACET NORMAL -8.66025E-01 +3.31720E-16 +5.00000E-01 
    OUTER LOOP      
      VERTEX   -4.00703E+01 -1.70156E+01 -1.03644E+02 
      VERTEX   -4.77064E+01 -9.72015E+00 -1.16871E+02 
      VERTEX   -4.49534E+01 -1.79605E+01 -1.12102E+02 
    ENDLOOP
  ENDFACET
  FACET NORMAL -8.66025E-01 -3.76330E-16 +5.00000E-01 
    OUTER LOOP      
      VERTEX   -9.16543E+00 -2.54000E+01 -5.01161E+01 
      VERTEX   -2.22403E+01 -1.17751E+01 -7.27625E+01 
      VERTEX   -2.55260E+01 -1.70156E+01 -7.84534E+01 
    ENDLOOP
  ENDFACET
  FACET NORMAL -8.66025E-01 +0.00000E+00 +5.00000E-01 
    OUTER LOOP      
      VERTEX   -2.22403E+01 -1.17751E+01 -7.27625E+01 
      VERTEX   -9.16543E+00 -2.54000E+01 -5.01161E+01 
      VERTEX   -9.16543E+00 -1.76451E+01 -5.01161E+01 
    ENDLOOP
  ENDFACET
  FACET NORMAL -8.66025E-01 +1.16795E-16 +5.00000E-01 
    OUTER LOOP      
      VERTEX   -4.51793E+01 -4.20251E+00 -1.12494E+02 
      VERTEX   -4.77064E+01 +9.72015E+00 -1.16871E+02 
      VERTEX   -4.86731E+01 +0.00000E+00 -1.18545E+02 
    ENDLOOP
  ENDFACET
  FACET NORMAL -8.66025E-01 +4.20955E-16 +5.00000E-01 
    OUTER LOOP      
      VERTEX   -9.16543E+00 -1.76451E+01 -5.01161E+01 
      VERTEX   -2.04169E+01 -4.20251E+00 -6.96043E+01 
      VERTEX   -2.22403E+01 -1.17751E+01 -7.27625E+01 
    ENDLOOP
  ENDFACET
  FACET NORMAL -8.66025E-01 +5.98677E-13 +5.00000E-01 
    OUTER LOOP      
      VERTEX   +1.97691E+01 -1.76451E+01 +0.00000E+00 
      VERTEX   -2.22403E+01 +1.17751E+01 -7.27625E+01 
      VERTEX   -2.04169E+01 +4.20251E+00 -6.96043E+01 
    ENDLOOP
  ENDFACET
  FACET NORMAL -8.66025E-01 -6.32251E-16 +5.00000E-01 
    OUTER LOOP      
      VERTEX   -2.55260E+01 -1.70156E+01 -7.84534E+01 
      VERTEX   -3.59731E+01 -2.54000E+01 -9.65484E+01 
      VERTEX   -9.16543E+00 -2.54000E+01 -5.01161E+01 
    ENDLOOP
  ENDFACET
  FACET NORMAL -8.66025E-01 +2.31179E-12 +5.00000E-01 
    OUTER LOOP      
      VERTEX   -2.55260E+01 +1.70156E+01 -7.84534E+01 
      VERTEX   -2.22403E+01 +1.17751E+01 -7.27625E+01 
      VERTEX   +1.97691E+01 -1.76451E+01 +0.00000E+00 
    ENDLOOP
  ENDFACET
  FACET NORMAL -8.66025E-01 -7.32119E-16 +5.00000E-01 
    OUTER LOOP      
      VERTEX   -2.04169E+01 +4.20251E+00 -6.96043E+01 
      VERTEX   -2.04169E+01 -4.20251E+00 -6.96043E+01 
      VERTEX   +1.97691E+01 -1.76451E+01 +0.00000E+00 
    ENDLOOP
  ENDFACET
  FACET NORMAL -8.66025E-01 +0.00000E+00 +5.00000E-01 
    OUTER LOOP      
      VERTEX   -9.16543E+00 +1.76451E+01 -5.01161E+01 
      VERTEX   -9.16543E+00 +2.54000E+01 -5.01161E+01 
      VERTEX   -3.59731E+01 +2.54000E+01 -9.65484E+01 
    ENDLOOP
  ENDFACET
  FACET NORMAL -8.66025E-01 +2.51102E-12 +5.00000E-01 
    OUTER LOOP      
      VERTEX   -9.16543E+00 -1.76451E+01 -5.01161E+01 
      VERTEX   +1.97691E+01 -1.76451E+01 +0.00000E+00 
      VERTEX   -2.04169E+01 -4.20251E+00 -6.96043E+01 
    ENDLOOP
  ENDFACET
  FACET NORMAL +8.66025E-01 +1.36598E-15 -5.00000E-01 
    OUTER LOOP      
      VERTEX   -3.12052E+01 +1.79605E+01 -1.20040E+02 
      VERTEX   -2.22250E+01 +1.88859E+01 -1.04485E+02 
      VERTEX   -2.63221E+01 +1.70156E+01 -1.11582E+02 
    ENDLOOP
  ENDFACET
  FACET NORMAL +8.66025E-01 -4.88564E-16 -5.00000E-01 
    OUTER LOOP      
      VERTEX   -2.70850E+01 +2.34665E+01 -1.12903E+02 
      VERTEX   -1.58750E+01 +1.88859E+01 -9.34874E+01 
      VERTEX   -2.22250E+01 +1.88859E+01 -1.04485E+02 
    ENDLOOP
  ENDFACET
  FACET NORMAL +8.66025E-01 -1.99671E-16 -5.00000E-01 
    OUTER LOOP      
      VERTEX   -2.22250E+01 -2.54000E+01 -1.04485E+02 
      VERTEX   -2.63221E+01 -1.70156E+01 -1.11582E+02 
      VERTEX   -2.22250E+01 -1.88859E+01 -1.04485E+02 
    ENDLOOP
  ENDFACET
  FACET NORMAL +8.66025E-01 -7.78545E-16 -5.00000E-01 
    OUTER LOOP      
      VERTEX   -2.22250E+01 +1.88859E+01 -1.04485E+02 
      VERTEX   -3.12052E+01 +1.79605E+01 -1.20040E+02 
      VERTEX   -2.70850E+01 +2.34665E+01 -1.12903E+02 
    ENDLOOP
  ENDFACET
  FACET NORMAL +8.66025E-01 -4.79682E-16 -5.00000E-01 
    OUTER LOOP      
      VERTEX   -2.22250E+01 +2.54000E+01 -1.04485E+02 
      VERTEX   -1.17778E+01 +1.70156E+01 -8.63909E+01 
      VERTEX   -1.58750E+01 +1.88859E+01 -9.34874E+01 
    ENDLOOP
  ENDFACET
  FACET NORMAL +8.66025E-01 +2.77941E-12 -5.00000E-01 
    OUTER LOOP      
      VERTEX   +3.81000E+01 -2.54000E+01 +0.00000E+00 
      VERTEX   -1.58750E+01 -1.88859E+01 -9.34874E+01 
      VERTEX   -1.17778E+01 -1.70156E+01 -8.63909E+01 
    ENDLOOP
  ENDFACET
  FACET NORMAL +8.66025E-01 +0.00000E+00 -5.00000E-01 
    OUTER LOOP      
      VERTEX   -2.22250E+01 -1.88859E+01 -1.04485E+02 
      VERTEX   +3.81000E+01 -2.54000E+01 +0.00000E+00 
      VERTEX   -2.22250E+01 -2.54000E+01 -1.04485E+02 
    ENDLOOP
  ENDFACET
  FACET NORMAL +8.66025E-01 +0.00000E+00 -5.00000E-01 
    OUTER LOOP      
      VERTEX   -3.49250E+01 +0.00000E+00 -1.26483E+02 
      VERTEX   -3.14312E+01 +4.20251E+00 -1.20431E+02 
      VERTEX   -3.14312E+01 -4.20251E+00 -1.20431E+02 
    ENDLOOP
  ENDFACET
  FACET NORMAL +8.66025E-01 -6.64211E-16 -5.00000E-01 
    OUTER LOOP      
      VERTEX   -3.39582E+01 +9.72015E+00 -1.24808E+02 
      VERTEX   -2.63221E+01 +1.70156E+01 -1.11582E+02 
      VERTEX   -2.96078E+01 +1.17751E+01 -1.17273E+02 
    ENDLOOP
  ENDFACET
  FACET NORMAL +8.66025E-01 +4.85162E-16 -5.00000E-01 
    OUTER LOOP      
      VERTEX   -1.58750E+01 +1.88859E+01 -9.34874E+01 
      VERTEX   -2.70850E+01 +2.34665E+01 -1.12903E+02 
      VERTEX   -2.22250E+01 +2.54000E+01 -1.04485E+02 
    ENDLOOP
  ENDFACET
  FACET NORMAL +8.66025E-01 +2.33138E-12 -5.00000E-01 
    OUTER LOOP      
      VERTEX   +3.81000E+01 +2.54000E+01 +0.00000E+00 
      VERTEX   -1.17778E+01 -1.70156E+01 -8.63909E+01 
      VERTEX   -8.49219E+00 -1.17751E+01 -8.07000E+01 
    ENDLOOP
  ENDFACET
  FACET NORMAL +8.66025E-01 +1.32886E-11 -5.00000E-01 
    OUTER LOOP      
      VERTEX   -2.22250E+01 -1.88859E+01 -1.04485E+02 
      VERTEX   -1.58750E+01 -1.88859E+01 -9.34874E+01 
      VERTEX   +3.81000E+01 -2.54000E+01 +0.00000E+00 
    ENDLOOP
  ENDFACET
  FACET NORMAL +8.66025E-01 -1.20332E-15 -5.00000E-01 
    OUTER LOOP      
      VERTEX   -2.70850E+01 -2.34665E+01 -1.12903E+02 
      VERTEX   -3.14312E+01 -4.20251E+00 -1.20431E+02 
      VERTEX   -2.96078E+01 -1.17751E+01 -1.17273E+02 
    ENDLOOP
  ENDFACET
  FACET NORMAL +8.66025E-01 +6.38709E-16 -5.00000E-01 
    OUTER LOOP      
      VERTEX   -3.14312E+01 -4.20251E+00 -1.20431E+02 
      VERTEX   -3.39582E+01 -9.72015E+00 -1.24808E+02 
      VERTEX   -3.49250E+01 +0.00000E+00 -1.26483E+02 
    ENDLOOP
  ENDFACET
  FACET NORMAL +8.66025E-01 +4.14650E-16 -5.00000E-01 
    OUTER LOOP      
      VERTEX   -2.63221E+01 +1.70156E+01 -1.11582E+02 
      VERTEX   -3.39582E+01 +9.72015E+00 -1.24808E+02 
      VERTEX   -3.12052E+01 +1.79605E+01 -1.20040E+02 
    ENDLOOP
  ENDFACET
  FACET NORMAL +8.66025E-01 -9.84670E-13 -5.00000E-01 
    OUTER LOOP      
      VERTEX   +3.81000E+01 +2.54000E+01 +0.00000E+00 
      VERTEX   -8.49219E+00 +1.17751E+01 -8.07000E+01 
      VERTEX   -1.17778E+01 +1.70156E+01 -8.63909E+01 
    ENDLOOP
  ENDFACET
  FACET NORMAL +8.66025E-01 -2.42263E-16 -5.00000E-01 
    OUTER LOOP      
      VERTEX   -1.17778E+01 -1.70156E+01 -8.63909E+01 
      VERTEX   +3.81000E+01 +2.54000E+01 +0.00000E+00 
      VERTEX   +3.81000E+01 -2.54000E+01 +0.00000E+00 
    ENDLOOP
  ENDFACET
  FACET NORMAL +8.66025E-01 +5.47167E-16 -5.00000E-01 
    OUTER LOOP      
      VERTEX   -2.96078E+01 -1.17751E+01 -1.17273E+02 
      VERTEX   -2.22250E+01 -2.54000E+01 -1.04485E+02 
      VERTEX   -2.70850E+01 -2.34665E+01 -1.12903E+02 
    ENDLOOP
  ENDFACET
  FACET NORMAL +8.66025E-01 -6.38709E-16 -5.00000E-01 
    OUTER LOOP      
      VERTEX   -3.49250E+01 +0.00000E+00 -1.26483E+02 
      VERTEX   -3.39582E+01 +9.72015E+00 -1.24808E+02 
      VERTEX   -3.14312E+01 +4.20251E+00 -1.20431E+02 
    ENDLOOP
  ENDFACET
  FACET NORMAL +8.66025E-01 -1.78828E-12 -5.00000E-01 
    OUTER LOOP      
      VERTEX   -1.17778E+01 +1.70156E+01 -8.63909E+01 
      VERTEX   -2.22250E+01 +2.54000E+01 -1.04485E+02 
      VERTEX   +3.81000E+01 +2.54000E+01 +0.00000E+00 
    ENDLOOP
  ENDFACET
  FACET NORMAL +8.66025E-01 -1.13259E-16 -5.00000E-01 
    OUTER LOOP      
      VERTEX   +3.81000E+01 +2.54000E+01 +0.00000E+00 
      VERTEX   -6.66879E+00 -4.20251E+00 -7.75418E+01 
      VERTEX   -6.66879E+00 +4.20251E+00 -7.75418E+01 
    ENDLOOP
  ENDFACET
  FACET NORMAL +8.66025E-01 -2.33835E-15 -5.00000E-01 
    OUTER LOOP      
      VERTEX   -2.96078E+01 -1.17751E+01 -1.17273E+02 
      VERTEX   -2.63221E+01 -1.70156E+01 -1.11582E+02 
      VERTEX   -2.22250E+01 -2.54000E+01 -1.04485E+02 
    ENDLOOP
  ENDFACET
  FACET NORMAL +8.66025E-01 +3.54516E-16 -5.00000E-01 
    OUTER LOOP      
      VERTEX   -3.14312E+01 -4.20251E+00 -1.20431E+02 
      VERTEX   -3.12052E+01 -1.79605E+01 -1.20040E+02 
      VERTEX   -3.39582E+01 -9.72015E+00 -1.24808E+02 
    ENDLOOP
  ENDFACET
  FACET NORMAL +8.66025E-01 -4.18419E-13 -5.00000E-01 
    OUTER LOOP      
      VERTEX   -6.66879E+00 +4.20251E+00 -7.75418E+01 
      VERTEX   -8.49219E+00 +1.17751E+01 -8.07000E+01 
      VERTEX   +3.81000E+01 +2.54000E+01 +0.00000E+00 
    ENDLOOP
  ENDFACET
  FACET NORMAL +8.66025E-01 +3.20403E-16 -5.00000E-01 
    OUTER LOOP      
      VERTEX   -3.14312E+01 -4.20251E+00 -1.20431E+02 
      VERTEX   -2.70850E+01 -2.34665E+01 -1.12903E+02 
      VERTEX   -3.12052E+01 -1.79605E+01 -1.20040E+02 
    ENDLOOP
  ENDFACET
  FACET NORMAL +8.66025E-01 +5.54540E-13 -5.00000E-01 
    OUTER LOOP      
      VERTEX   -8.49219E+00 -1.17751E+01 -8.07000E+01 
      VERTEX   -6.66879E+00 -4.20251E+00 -7.75418E+01 
      VERTEX   +3.81000E+01 +2.54000E+01 +0.00000E+00 
    ENDLOOP
  ENDFACET
  FACET NORMAL +8.66025E-01 -5.93183E-16 -5.00000E-01 
    OUTER LOOP      
      VERTEX   -2.96078E+01 +1.17751E+01 -1.17273E+02 
      VERTEX   -3.14312E+01 +4.20251E+00 -1.20431E+02 
      VERTEX   -3.39582E+01 +9.72015E+00 -1.24808E+02 
    ENDLOOP
  ENDFACET
  FACET NORMAL +0.00000E+00 +1.00000E+00 +0.00000E+00 
    OUTER LOOP      
      VERTEX   -1.58750E+01 -1.88859E+01 -9.34874E+01 
      VERTEX   -2.22250E+01 -1.88859E+01 -1.04485E+02 
      VERTEX   -3.59731E+01 -1.88859E+01 -9.65484E+01 
    ENDLOOP
  ENDFACET
  FACET NORMAL +0.00000E+00 +1.00000E+00 +0.00000E+00 
    OUTER LOOP      
      VERTEX   -3.59731E+01 -1.88859E+01 -9.65484E+01 
      VERTEX   -2.96231E+01 -1.88859E+01 -8.55499E+01 
      VERTEX   -1.58750E+01 -1.88859E+01 -9.34874E+01 
    ENDLOOP
  ENDFACET
  FACET NORMAL +1.11260E-01 -9.74927E-01 +1.92708E-01 
    OUTER LOOP      
      VERTEX   -2.63221E+01 +1.70156E+01 -1.11582E+02 
      VERTEX   -2.22250E+01 +1.88859E+01 -1.04485E+02 
      VERTEX   -3.59731E+01 +1.88859E+01 -9.65484E+01 
    ENDLOOP
  ENDFACET
  FACET NORMAL +3.11744E-01 -7.81831E-01 +5.39958E-01 
    OUTER LOOP      
      VERTEX   -2.63221E+01 +1.70156E+01 -1.11582E+02 
      VERTEX   -4.00703E+01 +1.70156E+01 -1.03644E+02 
      VERTEX   -4.33559E+01 +1.17751E+01 -1.09335E+02 
    ENDLOOP
  ENDFACET
  FACET NORMAL +4.50484E-01 -4.33883E-01 +7.80261E-01 
    OUTER LOOP      
      VERTEX   -4.51793E+01 +4.20251E+00 -1.12494E+02 
      VERTEX   -3.14312E+01 +4.20251E+00 -1.20431E+02 
      VERTEX   -2.96078E+01 +1.17751E+01 -1.17273E+02 
    ENDLOOP
  ENDFACET
  FACET NORMAL +5.00000E-01 +0.00000E+00 +8.66025E-01 
    OUTER LOOP      
      VERTEX   -4.51793E+01 +4.20251E+00 -1.12494E+02 
      VERTEX   -4.51793E+01 -4.20251E+00 -1.12494E+02 
      VERTEX   -3.14312E+01 -4.20251E+00 -1.20431E+02 
    ENDLOOP
  ENDFACET
  FACET NORMAL +4.50484E-01 +4.33883E-01 +7.80261E-01 
    OUTER LOOP      
      VERTEX   -4.51793E+01 -4.20251E+00 -1.12494E+02 
      VERTEX   -4.33559E+01 -1.17751E+01 -1.09335E+02 
      VERTEX   -2.96078E+01 -1.17751E+01 -1.17273E+02 
    ENDLOOP
  ENDFACET
  FACET NORMAL +3.11744E-01 +7.81831E-01 +5.39958E-01 
    OUTER LOOP      
      VERTEX   -2.63221E+01 -1.70156E+01 -1.11582E+02 
      VERTEX   -2.96078E+01 -1.17751E+01 -1.17273E+02 
      VERTEX   -4.33559E+01 -1.17751E+01 -1.09335E+02 
    ENDLOOP
  ENDFACET
  FACET NORMAL +1.11260E-01 +9.74927E-01 +1.92708E-01 
    OUTER LOOP      
      VERTEX   -3.59731E+01 -1.88859E+01 -9.65484E+01 
      VERTEX   -2.22250E+01 -1.88859E+01 -1.04485E+02 
      VERTEX   -2.63221E+01 -1.70156E+01 -1.11582E+02 
    ENDLOOP
  ENDFACET
  FACET NORMAL +1.11260E-01 +9.74927E-01 +1.92708E-01 
    OUTER LOOP      
      VERTEX   -2.63221E+01 -1.70156E+01 -1.11582E+02 
      VERTEX   -4.00703E+01 -1.70156E+01 -1.03644E+02 
      VERTEX   -3.59731E+01 -1.88859E+01 -9.65484E+01 
    ENDLOOP
  ENDFACET
  FACET NORMAL +3.11744E-01 +7.81831E-01 +5.39958E-01 
    OUTER LOOP      
      VERTEX   -4.33559E+01 -1.17751E+01 -1.09335E+02 
      VERTEX   -4.00703E+01 -1.70156E+01 -1.03644E+02 
      VERTEX   -2.63221E+01 -1.70156E+01 -1.11582E+02 
    ENDLOOP
  ENDFACET
  FACET NORMAL +4.50484E-01 +4.33883E-01 +7.80261E-01 
    OUTER LOOP      
      VERTEX   -2.96078E+01 -1.17751E+01 -1.17273E+02 
      VERTEX   -3.14312E+01 -4.20251E+00 -1.20431E+02 
      VERTEX   -4.51793E+01 -4.20251E+00 -1.12494E+02 
    ENDLOOP
  ENDFACET
  FACET NORMAL +5.00000E-01 +0.00000E+00 +8.66025E-01 
    OUTER LOOP      
      VERTEX   -3.14312E+01 -4.20251E+00 -1.20431E+02 
      VERTEX   -3.14312E+01 +4.20251E+00 -1.20431E+02 
      VERTEX   -4.51793E+01 +4.20251E+00 -1.12494E+02 
    ENDLOOP
  ENDFACET
  FACET NORMAL +4.50484E-01 -4.33883E-01 +7.80261E-01 
    OUTER LOOP      
      VERTEX   -2.96078E+01 +1.17751E+01 -1.17273E+02 
      VERTEX   -4.33559E+01 +1.17751E+01 -1.09335E+02 
      VERTEX   -4.51793E+01 +4.20251E+00 -1.12494E+02 
    ENDLOOP
  ENDFACET
  FACET NORMAL +3.11744E-01 -7.81831E-01 +5.39958E-01 
    OUTER LOOP      
      VERTEX   -4.33559E+01 +1.17751E+01 -1.09335E+02 
      VERTEX   -2.96078E+01 +1.17751E+01 -1.17273E+02 
      VERTEX   -2.63221E+01 +1.70156E+01 -1.11582E+02 
    ENDLOOP
  ENDFACET
  FACET NORMAL +1.11260E-01 -9.74927E-01 +1.92708E-01 
    OUTER LOOP      
      VERTEX   -3.59731E+01 +1.88859E+01 -9.65484E+01 
      VERTEX   -4.00703E+01 +1.70156E+01 -1.03644E+02 
      VERTEX   -2.63221E+01 +1.70156E+01 -1.11582E+02 
    ENDLOOP
  ENDFACET
  FACET NORMAL +0.00000E+00 -1.00000E+00 +0.00000E+00 
    OUTER LOOP      
      VERTEX   -2.22250E+01 +1.88859E+01 -1.04485E+02 
      VERTEX   -1.58750E+01 +1.88859E+01 -9.34874E+01 
      VERTEX   -2.96231E+01 +1.88859E+01 -8.55499E+01 
    ENDLOOP
  ENDFACET
  FACET NORMAL +0.00000E+00 -1.00000E+00 +0.00000E+00 
    OUTER LOOP      
      VERTEX   -2.96231E+01 +1.88859E+01 -8.55499E+01 
      VERTEX   -3.59731E+01 +1.88859E+01 -9.65484E+01 
      VERTEX   -2.22250E+01 +1.88859E+01 -1.04485E+02 
    ENDLOOP
  ENDFACET
  FACET NORMAL -1.11260E-01 +9.74927E-01 -1.92708E-01 
    OUTER LOOP      
      VERTEX   -2.96231E+01 -1.88859E+01 -8.55499E+01 
      VERTEX   -2.55260E+01 -1.70156E+01 -7.84534E+01 
      VERTEX   -1.17778E+01 -1.70156E+01 -8.63909E+01 
    ENDLOOP
  ENDFACET
  FACET NORMAL -3.11744E-01 +7.81831E-01 -5.39958E-01 
    OUTER LOOP      
      VERTEX   -8.49219E+00 -1.17751E+01 -8.07000E+01 
      VERTEX   -1.17778E+01 -1.70156E+01 -8.63909E+01 
      VERTEX   -2.55260E+01 -1.70156E+01 -7.84534E+01 
    ENDLOOP
  ENDFACET
  FACET NORMAL -4.50484E-01 +4.33883E-01 -7.80261E-01 
    OUTER LOOP      
      VERTEX   -8.49219E+00 -1.17751E+01 -8.07000E+01 
      VERTEX   -2.22403E+01 -1.17751E+01 -7.27625E+01 
      VERTEX   -2.04169E+01 -4.20251E+00 -6.96043E+01 
    ENDLOOP
  ENDFACET
  FACET NORMAL -5.00000E-01 +0.00000E+00 -8.66025E-01 
    OUTER LOOP      
      VERTEX   -2.04169E+01 -4.20251E+00 -6.96043E+01 
      VERTEX   -2.04169E+01 +4.20251E+00 -6.96043E+01 
      VERTEX   -6.66879E+00 +4.20251E+00 -7.75418E+01 
    ENDLOOP
  ENDFACET
  FACET NORMAL -4.50484E-01 -4.33883E-01 -7.80261E-01 
    OUTER LOOP      
      VERTEX   -2.22403E+01 +1.17751E+01 -7.27625E+01 
      VERTEX   -8.49219E+00 +1.17751E+01 -8.07000E+01 
      VERTEX   -6.66879E+00 +4.20251E+00 -7.75418E+01 
    ENDLOOP
  ENDFACET
  FACET NORMAL -3.11744E-01 -7.81831E-01 -5.39958E-01 
    OUTER LOOP      
      VERTEX   -2.22403E+01 +1.17751E+01 -7.27625E+01 
      VERTEX   -2.55260E+01 +1.70156E+01 -7.84534E+01 
      VERTEX   -1.17778E+01 +1.70156E+01 -8.63909E+01 
    ENDLOOP
  ENDFACET
  FACET NORMAL -1.11260E-01 -9.74927E-01 -1.92708E-01 
    OUTER LOOP      
      VERTEX   -2.96231E+01 +1.88859E+01 -8.55499E+01 
      VERTEX   -1.58750E+01 +1.88859E+01 -9.34874E+01 
      VERTEX   -1.17778E+01 +1.70156E+01 -8.63909E+01 
    ENDLOOP
  ENDFACET
  FACET NORMAL -1.11260E-01 -9.74927E-01 -1.92708E-01 
    OUTER LOOP      
      VERTEX   -1.17778E+01 +1.70156E+01 -8.63909E+01 
      VERTEX   -2.55260E+01 +1.70156E+01 -7.84534E+01 
      VERTEX   -2.96231E+01 +1.88859E+01 -8.55499E+01 
    ENDLOOP
  ENDFACET
  FACET NORMAL -3.11744E-01 -7.81831E-01 -5.39958E-01 
    OUTER LOOP      
      VERTEX   -1.17778E+01 +1.70156E+01 -8.63909E+01 
      VERTEX   -8.49219E+00 +1.17751E+01 -8.07000E+01 
      VERTEX   -2.22403E+01 +1.17751E+01 -7.27625E+01 
    ENDLOOP
  ENDFACET
  FACET NORMAL -4.50484E-01 -4.33883E-01 -7.80261E-01 
    OUTER LOOP      
      VERTEX   -6.66879E+00 +4.20251E+00 -7.75418E+01 
      VERTEX   -2.04169E+01 +4.20251E+00 -6.96043E+01 
      VERTEX   -2.22403E+01 +1.17751E+01 -7.27625E+01 
    ENDLOOP
  ENDFACET
  FACET NORMAL -5.00000E-01 +0.00000E+00 -8.66025E-01 
    OUTER LOOP      
      VERTEX   -6.66879E+00 +4.20251E+00 -7.75418E+01 
      VERTEX   -6.66879E+00 -4.20251E+00 -7.75418E+01 
      VERTEX   -2.04169E+01 -4.20251E+00 -6.96043E+01 
    ENDLOOP
  ENDFACET
  FACET NORMAL -4.50484E-01 +4.33883E-01 -7.80261E-01 
    OUTER LOOP      
      VERTEX   -2.04169E+01 -4.20251E+00 -6.96043E+01 
      VERTEX   -6.66879E+00 -4.20251E+00 -7.75418E+01 
      VERTEX   -8.49219E+00 -1.17751E+01 -8.07000E+01 
    ENDLOOP
  ENDFACET
  FACET NORMAL -3.11744E-01 +7.81831E-01 -5.39958E-01 
    OUTER LOOP      
      VERTEX   -2.55260E+01 -1.70156E+01 -7.84534E+01 
      VERTEX   -2.22403E+01 -1.17751E+01 -7.27625E+01 
      VERTEX   -8.49219E+00 -1.17751E+01 -8.07000E+01 
    ENDLOOP
  ENDFACET
  FACET NORMAL -1.11260E-01 +9.74927E-01 -1.92708E-01 
    OUTER LOOP      
      VERTEX   -1.17778E+01 -1.70156E+01 -8.63909E+01 
      VERTEX   -1.58750E+01 -1.88859E+01 -9.34874E+01 
      VERTEX   -2.96231E+01 -1.88859E+01 -8.55499E+01 
    ENDLOOP
  ENDFACET
ENDSOLID
