ASSIGN OUTPUT2='shell.op2',UNIT=12
ID,NASTRAN,shell
SOL 101
TIME 999
CEND
TITLE =simple shell model
ECHO = NONE
OUTPUT
DISPLACEMENT(PLOT) = ALL
STRESS(PLOT,CORNER) = ALL
STRAIN(PLOT,FIBER,CORNER) = ALL
FORCE(PLOT,CORNER) = ALL
ESE(PLOT) = ALL
OLOAD(PLOT) = ALL
SPCFORCES(PLOT) = ALL
SPC = 1
SUBTITLE =pressure load
LOAD = 1
BEGIN BULK 
PARAM,AUTOSPC,YES 
PARAM,GRDPNT,0 
PARAM,POST, -1
PARAM,PATVER, 3.0
PARAM,K6ROT,100.0000
PARAM,MAXRATIO, 1.+8
GRID*                 97               0 4.000000000E-01 1.000000000E-01*1000097
*1000097 8.333333333E-02               0                               0
GRID*                 99               0 4.000000000E-01 1.000000000E-01*1000099
*1000099 1.666666667E-01               0                               0
GRID*                110               0 4.998270626E-01 1.000000000E-01*1000110
*1000110 1.649956822E-01               0                               0
GRID*                112               0 4.994994939E-01 1.000000000E-01*1000112
*1000112 8.185772896E-02               0                               0
GRID*                 98               0 4.000000000E-01 1.000000000E-01*1000098
*1000098 1.250000000E-01               0                               0
GRID*                107               0 4.499135313E-01 1.000000000E-01*1000107
*1000107 1.658311745E-01               0                               0
GRID*                108               0 4.996632783E-01 1.000000000E-01*1000108
*1000108 1.234267056E-01               0                               0
GRID*                106               0 4.497497469E-01 1.000000000E-01*1000106
*1000106 8.259553115E-02               0                               0
GRID*                 95               0 4.000000000E-01 1.000000000E-01*1000095
*1000095 2.500000000E-01               0                               0
GRID*                 93               0 5.000000000E-01 1.000000000E-01*1000093
*1000093 2.500000000E-01               0                               0
GRID*                100               0 4.000000000E-01 1.000000000E-01*1000100
*1000100 2.083333333E-01               0                               0
GRID*                 94               0 4.500000000E-01 1.000000000E-01*1000094
*1000094 2.500000000E-01               0                               0
GRID*                111               0 4.999135313E-01 1.000000000E-01*1000111
*1000111 2.074978411E-01               0                               0
GRID*                 72               0 5.000000000E-01 1.000000000E-01*1000072
*1000072 0.000000000E+00               0                               0
GRID*                 70               0 4.000000000E-01 1.000000000E-01*1000070
*1000070 0.000000000E+00               0                               0
GRID*                 71               0 4.500000000E-01 1.000000000E-01*1000071
*1000071 0.000000000E+00               0                               0
GRID*                 96               0 4.000000000E-01 1.000000000E-01*1000096
*1000096 4.166666667E-02               0                               0
GRID*                109               0 4.997497469E-01 1.000000000E-01*1000109
*1000109 4.092886448E-02               0                               0
GRID*                118               0 5.990233662E-01 1.000000000E-01*1000118
*1000118 8.159758250E-02               0                               0
GRID*                119               0 5.997657587E-01 1.000000000E-01*1000119
*1000119 1.644477954E-01               0                               0
GRID*                113               0 5.492614301E-01 1.000000000E-01*1000113
*1000113 8.172765573E-02               0                               0
GRID*                114               0 5.497964106E-01 1.000000000E-01*1000114
*1000114 1.647217388E-01               0                               0
GRID*                115               0 5.993945624E-01 1.000000000E-01*1000115
*1000115 1.230226889E-01               0                               0
GRID*                 91               0 6.000000000E-01 1.000000000E-01*1000091
*1000091 2.500000000E-01               0                               0
GRID*                 92               0 5.500000000E-01 1.000000000E-01*1000092
*1000092 2.500000000E-01               0                               0
GRID*                117               0 5.998828793E-01 1.000000000E-01*1000117
*1000117 2.072238977E-01               0                               0
GRID*                 74               0 6.000000000E-01 1.000000000E-01*1000074
*1000074 0.000000000E+00               0                               0
GRID*                 73               0 5.500000000E-01 1.000000000E-01*1000073
*1000073 0.000000000E+00               0                               0
GRID*                116               0 5.995116831E-01 1.000000000E-01*1000116
*1000116 4.079879125E-02               0                               0
GRID*                 76               0 7.000000000E-01 1.000000000E-01*1000076
*1000076 0.000000000E+00               0                               0
GRID*                122               0 7.003862709E-01 1.000000000E-01*1000122
*1000122 8.159866333E-02               0                               0
GRID*                 75               0 6.500000000E-01 1.000000000E-01*1000075
*1000075 0.000000000E+00               0                               0
GRID*                120               0 6.497048186E-01 1.000000000E-01*1000120
*1000120 8.159812291E-02               0                               0
GRID*                125               0 7.001931354E-01 1.000000000E-01*1000125
*1000125 4.079933167E-02               0                               0
GRID*                123               0 7.003117119E-01 1.000000000E-01*1000123
*1000123 1.642948178E-01               0                               0
GRID*                121               0 6.500387353E-01 1.000000000E-01*1000121
*1000121 1.643713066E-01               0                               0
GRID*                126               0 7.003489914E-01 1.000000000E-01*1000126
*1000126 1.229467406E-01               0                               0
GRID*                 89               0 7.000000000E-01 1.000000000E-01*1000089
*1000089 2.500000000E-01               0                               0
GRID*                 90               0 6.500000000E-01 1.000000000E-01*1000090
*1000090 2.500000000E-01               0                               0
GRID*                124               0 7.001558560E-01 1.000000000E-01*1000124
*1000124 2.071474089E-01               0                               0
GRID*                 78               0 8.000000000E-01 1.000000000E-01*1000078
*1000078 0.000000000E+00               0                               0
GRID*                129               0 8.010720611E-01 1.000000000E-01*1000129
*1000129 8.186340332E-02               0                               0
GRID*                 77               0 7.500000000E-01 1.000000000E-01*1000077
*1000077 0.000000000E+00               0                               0
GRID*                127               0 7.507291660E-01 1.000000000E-01*1000127
*1000127 8.173103333E-02               0                               0
GRID*                131               0 8.005360305E-01 1.000000000E-01*1000131
*1000131 4.093170166E-02               0                               0
GRID*                130               0 8.014560360E-01 1.000000000E-01*1000130
*1000130 1.653603561E-01               0                               0
GRID*                128               0 7.508838740E-01 1.000000000E-01*1000128
*1000128 1.648275869E-01               0                               0
GRID*                133               0 8.012640486E-01 1.000000000E-01*1000133
*1000133 1.236118797E-01               0                               0
GRID*                 87               0 8.000000000E-01 1.000000000E-01*1000087
*1000087 2.500000000E-01               0                               0
GRID*                 88               0 7.500000000E-01 1.000000000E-01*1000088
*1000088 2.500000000E-01               0                               0
GRID*                132               0 8.007280180E-01 1.000000000E-01*1000132
*1000132 2.076801780E-01               0                               0
GRID*                 85               0 9.000000000E-01 1.000000000E-01*1000085
*1000085 2.500000000E-01               0                               0
GRID*                136               0 9.009019489E-01 1.000000000E-01*1000136
*1000136 1.662536225E-01               0                               0
GRID*                 86               0 8.500000000E-01 1.000000000E-01*1000086
*1000086 2.500000000E-01               0                               0
GRID*                138               0 9.004509744E-01 1.000000000E-01*1000138
*1000138 2.081268113E-01               0                               0
GRID*                135               0 8.511789925E-01 1.000000000E-01*1000135
*1000135 1.658069893E-01               0                               0
GRID*                 80               0 9.000000000E-01 1.000000000E-01*1000080
*1000080 0.000000000E+00               0                               0
GRID*                139               0 9.004935025E-01 1.000000000E-01*1000139
*1000139 8.286258980E-02               0                               0
GRID*                 79               0 8.500000000E-01 1.000000000E-01*1000079
*1000079 0.000000000E+00               0                               0
GRID*                134               0 8.507827818E-01 1.000000000E-01*1000134
*1000134 8.236299656E-02               0                               0
GRID*                137               0 9.002467512E-01 1.000000000E-01*1000137
*1000137 4.143129490E-02               0                               0
GRID*                140               0 9.006977257E-01 1.000000000E-01*1000140
*1000140 1.245581062E-01               0                               0
GRID*                 83               0 1.000000000E+00 1.000000000E-01*1000083
*1000083 2.500000000E-01               0                               0
GRID*                104               0 1.000000000E+00 1.000000000E-01*1000104
*1000104 1.666666667E-01               0                               0
GRID*                 84               0 9.500000000E-01 1.000000000E-01*1000084
*1000084 2.500000000E-01               0                               0
GRID*                105               0 1.000000000E+00 1.000000000E-01*1000105
*1000105 2.083333333E-01               0                               0
GRID*                142               0 9.504509744E-01 1.000000000E-01*1000142
*1000142 1.664601446E-01               0                               0
GRID*                102               0 1.000000000E+00 1.000000000E-01*1000102
*1000102 8.333333333E-02               0                               0
GRID*                 82               0 1.000000000E+00 1.000000000E-01*1000082
*1000082 0.000000000E+00               0                               0
GRID*                101               0 1.000000000E+00 1.000000000E-01*1000101
*1000101 4.166666667E-02               0                               0
GRID*                 81               0 9.500000000E-01 1.000000000E-01*1000081
*1000081 0.000000000E+00               0                               0
GRID*                141               0 9.502467512E-01 1.000000000E-01*1000141
*1000141 8.309796157E-02               0                               0
GRID*                103               0 1.000000000E+00 1.000000000E-01*1000103
*1000103 1.250000000E-01               0                               0
GRID*                166               0 1.000000000E-01 4.000000000E-01*1000166
*1000166 8.333333333E-02               1                               0
GRID*                164               0 1.000000000E-01 4.000000000E-01*1000164
*1000164 1.666666667E-01               1                               0
GRID*                172               0 1.146558285E-01 3.073787078E-01*1000172
*1000172 1.656139883E-01               0                               0
GRID*                174               0 1.145767858E-01 3.076225741E-01*1000174
*1000174 8.241241547E-02               0                               0
GRID*                165               0 1.000000000E-01 4.000000000E-01*1000165
*1000165 1.250000000E-01               1                               0
GRID*                169               0 1.036866089E-01 3.531131759E-01*1000169
*1000169 1.661403275E-01               0                               0
GRID*                170               0 1.146162811E-01 3.075006325E-01*1000170
*1000170 1.240132019E-01               0                               0
GRID*                168               0 1.036666031E-01 3.532397832E-01*1000168
*1000168 8.287287440E-02               0                               0
GRID*                162               0 1.000000000E-01 4.000000000E-01*1000162
*1000162 2.500000000E-01               1                               0
GRID*                160               0 1.146830451E-01 3.072949017E-01*1000160
*1000160 2.500000000E-01               0                               0
GRID*                163               0 1.000000000E-01 4.000000000E-01*1000163
*1000163 2.083333333E-01               1                               0
GRID*                161               0 1.036934978E-01 3.530696605E-01*1000161
*1000161 2.500000000E-01               0                               0
GRID*                173               0 1.146694337E-01 3.073368037E-01*1000173
*1000173 2.078069942E-01               0                               0
GRID*                145               0 1.146830451E-01 3.072949017E-01*1000145
*1000145 0.000000000E+00               0                               0
GRID*                143               0 1.000000000E-01 4.000000000E-01*1000143
*1000143 0.000000000E+00               1                               0
GRID*                144               0 1.036934978E-01 3.530696605E-01*1000144
*1000144 0.000000000E+00               0                               0
GRID*                167               0 1.000000000E-01 4.000000000E-01*1000167
*1000167 4.166666667E-02               1                               0
GRID*                171               0 1.146298684E-01 3.074587227E-01*1000171
*1000171 4.120620774E-02               0                               0
GRID*                180               0 1.569612223E-01 2.241246108E-01*1000180
*1000180 8.228149832E-02               0                               0
GRID*                181               0 1.573122001E-01 2.236406175E-01*1000181
*1000181 1.652769670E-01               0                               0
GRID*                175               0 1.324911278E-01 2.642097083E-01*1000175
*1000175 8.234695690E-02               0                               0
GRID*                176               0 1.326847224E-01 2.638289959E-01*1000176
*1000176 1.654454777E-01               0                               0
GRID*                177               0 1.571365906E-01 2.238825267E-01*1000177
*1000177 1.237792327E-01               0                               0
GRID*                158               0 1.572949017E-01 2.236644243E-01*1000158
*1000158 2.500000000E-01               0                               0
GRID*                159               0 1.326980427E-01 2.638028501E-01*1000159
*1000159 2.500000000E-01               0                               0
GRID*                179               0 1.573035506E-01 2.236525207E-01*1000179
*1000179 2.076384835E-01               0                               0
GRID*                147               0 1.572949017E-01 2.236644243E-01*1000147
*1000147 0.000000000E+00               0                               0
GRID*                146               0 1.326980427E-01 2.638028501E-01*1000146
*1000146 0.000000000E+00               0                               0
GRID*                178               0 1.571279530E-01 2.238944385E-01*1000178
*1000178 4.114074916E-02               0                               0
GRID*                149               0 2.236644243E-01 1.572949017E-01*1000149
*1000149 0.000000000E+00               0                               0
GRID*                184               0 2.243124312E-01 1.568254163E-01*1000184
*1000184 8.241578880E-02               0                               0
GRID*                148               0 1.878679656E-01 1.878679656E-01*1000148
*1000148 0.000000000E+00               0                               0
GRID*                182               0 1.879499264E-01 1.877860366E-01*1000182
*1000182 8.234864356E-02               0                               0
GRID*                186               0 2.239882712E-01 1.570599429E-01*1000186
*1000186 4.120789440E-02               0                               0
GRID*                185               0 2.245303763E-01 1.566681049E-01*1000185
*1000185 1.658739628E-01               0                               0
GRID*                183               0 1.882566717E-01 1.874799705E-01*1000183
*1000183 1.655754649E-01               0                               0
GRID*                188               0 2.244213861E-01 1.567467362E-01*1000188
*1000188 1.241448758E-01               0                               0
GRID*                156               0 2.236644243E-01 1.572949017E-01*1000156
*1000156 2.500000000E-01               0                               0
GRID*                157               0 1.878679656E-01 1.878679656E-01*1000157
*1000157 2.500000000E-01               0                               0
GRID*                187               0 2.240971211E-01 1.569811176E-01*1000187
*1000187 2.079369814E-01               0                               0
GRID*                154               0 3.072949017E-01 1.146830451E-01*1000154
*1000154 2.500000000E-01               0                               0
GRID*                191               0 3.079495986E-01 1.144711510E-01*1000191
*1000191 1.664145175E-01               0                               0
GRID*                155               0 2.638028501E-01 1.326980427E-01*1000155
*1000155 2.500000000E-01               0                               0
GRID*                193               0 3.076221894E-01 1.145769104E-01*1000193
*1000193 2.082072587E-01               0                               0
GRID*                190               0 2.645862389E-01 1.323003300E-01*1000190
*1000190 1.661442401E-01               0                               0
GRID*                151               0 3.072949017E-01 1.146830451E-01*1000151
*1000151 0.000000000E+00               0                               0
GRID*                194               0 3.076481837E-01 1.145684986E-01*1000194
*1000194 8.304090991E-02               0                               0
GRID*                150               0 2.638028501E-01 1.326980427E-01*1000150
*1000150 0.000000000E+00               0                               0
GRID*                189               0 2.643250584E-01 1.324326062E-01*1000189
*1000189 8.272834935E-02               0                               0
GRID*                192               0 3.074715249E-01 1.146257172E-01*1000192
*1000192 4.152045495E-02               0                               0
GRID*                195               0 3.077988783E-01 1.145197850E-01*1000195
*1000195 1.247277137E-01               0                               0
GRID*                153               0 3.530696605E-01 1.036934978E-01*1000153
*1000153 2.500000000E-01               0                               0
GRID*                197               0 3.534095218E-01 1.036398688E-01*1000197
*1000197 1.665405921E-01               0                               0
GRID*                152               0 3.530696605E-01 1.036934978E-01*1000152
*1000152 0.000000000E+00               0                               0
GRID*                196               0 3.532530773E-01 1.036645056E-01*1000196
*1000196 8.318712162E-02               0                               0
GRID*                225               0 1.000000000E-01 5.000000000E-01*1000225
*1000225 0.000000000E+00               1                               0
GRID*                231               0 1.000000000E-01 4.998270626E-01*1000231
*1000231 8.500431776E-02               1                               0
GRID*                226               0 1.000000000E-01 4.500000000E-01*1000226
*1000226 0.000000000E+00               1                               0
GRID*                232               0 1.000000000E-01 4.999135313E-01*1000232
*1000232 4.250215888E-02               1                               0
GRID*                228               0 1.000000000E-01 4.499135313E-01*1000228
*1000228 8.416882555E-02               1                               0
GRID*                233               0 1.000000000E-01 4.994994939E-01*1000233
*1000233 1.681422710E-01               1                               0
GRID*                229               0 1.000000000E-01 4.996632783E-01*1000229
*1000229 1.265732944E-01               1                               0
GRID*                227               0 1.000000000E-01 4.497497469E-01*1000227
*1000227 1.674044689E-01               1                               0
GRID*                206               0 1.000000000E-01 5.000000000E-01*1000206
*1000206 2.500000000E-01               1                               0
GRID*                205               0 1.000000000E-01 4.500000000E-01*1000205
*1000205 2.500000000E-01               1                               0
GRID*                230               0 1.000000000E-01 4.997497469E-01*1000230
*1000230 2.090711355E-01               1                               0
GRID*                223               0 1.000000000E-01 6.000000000E-01*1000223
*1000223 0.000000000E+00               1                               0
GRID*                239               0 1.000000000E-01 5.997657587E-01*1000239
*1000239 8.555220465E-02               1                               0
GRID*                224               0 1.000000000E-01 5.500000000E-01*1000224
*1000224 0.000000000E+00               1                               0
GRID*                238               0 1.000000000E-01 5.998828793E-01*1000238
*1000238 4.277610232E-02               1                               0
GRID*                235               0 1.000000000E-01 5.497964106E-01*1000235
*1000235 8.527826120E-02               1                               0
GRID*                240               0 1.000000000E-01 5.990233662E-01*1000240
*1000240 1.684024175E-01               1                               0
GRID*                234               0 1.000000000E-01 5.492614301E-01*1000234
*1000234 1.682723443E-01               1                               0
GRID*                236               0 1.000000000E-01 5.993945624E-01*1000236
*1000236 1.269773111E-01               1                               0
GRID*                208               0 1.000000000E-01 6.000000000E-01*1000208
*1000208 2.500000000E-01               1                               0
GRID*                207               0 1.000000000E-01 5.500000000E-01*1000207
*1000207 2.500000000E-01               1                               0
GRID*                237               0 1.000000000E-01 5.995116831E-01*1000237
*1000237 2.092012088E-01               1                               0
GRID*                221               0 1.000000000E-01 7.000000000E-01*1000221
*1000221 0.000000000E+00               1                               0
GRID*                243               0 1.000000000E-01 7.003117119E-01*1000243
*1000243 8.570518220E-02               1                               0
GRID*                222               0 1.000000000E-01 6.500000000E-01*1000222
*1000222 0.000000000E+00               1                               0
GRID*                245               0 1.000000000E-01 7.001558560E-01*1000245
*1000245 4.285259110E-02               1                               0
GRID*                242               0 1.000000000E-01 6.500387353E-01*1000242
*1000242 8.562869343E-02               1                               0
GRID*                244               0 1.000000000E-01 7.003862709E-01*1000244
*1000244 1.684013367E-01               1                               0
GRID*                247               0 1.000000000E-01 7.003489914E-01*1000247
*1000247 1.270532594E-01               1                               0
GRID*                241               0 1.000000000E-01 6.497048186E-01*1000241
*1000241 1.684018771E-01               1                               0
GRID*                210               0 1.000000000E-01 7.000000000E-01*1000210
*1000210 2.500000000E-01               1                               0
GRID*                209               0 1.000000000E-01 6.500000000E-01*1000209
*1000209 2.500000000E-01               1                               0
GRID*                246               0 1.000000000E-01 7.001931354E-01*1000246
*1000246 2.092006683E-01               1                               0
GRID*                219               0 1.000000000E-01 8.000000000E-01*1000219
*1000219 0.000000000E+00               1                               0
GRID*                250               0 1.000000000E-01 8.014560360E-01*1000250
*1000250 8.463964394E-02               1                               0
GRID*                220               0 1.000000000E-01 7.500000000E-01*1000220
*1000220 0.000000000E+00               1                               0
GRID*                253               0 1.000000000E-01 8.007280180E-01*1000253
*1000253 4.231982197E-02               1                               0
GRID*                249               0 1.000000000E-01 7.508838740E-01*1000249
*1000249 8.517241307E-02               1                               0
GRID*                251               0 1.000000000E-01 8.010720611E-01*1000251
*1000251 1.681365967E-01               1                               0
GRID*                248               0 1.000000000E-01 7.507291660E-01*1000248
*1000248 1.682689667E-01               1                               0
GRID*                254               0 1.000000000E-01 8.012640486E-01*1000254
*1000254 1.263881203E-01               1                               0
GRID*                212               0 1.000000000E-01 8.000000000E-01*1000212
*1000212 2.500000000E-01               1                               0
GRID*                211               0 1.000000000E-01 7.500000000E-01*1000211
*1000211 2.500000000E-01               1                               0
GRID*                252               0 1.000000000E-01 8.005360305E-01*1000252
*1000252 2.090682983E-01               1                               0
GRID*                217               0 1.000000000E-01 9.000000000E-01*1000217
*1000217 0.000000000E+00               1                               0
GRID*                257               0 1.000000000E-01 9.009019489E-01*1000257
*1000257 8.374637746E-02               1                               0
GRID*                218               0 1.000000000E-01 8.500000000E-01*1000218
*1000218 0.000000000E+00               1                               0
GRID*                259               0 1.000000000E-01 9.004509744E-01*1000259
*1000259 4.187318873E-02               1                               0
GRID*                256               0 1.000000000E-01 8.511789925E-01*1000256
*1000256 8.419301070E-02               1                               0
GRID*                260               0 1.000000000E-01 9.004935025E-01*1000260
*1000260 1.671374102E-01               1                               0
GRID*                255               0 1.000000000E-01 8.507827818E-01*1000255
*1000255 1.676370034E-01               1                               0
GRID*                261               0 1.000000000E-01 9.006977257E-01*1000261
*1000261 1.254418938E-01               1                               0
GRID*                214               0 1.000000000E-01 9.000000000E-01*1000214
*1000214 2.500000000E-01               1                               0
GRID*                213               0 1.000000000E-01 8.500000000E-01*1000213
*1000213 2.500000000E-01               1                               0
GRID*                258               0 1.000000000E-01 9.002467512E-01*1000258
*1000258 2.085687051E-01               1                               0
GRID*                198               0 1.000000000E-01 1.000000000E+00*1000198
*1000198 0.000000000E+00               1                               0
GRID*                200               0 1.000000000E-01 1.000000000E+00*1000200
*1000200 8.333333333E-02               1                               0
GRID*                216               0 1.000000000E-01 9.500000000E-01*1000216
*1000216 0.000000000E+00               1                               0
GRID*                199               0 1.000000000E-01 1.000000000E+00*1000199
*1000199 4.166666667E-02               1                               0
GRID*                263               0 1.000000000E-01 9.504509744E-01*1000263
*1000263 8.353985539E-02               1                               0
GRID*                202               0 1.000000000E-01 1.000000000E+00*1000202
*1000202 1.666666667E-01               1                               0
GRID*                201               0 1.000000000E-01 1.000000000E+00*1000201
*1000201 1.250000000E-01               1                               0
GRID*                262               0 1.000000000E-01 9.502467512E-01*1000262
*1000262 1.669020384E-01               1                               0
GRID*                204               0 1.000000000E-01 1.000000000E+00*1000204
*1000204 2.500000000E-01               1                               0
GRID*                203               0 1.000000000E-01 1.000000000E+00*1000203
*1000203 2.083333333E-01               1                               0
GRID*                215               0 1.000000000E-01 9.500000000E-01*1000215
*1000215 2.500000000E-01               1                               0
MAT1*                  1 3.000000000E+07                 3.000000000E-01*2001000
*2001000                 6.500000000E-06                                
PSHELL         1       10.200000       11.000000       10.833333        
CQUAD8        16       1      97      99     110     112      98     107+
+            108     106                                        
CQUAD8        17       1      99      95      93     110     100      94+
+            111     107                                        
CQUAD8        18       1      72      70      97     112      71      96+
+            106     109                                        
CQUAD8        19       1     118     112     110     119     113     108+
+            114     115                                        
CQUAD8        20       1      93      91     119     110      92     117+
+            114     111                                        
CQUAD8        21       1      74      72     112     118      73     109+
+            113     116                                        
CQUAD8        22       1      76      74     118     122      75     116+
+            120     125                                        
CQUAD8        23       1     119     123     122     118     121     126+
+            120     115                                        
CQUAD8        24       1      91      89     123     119      90     124+
+            121     117                                        
CQUAD8        25       1      78      76     122     129      77     125+
+            127     131                                        
CQUAD8        26       1     129     122     123     130     127     126+
+            128     133                                        
CQUAD8        27       1      89      87     130     123      88     132+
+            128     124                                        
CQUAD8        28       1      87      85     136     130      86     138+
+            135     132                                        
CQUAD8        29       1      80      78     129     139      79     131+
+            134     137                                        
CQUAD8        30       1     139     129     130     136     134     133+
+            135     140                                        
CQUAD8        31       1      85      83     104     136      84     105+
+            142     138                                        
CQUAD8        32       1     102      82      80     139     101      81+
+            137     141                                        
CQUAD8        33       1     104     102     139     136     103     141+
+            140     142                                        
CQUAD8        34       1     166     164     172     174     165     169+
+            170     168                                        
CQUAD8        35       1     164     162     160     172     163     161+
+            173     169                                        
CQUAD8        36       1     145     143     166     174     144     167+
+            168     171                                        
CQUAD8        37       1     180     174     172     181     175     170+
+            176     177                                        
CQUAD8        38       1     160     158     181     172     159     179+
+            176     173                                        
CQUAD8        39       1     147     145     174     180     146     171+
+            175     178                                        
CQUAD8        40       1     149     147     180     184     148     178+
+            182     186                                        
CQUAD8        41       1     184     180     181     185     182     177+
+            183     188                                        
CQUAD8        42       1     158     156     185     181     157     187+
+            183     179                                        
CQUAD8        43       1     156     154     191     185     155     193+
+            190     187                                        
CQUAD8        44       1     151     149     184     194     150     186+
+            189     192                                        
CQUAD8        45       1     194     184     185     191     189     188+
+            190     195                                        
CQUAD8        46       1     154      95      99     191     153     100+
+            197     193                                        
CQUAD8        47       1      97      70     151     194      96     152+
+            192     196                                        
CQUAD8        48       1      99      97     194     191      98     196+
+            195     197                                        
CQUAD8        49       1     166     143     225     231     167     226+
+            232     228                                        
CQUAD8        50       1     164     166     231     233     165     228+
+            229     227                                        
CQUAD8        51       1     206     162     164     233     205     163+
+            227     230                                        
CQUAD8        52       1     225     223     239     231     224     238+
+            235     232                                        
CQUAD8        53       1     240     233     231     239     234     229+
+            235     236                                        
CQUAD8        54       1     208     206     233     240     207     230+
+            234     237                                        
CQUAD8        55       1     223     221     243     239     222     245+
+            242     238                                        
CQUAD8        56       1     239     243     244     240     242     247+
+            241     236                                        
CQUAD8        57       1     210     208     240     244     209     237+
+            241     246                                        
CQUAD8        58       1     221     219     250     243     220     253+
+            249     245                                        
CQUAD8        59       1     251     244     243     250     248     247+
+            249     254                                        
CQUAD8        60       1     212     210     244     251     211     246+
+            248     252                                        
CQUAD8        61       1     219     217     257     250     218     259+
+            256     253                                        
CQUAD8        62       1     260     251     250     257     255     254+
+            256     261                                        
CQUAD8        63       1     214     212     251     260     213     252+
+            255     258                                        
CQUAD8        64       1     217     198     200     257     216     199+
+            263     259                                        
CQUAD8        65       1     200     202     260     257     201     262+
+            261     263                                        
CQUAD8        66       1     202     204     214     260     203     215+
+            258     262                                        
CORD2R         1          0.0000  0.0000  0.0000  0.0000  0.00001.000000
        1.000000  0.0000  0.0000
PLOAD4         1      33-10000.0
PLOAD4         1      31-10000.0
PLOAD4         1      19-10000.0
PLOAD4         1      29-10000.0
PLOAD4         1      24-10000.0
PLOAD4         1      22-10000.0
PLOAD4         1      30-10000.0
PLOAD4         1      16-10000.0
PLOAD4         1      25-10000.0
PLOAD4         1      17-10000.0
PLOAD4         1      26-10000.0
PLOAD4         1      32-10000.0
PLOAD4         1      28-10000.0
PLOAD4         1      23-10000.0
PLOAD4         1      18-10000.0
PLOAD4         1      27-10000.0
PLOAD4         1      20-10000.0
PLOAD4         1      21-10000.0
SPC            1     162  123456  0.0000
SPC            1     204  123456  0.0000
SPC            1     143  123456  0.0000
SPC            1     198  123456  0.0000
SPC            1     248  123456  0.0000
SPC            1     257  123456  0.0000
SPC            1     227  123456  0.0000
SPC            1     260  123456  0.0000
SPC            1     233  123456  0.0000
SPC            1     209  123456  0.0000
SPC            1     255  123456  0.0000
SPC            1     262  123456  0.0000
SPC            1     164  123456  0.0000
SPC            1     245  123456  0.0000
SPC            1     242  123456  0.0000
SPC            1     253  123456  0.0000
SPC            1     231  123456  0.0000
SPC            1     229  123456  0.0000
SPC            1     206  123456  0.0000
SPC            1     163  123456  0.0000
SPC            1     203  123456  0.0000
SPC            1     251  123456  0.0000
SPC            1     261  123456  0.0000
SPC            1     228  123456  0.0000
SPC            1     221  123456  0.0000
SPC            1     218  123456  0.0000
SPC            1     249  123456  0.0000
SPC            1     222  123456  0.0000
SPC            1     256  123456  0.0000
SPC            1     217  123456  0.0000
SPC            1     244  123456  0.0000
SPC            1     202  123456  0.0000
SPC            1     246  123456  0.0000
SPC            1     205  123456  0.0000
SPC            1     232  123456  0.0000
SPC            1     165  123456  0.0000
SPC            1     247  123456  0.0000
SPC            1     226  123456  0.0000
SPC            1     250  123456  0.0000
SPC            1     215  123456  0.0000
SPC            1     208  123456  0.0000
SPC            1     237  123456  0.0000
SPC            1     240  123456  0.0000
SPC            1     263  123456  0.0000
SPC            1     230  123456  0.0000
SPC            1     223  123456  0.0000
SPC            1     235  123456  0.0000
SPC            1     213  123456  0.0000
SPC            1     225  123456  0.0000
SPC            1     207  123456  0.0000
SPC            1     201  123456  0.0000
SPC            1     216  123456  0.0000
SPC            1     259  123456  0.0000
SPC            1     252  123456  0.0000
SPC            1     238  123456  0.0000
SPC            1     239  123456  0.0000
SPC            1     166  123456  0.0000
SPC            1     241  123456  0.0000
SPC            1     210  123456  0.0000
SPC            1     234  123456  0.0000
SPC            1     219  123456  0.0000
SPC            1     220  123456  0.0000
SPC            1     254  123456  0.0000
SPC            1     224  123456  0.0000
SPC            1     200  123456  0.0000
SPC            1     212  123456  0.0000
SPC            1     199  123456  0.0000
SPC            1     167  123456  0.0000
SPC            1     214  123456  0.0000
SPC            1     211  123456  0.0000
SPC            1     258  123456  0.0000
SPC            1     243  123456  0.0000
SPC            1     236  123456  0.0000
ENDDATA 585383c3
