    -1
  2411
         1         1         1         1
   0.0000000000000000   -0.5000000000000000    0.0000000000000000
         2         1         1         1
   2.0000000000000000   -0.5000000000000000    0.0000000000000000
         3         1         1         1
   2.0000000000000000    0.5000000000000000    0.0000000000000000
         4         1         1         1
   0.0000000000000000    0.5000000000000000    0.0000000000000000
         5         1         1         1
   0.7000000000000000   -0.3000000000000000    0.0000000000000000
         6         1         1         1
   1.3000000000000000   -0.3000000000000000    0.0000000000000000
         7         1         1         1
   1.3000000000000000    0.3000000000000000    0.0000000000000000
         8         1         1         1
   0.7000000000000000    0.3000000000000000    0.0000000000000000
         9         1         1         1
   0.7000000000000000   -0.3000000000000000    0.4000000000000000
        10         1         1         1
   1.3000000000000000   -0.3000000000000000    0.4000000000000000
        11         1         1         1
   1.3000000000000000    0.3000000000000000    0.4000000000000000
        12         1         1         1
   0.7000000000000000    0.3000000000000000    0.4000000000000000
    -1
    -1
  2412
         1        94         1         1         1         4
         1         2         3         4
         2        94         1         1         1         4
         9        10        11        12
         3        94         1         1         1         4
         5         6        10         9
         4        94         1         1         1         4
         6         7        11        10
         5        94         1         1         1         4
         7         8        12        11
         6        94         1         1         1         4
         8         5         9        12
    -1
